<svg xmlns="http://www.w3.org/2000/svg" xmlns:xlink="http://www.w3.org/1999/xlink" version="1.1" width="227.43961013108492" height="74.32576812058687" viewBox="6.554041560739279 0.7256419025361538 227.43961013108492 74.32576812058687">
  <!-- Exported by Scratch - http://scratch.mit.edu/ -->
  <g id="ID0.7545977397821844">
    <path id="ID0.8678541802801192" fill="#FFFFFF" stroke="#000000" stroke-width="11.158115990459919" stroke-linecap="round" d="M 12.1331 51.2161 L 16.1314 44.7072 L 30.544 31.9683 L 46.1653 22.6699 L 59.1831 17.2768 L 71.643 13.0925 L 91.9136 9.6521 L 119.8089 7.5135 L 153.7482 6.3047 L 173.7398 7.0485 L 197.1718 9.6521 L 213.909 11.8837 L 228.4146 16.8119 L 223.9513 28.8999 L 223.0215 41.4527 L 203.4948 40.9878 L 185.0839 40.9878 L 170.7643 42.5685 L 159.6062 44.7072 L 148.634 47.0318 L 126.3178 55.8653 L 114.4158 50.9371 L 102.8858 48.7055 L 87.0784 46.2879 L 62.3446 45.1721 L 33.3335 46.8458 L 12.1331 51.2161 Z "/>
    <path id="ID0.729963107034564" fill="#000000" stroke="none" d="M 139.9854 53.6033 C 143.6249 55.4214 146.6105 58.5161 148.6979 61.9375 C 149.7886 63.7245 150.5109 66.8416 148.9764 68.4457 C 147.3027 70.0784 144.1129 69.387 141.7745 68.9205 C 138.1713 68.2073 135.0059 66.4638 131.5633 64.74 C 126.2766 62.0883 120.4282 60.1608 115.9676 56.08 C 114.9381 55.2301 118.5064 54.6457 119.9111 54.2737 C 122.8562 53.4966 125.9528 53.166 129.0279 53.3077 C 132.6789 52.9445 136.6049 51.904 139.9854 53.6033 Z " stroke-width="1.859685978203186"/>
  </g>
</svg>