<svg xmlns="http://www.w3.org/2000/svg" xmlns:xlink="http://www.w3.org/1999/xlink" version="1.1" width="236.81956956201273" height="107.25156113916117" viewBox="0.5462207922663405 -0.28927897122242907 236.81956956201273 107.25156113916117">
  <!-- Exported by Scratch - http://scratch.mit.edu/ -->
  <g id="ID0.1739549390040338">
    <path id="ID0.012961330357939005" fill="#FFFFFF" stroke="#000000" stroke-width="13.354557965333042" stroke-linecap="round" d="M 135.2192 78.8588 L 115.7034 79.8041 L 101.1105 81.3795 L 85.2868 82.955 L 62.0788 86.421 L 41.6839 90.8323 L 21.1132 96.6614 L 9.3334 100.285 L 7.5752 90.8323 L 7.2235 81.0644 L 8.8059 68.7759 L 12.4981 60.8986 L 17.2452 50.5007 L 21.1132 43.8838 L 29.9041 35.6914 L 40.8048 28.1292 L 52.5846 22.1425 L 62.4305 18.6765 L 73.8586 15.5256 L 85.2868 12.0596 L 99.1765 10.0115 L 113.5936 7.9634 L 124.3185 7.3332 L 138.2081 6.388 L 151.5703 6.8606 L 162.471 7.3332 L 170.9103 7.3332 L 187.4372 9.2238 L 200.7994 10.4841 L 213.8099 12.3747 L 230.6885 18.3614 L 227.8754 23.718 L 225.2381 30.0198 L 224.359 41.5206 L 224.359 53.6516 L 225.5898 68.7759 L 227.1721 78.2286 L 227.8754 85.1606 L 209.7661 82.4824 L 183.745 79.8041 L 154.2076 78.8588 L 135.2192 78.8588 Z "/>
    <path id="ID0.6935098143294454" fill="#F37070" stroke="none" stroke-linecap="round" d="M 118.3504 47.0676 C 126.2235 46.5524 130.7165 45.0151 136.3404 46.0606 C 146.0269 47.7125 154.4942 49.1657 159.3285 54.7151 C 162.2739 57.9878 155.7145 63.182 151.3519 65.2828 C 143.2608 69.1566 133.5279 70.7214 124.3582 71.6745 C 118.7474 72.0788 113.2896 70.6082 108.0321 69.2597 C 101.4741 67.5742 95.7787 65.5827 89.2478 62.4166 C 82.6449 59.1651 66.8006 52.8794 71.4466 50.3904 C 80.5892 45.5749 102.7363 48.0937 118.3504 47.0676 Z " stroke-width="0.909638195763207"/>
    <path id="ID0.6293271016329527" fill="none" stroke="#000000" stroke-width="9.452718257904053" stroke-linecap="round" d="M 221.8271 43.9799 L 17.9635 51.8572 "/>
  </g>
</svg>