<svg xmlns="http://www.w3.org/2000/svg" xmlns:xlink="http://www.w3.org/1999/xlink" version="1.1" width="281.006103515625" height="199.8852081298828" viewBox="-0.006092071533203125 -1.292825698852539 281.006103515625 199.8852081298828">
  <!-- Exported by Scratch - http://scratch.mit.edu/ -->
  <g id="ID0.7929960326291621">
    <path id="ID0.6061293352395296" fill="#FFFFFF" stroke="none" stroke-linecap="round" d="M 200 13.05 C 209.389 15.261 211.764 27.143 221.5 32.55 C 230.12 37.411 247.556 33.706 249.5 42.55 C 251.739 52.76 241.167 68.551 230 71.05 C 215.628 73.828 203.6 56.271 189 55.05 C 176.178 53.968 165.345 64.691 153 64.55 C 136.507 65.032 120.837 54.133 104.5 56.05 C 85.245 58.307 67.192 67.165 50 76.55 C 37.36 83.474 28.76 107.988 17.5 106.05 C 7.73 104.193 5.871 82.027 6 69.05 C 6.943 58.458 12.278 47.123 20.5 40.05 C 37.938 25.085 57.114 9.25 79.5 5.55 C 105.136 1.129 130.972 15.463 156.5 17.05 C 171.018 17.951 186.158 9.805 200 13.05 Z " stroke-width="1"/>
    <path id="ID0.8083659755066037" fill="#8B0002" stroke="none" stroke-linecap="round" d="M 109 53.05 C 125.48 53.967 138.787 60.895 154 61.05 C 162.268 61.13 170.484 55.848 179 55.05 C 186.899 54.344 194.075 52.683 201 55.05 C 212.071 58.816 220.346 75.154 231.5 72.05 C 244.975 68.18 255.258 41.283 259 37.05 C 261.402 34.263 247.533 47.818 246 55.05 C 242.604 70.909 243.744 87.498 244 103.55 C 244.425 112.734 246.192 121.644 248 130.55 C 249.578 138.325 252.134 145.351 254 152.55 C 255.131 157.175 260.143 163.562 257 166.05 C 252.656 169.211 244.496 164.551 239 164.05 C 230.059 163.246 221.197 159.634 212.5 161.55 C 178.583 169.027 145.676 190.777 109.5 192.55 C 92.039 193.363 72.971 182.37 61.247 168.841 C 51.824 157.968 59.534 138.552 52 126.05 C 45.075 114.623 14.643 113.885 19 101.55 C 26.573 80.153 54.251 69.306 75 58.05 C 85.874 52.211 97.579 52.404 109 53.05 Z " stroke-width="1"/>
    <path id="ID0.9599405531771481" fill="#F37070" stroke="none" stroke-linecap="round" d="M 87 141.05 C 94.142 136.843 106.297 139.862 112 133.05 C 117.367 126.025 109.353 113.377 115 106.05 C 120.53 98.915 130.989 95.512 140 95.55 C 161.956 95.641 185.712 96.78 207 103.55 C 212.347 105.282 206.683 114.623 202.5 116.55 C 189.698 121.342 175.21 119.934 161.5 121.55 C 150.394 122.858 137.398 117.994 128 124.05 C 122.416 127.699 130.112 138.21 126 143.05 C 120.79 149.281 107.589 144.805 103 151.55 C 97.511 159.637 100.843 171.185 100.5 181.05 C 100.414 183.97 105.111 189.923 102 190.05 C 89.936 190.373 76.694 188.345 66.5 182.05 C 60.303 178.171 58.008 169.181 57.5 162.05 C 57.56 159.278 61.241 159.604 63 158.55 C 68.095 156.595 73.672 156.281 78 153.05 C 81.977 150.041 82.699 143.581 87 141.05 Z " stroke-width="1"/>
    <path id="ID0.1897991318255663" fill="none" stroke="#000000" stroke-width="12" stroke-linecap="round" d="M 270.5 188.05 C 270.5 188.05 267.204 175.175 262.5 171.05 C 255.724 165.108 246.875 161.113 238 159.55 C 226.629 157.556 214.044 158.908 202 161.05 C 191.34 162.943 181.193 167.349 170.5 171.55 C 156.906 176.816 143.894 184.494 130.5 189.05 C 123.686 191.387 116.203 191.58 109 191.55 C 102.088 191.459 96.922 190.903 91 190.05 C 86.032 188.725 81.984 187.757 76.5 185.05 C 71.36 182.386 66.395 178.746 63 174.05 C 59.153 168.729 57.05 162.171 56 155.55 C 54.348 147.477 59.655 137.634 55 130.55 C 49.386 122.011 36.635 121.462 28.5 115.05 C 21.668 110.027 13.585 104.697 10.5 96.55 C 6.574 86.132 5.579 73.984 7.5 63.05 C 10.293 52.859 16.808 43.437 24 36.05 C 33.392 26.405 45.339 19.02 58 13.05 C 66.527 9.188 76.067 7.971 86.5 7.05 C 98.622 6.027 110.951 7.335 123 9.05 C 132.975 10.469 142.628 17.071 153 17.55 C 164.609 17.071 175.335 9.451 187 9.05 C 192.589 8.86 198.034 11.597 203 14.05 C 206.941 16.911 209.363 21.396 213 24.55 C 219.091 29.868 224.219 33.995 230.5 37.55 C 234.59 39.857 239.892 41.221 245 40.55 C 251.482 40.01 258.001 38.202 264 34.05 C 268.867 30.674 275 20.05 275 20.05 "/>
    <path id="ID0.49742803629487753" fill="none" stroke="#000000" stroke-width="12" stroke-linecap="round" d="M 249 43.05 C 249 43.05 248.545 52.461 246.5 56.55 C 244.391 60.767 241.143 64.798 237 67.05 C 233.007 69.22 228.024 69.477 223.5 69.05 C 218.939 68.62 214.597 66.599 210.5 64.55 C 206.864 62.732 204.136 59.368 200.5 57.55 C 196.403 55.501 192.037 53.685 187.5 53.05 C 183.529 52.494 179.367 52.989 175.5 54.05 C 170.756 55.352 166.727 58.688 162 60.05 C 156.818 61.543 151.377 62.957 146 62.55 C 140.116 62.104 134.768 58.795 129 57.55 C 120.09 55.626 111.029 51.805 102 53.05 C 89.114 54.828 76.606 60.467 64.5 66.55 C 55.777 70.714 48.121 77.404 40 83.55 C 35.678 86.821 31.536 90.441 28 94.55 C 25.318 97.667 21.5 105.05 21.5 105.05 "/>
  </g>
</svg>