<svg xmlns="http://www.w3.org/2000/svg" xmlns:xlink="http://www.w3.org/1999/xlink" version="1.1" width="263.45696237500374" height="154.14698007519905" viewBox="1.1508113005962777 -0.2885888954791618 263.45696237500374 154.14698007519905">
  <!-- Exported by Scratch - http://scratch.mit.edu/ -->
  <path id="ID0.5483859125524759" fill="none" stroke="#000000" stroke-width="13.262977389652171" stroke-linecap="round" d="M 45.0605 147.2269 L 30.7227 137.5524 L 22.1201 127.878 L 14.2343 114.5756 L 9.933 101.2733 L 7.7823 88.5756 L 7.7823 75.8779 L 9.2161 59.5523 L 16.385 42.622 L 24.9876 30.529 L 37.8916 19.6453 L 54.3801 11.1801 L 74.4529 8.1569 L 92.3751 13.5987 L 106.7129 23.8778 L 121.0507 35.9709 L 133.2378 49.2732 L 149.0093 49.7569 L 156.8951 40.8081 L 162.6302 26.9011 L 171.9497 15.4127 L 180.5524 9.9708 L 193.4564 6.3429 L 213.5292 6.3429 L 227.1501 10.5755 L 241.4879 16.622 L 251.5243 25.6918 L 256.5425 40.2034 L 257.9763 59.5523 L 257.2594 75.2733 L 252.2412 94.0175 L 243.6385 106.7152 "/>
</svg>