<svg version="1.1" xmlns="http://www.w3.org/2000/svg" xmlns:xlink="http://www.w3.org/1999/xlink" width="81.95827" height="144.46235" viewBox="0,0,81.95827,144.46235"><defs><linearGradient x1="227.98886" y1="171.88389" x2="227.98886" y2="189.14181" gradientUnits="userSpaceOnUse" id="color-1"><stop offset="0" stop-color="#fb6d61"/><stop offset="1" stop-color="#e69347"/></linearGradient><linearGradient x1="227.98886" y1="171.88389" x2="227.98886" y2="189.14181" gradientUnits="userSpaceOnUse" id="color-2"><stop offset="0" stop-color="#d96055"/><stop offset="1" stop-color="#cd843f"/></linearGradient><linearGradient x1="252.12566" y1="171.88385" x2="252.12566" y2="189.14182" gradientUnits="userSpaceOnUse" id="color-3"><stop offset="0" stop-color="#fb6d61"/><stop offset="1" stop-color="#e69347"/></linearGradient><linearGradient x1="252.12566" y1="171.88385" x2="252.12566" y2="189.14182" gradientUnits="userSpaceOnUse" id="color-4"><stop offset="0" stop-color="#d96055"/><stop offset="1" stop-color="#cd843f"/></linearGradient><linearGradient x1="240.30518" y1="169.6091" x2="240.30518" y2="205.17525" gradientUnits="userSpaceOnUse" id="color-5"><stop offset="0" stop-color="#ff6666"/><stop offset="1" stop-color="#e69347"/></linearGradient><linearGradient x1="240.30518" y1="169.6091" x2="240.30518" y2="205.17525" gradientUnits="userSpaceOnUse" id="color-6"><stop offset="0" stop-color="#d96055"/><stop offset="1" stop-color="#c77e3e"/></linearGradient><linearGradient x1="238.82018" y1="115.1531" x2="238.82018" y2="159.75397" gradientUnits="userSpaceOnUse" id="color-7"><stop offset="0" stop-color="#a08e7b"/><stop offset="1" stop-color="#a08e7b" stop-opacity="0"/></linearGradient><linearGradient x1="238.82018" y1="115.1531" x2="238.82018" y2="159.75397" gradientUnits="userSpaceOnUse" id="color-8"><stop offset="0" stop-color="#000000"/><stop offset="1" stop-color="#000000" stop-opacity="0"/></linearGradient></defs><g transform="translate(-208.02125,-101.1674)"><g data-paper-data="{&quot;isPaintingLayer&quot;:true}" fill-rule="nonzero" stroke-linejoin="miter" stroke-miterlimit="10" stroke-dasharray="" stroke-dashoffset="0" style="mix-blend-mode: normal"><path d="M263.9111,238.79642c0,3.77394 -10.73415,6.83333 -23.97539,6.83333c-13.24124,0 -23.97539,-3.05938 -23.97539,-6.83333c0,-3.77394 10.73415,-6.83334 23.97539,-6.83334c13.24124,0 23.97539,3.05939 23.97539,6.83334z" fill-opacity="0.5" fill="#000000" stroke="#000000" stroke-width="0" stroke-linecap="butt"/><g data-paper-data="{&quot;index&quot;:null}" stroke-width="1.4" stroke-linecap="round"><path d="M232.19487,200.92108c1.98312,-0.37161 4.00399,-0.14355 5.8807,0.34363c0.79876,0.20746 1.40049,0.83214 2.07642,1.61021c0.3903,0.48127 0.57331,-0.57825 0.55638,1.98565c-0.06722,10.25689 -0.64297,20.56495 -1.13788,30.83089c-0.12377,2.56627 0.03309,1.77507 -0.37579,2.31265c-0.49859,0.64665 -0.88938,0.74816 -1.92005,0.68339c-4.12202,-0.2597 -8.09598,-0.2163 -11.92729,-1.4625c-0.97949,-0.31685 -0.69336,-0.22932 -0.4461,-2.59691c0.96622,-9.47244 2.43409,-18.89797 3.79124,-28.30342c0.33979,-2.3534 0.6105,-2.49715 1.25339,-3.47354c0.61489,-0.93126 1.40425,-1.74952 2.24898,-1.93002z" data-paper-data="{&quot;origPos&quot;:null,&quot;origRot&quot;:0}" fill="#d2baa1" stroke="#918170"/><path d="M224.07458,231.6852c0.92174,-1.54224 0.21441,-3.6489 0.96668,-5.27749c0.1937,-0.4179 0.32123,-0.15393 1.40975,0.09683c4.18803,1.15235 8.49679,2.08214 12.57775,3.62129c1.02046,0.38429 0.69771,0.96358 0.73688,1.59551c0.13296,2.62808 0.31875,5.14575 -0.05979,7.69075c-0.15546,0.60204 -0.87318,0.28366 -1.28084,0.33375c-1.60188,0.12504 -3.20582,0.0713 -4.80513,0.09151c-4.09514,0.05144 -8.06145,0.2045 -12.07763,0.07784c-1.00996,-0.0293 -1.71316,0.16284 -1.9359,-0.4447c-0.49464,-1.34874 -0.64183,-3.04712 0.03343,-4.29648z" data-paper-data="{&quot;origPos&quot;:null}" fill="#574949" stroke="#361e1e"/><path d="M220.52517,237.20542c5.96314,0.0524 11.93748,0.03273 17.93886,0.05361c1.50032,0.00565 1.07845,-0.27174 1.27748,0.09589c0.34149,0.63168 0.27809,1.53182 -0.14902,2.1472c-0.25678,0.49384 -0.98058,0.60943 -1.592,0.67508c-1.65954,0.18218 -3.31837,0.03523 -5.02509,0.04683c-4.02174,0.02799 -8.06145,0.2045 -12.07763,0.07784c-1.00996,-0.0293 -1.62921,0.12659 -1.9359,-0.4447c-0.4258,-0.79565 -0.37931,-1.89011 0.06479,-2.6635c0.23236,-0.40121 -0.01178,0.03859 1.4985,0.01169z" fill="#361e1e" stroke="#1b0303"/><path d="M235.60654,200.37851c0.91645,0.01976 1.9014,0.8195 2.77055,0.90463c0.6924,0.06786 1.13387,0.99335 1.7198,1.24783c0.33833,0.15741 0.49697,-0.18912 0.48229,0.64945c-0.05827,3.35473 0.40422,7.76789 -0.02479,11.12558c-0.10729,0.83935 -9.42215,-0.13253 -12.74329,-0.54013c-0.84906,-0.10363 0.0808,-7.03035 1.25723,-10.10659c0.29454,-0.76973 1.1434,-1.77832 1.70068,-2.09767c0.53301,-0.30459 0.78557,-0.52313 1.51781,-0.58217c0,0 2.52082,-0.61816 3.3197,-0.60094z" data-paper-data="{&quot;origPos&quot;:null,&quot;origRot&quot;:0}" fill="#6a7ab0" stroke="#475276"/></g><g data-paper-data="{&quot;origPos&quot;:null,&quot;origRot&quot;:0,&quot;index&quot;:null}" stroke-width="1.4" stroke-linecap="round"><path d="M229.6004,186.32207c0.37022,0.93166 0.58633,2.58353 0.45419,4.14035c-0.31567,3.70677 -1.53312,7.10614 -1.73627,10.80958c-0.07644,1.40686 1.09581,1.16161 1.03007,2.59486c-0.10196,2.17033 -0.72523,4.46147 -1.42334,5.85662c-0.51764,1.14245 -1.22683,0.85977 -1.82572,0.92398c-0.32453,0.03608 -0.52346,-0.57152 -0.90233,-0.59267c-0.27927,-0.01357 -0.55829,0.57029 -0.85854,0.56613c-0.81567,-0.03502 -1.62806,-0.34221 -2.39589,-0.6369c-0.19444,-0.07432 -0.23829,-0.75669 -0.46245,-0.83504c-0.26381,-0.09833 -0.5863,0.43178 -0.83555,0.28918c-0.55158,-0.31343 -1.41313,-0.00806 -1.56992,-1.48453c-0.18565,-1.74643 0.34074,-4.03688 0.79544,-5.70953c0.30012,-1.13579 0.9819,-0.95342 1.28895,-2.04397c0.96016,-3.42478 1.48936,-7.51932 2.37394,-11.07538c0.34151,-1.37055 0.76647,-2.87046 1.34088,-3.51347c0.85097,-1.07815 1.8089,-1.51331 2.70221,-1.36905c0.75429,0.12466 1.49275,0.76587 2.02433,2.07981z" data-paper-data="{&quot;origPos&quot;:null}" fill="#d2baa1" stroke="#918170"/><path d="M226.53517,174.98976c0.45483,-1.20618 1.39526,-2.29463 2.13046,-2.74954c0.94248,-0.58289 1.74448,-0.33708 2.4861,-0.06239c0.66947,0.25874 1.34079,0.71185 1.674,1.63325c0.29554,0.81338 0.2891,2.05437 0.12835,3.30636c-0.46027,3.59123 -1.34669,7.40504 -2.22667,11.1436c-0.10429,0.93974 0.26546,0.86289 -0.30146,0.87397c-2.26621,0.04258 -4.49879,-0.10222 -6.49744,-0.80267c-0.50812,-0.18148 -1.10168,-0.46758 -1.00434,-1.45884c0.85265,-3.87014 2.15606,-8.02538 3.61102,-11.88378z" data-paper-data="{&quot;origPos&quot;:null}" fill="url(#color-1)" stroke="url(#color-2)"/></g><g stroke-width="1.4" stroke-linecap="round"><path d="M248.77953,200.97357c0.84473,0.1805 1.63409,0.99876 2.24898,1.93002c0.64289,0.97639 0.9136,1.12014 1.25339,3.47354c1.35715,9.40545 2.82502,18.83098 3.79124,28.30342c0.24726,2.36759 0.53339,2.28006 -0.4461,2.59691c-3.83131,1.2462 -7.80527,1.2028 -11.92729,1.4625c-1.03067,0.06477 -1.42146,-0.03674 -1.92005,-0.68339c-0.40888,-0.53758 -0.25202,0.25362 -0.37579,-2.31265c-0.49491,-10.26594 -1.07066,-20.574 -1.13788,-30.83089c-0.01693,-2.5639 0.16608,-1.50438 0.55638,-1.98565c0.67593,-0.77807 1.27766,-1.40275 2.07642,-1.61021c1.87671,-0.48718 3.89758,-0.71524 5.8807,-0.34363z" data-paper-data="{&quot;origPos&quot;:null,&quot;origRot&quot;:0}" fill="#d2baa1" stroke="#918170"/><path d="M261.33457,235.22649c0.67526,1.24936 0.52807,2.94774 0.03343,4.29648c-0.22274,0.60754 -0.92594,0.4154 -1.9359,0.4447c-4.01618,0.12666 -7.98249,-0.0264 -12.07763,-0.07784c-1.59931,-0.02021 -3.20325,0.03353 -4.80513,-0.09151c-0.40766,-0.05009 -1.12538,0.26829 -1.28084,-0.33375c-0.37854,-2.545 -0.19275,-5.06267 -0.05979,-7.69075c0.03917,-0.63193 -0.28358,-1.21122 0.73688,-1.59551c4.08096,-1.53915 8.38972,-2.46894 12.57775,-3.62129c1.08852,-0.25076 1.21605,-0.51473 1.40975,-0.09683c0.75227,1.62859 0.04494,3.73525 0.96668,5.27749z" data-paper-data="{&quot;origPos&quot;:null}" fill="#574949" stroke="#361e1e"/><path d="M260.44921,237.25783c1.51028,0.0269 1.26614,-0.4129 1.4985,-0.01169c0.4441,0.77339 0.49059,1.86785 0.06479,2.6635c-0.30669,0.57129 -0.92594,0.4154 -1.9359,0.4447c-4.01618,0.12666 -8.05589,-0.04985 -12.07763,-0.07784c-1.70672,-0.0116 -3.36555,0.13535 -5.02509,-0.04683c-0.61142,-0.06565 -1.33522,-0.18124 -1.592,-0.67508c-0.42711,-0.61538 -0.49051,-1.51552 -0.14902,-2.1472c0.19903,-0.36763 -0.22284,-0.09024 1.27748,-0.09589c6.00138,-0.02088 11.97572,-0.00121 17.93886,-0.05361z" fill="#361e1e" stroke="#1b0303"/><path d="M248.68756,201.0319c0.73225,0.05903 0.9848,0.27758 1.51781,0.58217c0.55729,0.31935 1.40614,1.32793 1.70068,2.09767c1.17643,3.07625 2.1063,10.00296 1.25724,10.10659c-3.32114,0.40759 -12.636,1.37948 -12.74329,0.54013c-0.42901,-3.35769 0.03348,-7.77085 -0.02479,-11.12558c-0.01468,-0.83857 0.14396,-0.49204 0.48229,-0.64945c0.58593,-0.25448 1.0274,-1.17998 1.7198,-1.24783c0.86915,-0.08513 1.85411,-0.88487 2.77055,-0.90463c0.79889,-0.01722 3.3197,0.60094 3.3197,0.60094z" data-paper-data="{&quot;origPos&quot;:null,&quot;origRot&quot;:0}" fill="#6a7ab0" stroke="#475276"/></g><g data-paper-data="{&quot;origPos&quot;:null,&quot;origRot&quot;:0,&quot;index&quot;:null}" stroke-width="1.4" stroke-linecap="round"><path d="M250.51413,186.32209c0.53158,-1.31393 1.27005,-1.95514 2.02433,-2.07981c0.89329,-0.14427 1.85124,0.29089 2.70221,1.36904c0.5744,0.64303 0.99937,2.14295 1.34088,3.51347c0.8846,3.55607 1.41377,7.65062 2.37393,11.07538c0.30705,1.09053 0.98883,0.90817 1.28895,2.04397c0.4547,1.67264 0.98112,3.96309 0.79545,5.70953c-0.15677,1.47647 -1.01832,1.17108 -1.56992,1.48453c-0.24927,0.14261 -0.57174,-0.38751 -0.83555,-0.28918c-0.22416,0.07835 -0.268,0.76069 -0.46245,0.83504c-0.76785,0.29469 -1.58022,0.60189 -2.39589,0.6369c-0.30027,0.00416 -0.57929,-0.5797 -0.85854,-0.56613c-0.37886,0.02112 -0.57779,0.62874 -0.90233,0.59267c-0.59889,-0.06421 -1.30811,0.21847 -1.82572,-0.92398c-0.69812,-1.39515 -1.32136,-3.68631 -1.42334,-5.85665c-0.06575,-1.43324 1.10649,-1.18797 1.03007,-2.59483c-0.20314,-3.70344 -1.4206,-7.10281 -1.73628,-10.80961c-0.13213,-1.55682 0.08397,-3.20869 0.45419,-4.14035z" data-paper-data="{&quot;origPos&quot;:null}" fill="#d2baa1" stroke="#918170"/><path d="M253.57932,174.98975c1.45497,3.8584 2.75837,8.01363 3.61102,11.88377c0.09734,0.99128 -0.49624,1.27736 -1.00434,1.45884c-1.99865,0.70044 -4.23123,0.84527 -6.49744,0.80267c-0.56694,-0.01105 -0.19719,0.06577 -0.30146,-0.87397c-0.87998,-3.73859 -1.7664,-7.5524 -2.22667,-11.14363c-0.16075,-1.25198 -0.1672,-2.49298 0.12834,-3.30636c0.33323,-0.9214 1.00452,-1.37453 1.674,-1.63325c0.74163,-0.27471 1.54362,-0.5205 2.4861,0.0624c0.73521,0.45488 1.67565,1.54335 2.13046,2.74953z" data-paper-data="{&quot;origPos&quot;:null}" fill="url(#color-3)" stroke="url(#color-4)"/></g><path d="M246.94407,169.74263c1.05633,0.02814 1.40637,-0.11058 1.91679,0.48598c0.77094,0.9231 0.87798,1.1547 1.13951,3.46699c0.83212,9.06379 1.65917,18.13612 1.82742,27.35787c0.04182,2.30531 0.15226,2.76735 -1.37198,3.07417c-6.09762,1.22536 -12.31516,0.95499 -18.63414,1.04548c-1.57973,0.02306 -1.99974,-0.13462 -2.63692,-0.88912c-0.52172,-0.62697 -0.48127,-0.04685 -0.29489,-2.60594c0.74477,-10.23449 0.72582,-19.49378 2.39235,-29.5712c0.41372,-2.51681 1.69461,-2.1523 2.71334,-2.24229c4.32804,-0.39311 8.68635,-0.24729 12.94853,-0.12195z" data-paper-data="{&quot;origPos&quot;:null,&quot;index&quot;:null,&quot;origRot&quot;:0}" fill="url(#color-5)" stroke="url(#color-6)" stroke-width="1.4" stroke-linecap="round"/><g><g><path d="M211.66673,145.51136c0,-15.73993 12.75975,-28.49968 28.49968,-28.49968c15.73993,0 28.49968,12.75975 28.49968,28.49968c0,15.73993 -12.75975,28.49968 -28.49968,28.49968c-15.73993,0 -28.49968,-12.75975 -28.49968,-28.49968z" data-paper-data="{&quot;origPos&quot;:null,&quot;index&quot;:null}" fill="#d2baa1" stroke="#918170" stroke-width="1.4" stroke-linecap="butt"/><path d="M246.98527,135.57929c0,0 2.91413,-1.8325 4.35384,-1.52183c1.65763,0.3577 3.58265,3.23446 3.58265,3.23446" data-paper-data="{&quot;index&quot;:null}" fill="none" stroke="#75685a" stroke-width="1.4" stroke-linecap="round"/><path d="M227.5495,137.884c0,0 1.76579,-2.97716 3.40152,-3.42443c1.42066,-0.38847 4.4301,1.28289 4.4301,1.28289" data-paper-data="{&quot;index&quot;:null}" fill="none" stroke="#75685a" stroke-width="1.4" stroke-linecap="round"/><path d="M224.05879,122.35005l6.04359,-2.30302l12.08721,-2.59091l5.86627,-0.34882c0,0 3.36826,0.34379 4.86364,1.16985c2.04095,1.12743 6.26265,4.97639 6.26265,4.97639l2.89694,3.95885l2.95124,3.18767l2.68344,5.09987l-7.39346,-0.77116l-5.74144,-2.30302l-8.46104,-2.30302l1.81306,1.72728l4.23054,3.16665l-6.34578,-0.57576l-6.04359,-1.72728l-6.34579,-2.30301l2.71963,4.03029l6.04359,2.87878l-8.15888,0.28789l-7.04448,-2.27904c0,0 -1.95924,-1.47553 -3.19144,-0.44929c-1.92966,1.60715 -1.77004,4.86699 -1.77004,4.86699c0,0 -2.79743,25.59606 -7.46359,18.88656c-2.01587,-2.89857 -4.13206,-9.80819 -4.5528,-14.12801c-0.33867,-3.47725 0.39032,-6.28 1.91765,-9.42218c0,0 3.01101,-6.24481 5.17612,-8.44494c2.65833,-2.70131 6.95667,-4.28769 6.95667,-4.28769z" data-paper-data="{&quot;index&quot;:null}" fill="url(#color-7)" stroke="url(#color-8)" stroke-width="0" stroke-linecap="round"/><path d="M222.77178,117.35005l6.04359,-2.30302l12.08721,-2.59091l6.64795,-2.30302l8.46104,-4.03028l4.53271,-3.45454l-0.30219,4.03029l-2.41745,2.87878l-7.25233,4.31817l4.83489,0.28787h9.06541l6.95015,-1.15152l8.15886,-4.0303l-1.20873,2.30301l-2.11525,2.59091l-6.04359,4.89392h5.13705h6.34576l6.34577,-2.59091l-2.41745,3.45452l-4.83489,3.16665l-4.53269,1.4394l-6.95017,-0.28787l-5.74144,-1.4394l-6.64795,-1.15153l2.11526,2.59091l3.92834,2.01515l4.53271,1.4394l3.62617,1.4394l-3.32398,1.15152l-3.32398,0.28787l-5.43926,-0.57574l-5.74144,-2.30302l-8.46104,-2.30302l1.81306,1.72728l4.23054,3.16665l-6.34578,-0.57576l-6.04359,-1.72728l-6.34579,-2.30301l2.71963,4.03029l6.04359,2.87878l-8.15888,0.28789l-7.04448,-2.27904c0,0 -1.95924,-1.47553 -3.19144,-0.44929c-1.92966,1.60715 -1.77004,4.86699 -1.77004,4.86699c0,0 -3.77453,25.59606 -8.44069,18.88656c-2.01587,-2.89857 -3.15496,-9.80819 -3.5757,-14.12801c-0.33867,-3.47725 0.39032,-6.28 1.91765,-9.42218c0,0 3.01101,-6.24481 5.17612,-8.44494c2.65833,-2.70131 6.95667,-4.28769 6.95667,-4.28769z" data-paper-data="{&quot;index&quot;:null}" fill="#ff4444" stroke="#b32626" stroke-width="1.4" stroke-linecap="round"/></g><path d="M234.53984,160.76124c0,0 -3.0301,0.63885 -4.84617,0.16238c-1.55972,-0.40922 -3.8039,-2.43185 -3.8039,-2.43185" data-paper-data="{&quot;index&quot;:null}" fill="none" stroke="#75685a" stroke-width="1.4" stroke-linecap="round"/></g><path d="M229.44371,151.50496h6.64732" fill="none" stroke="#000000" stroke-width="1" stroke-linecap="round"/><path d="M245.96705,151.50496h6.83724" fill="none" stroke="#000000" stroke-width="1" stroke-linecap="round"/></g></g></svg>