<svg version="1.1" xmlns="http://www.w3.org/2000/svg" xmlns:xlink="http://www.w3.org/1999/xlink" width="94.66667" height="70" viewBox="0,0,94.66667,70"><g transform="translate(-183.5,-114)"><g data-paper-data="{&quot;isPaintingLayer&quot;:true}" fill-rule="nonzero" stroke-linejoin="miter" stroke-miterlimit="10" stroke-dasharray="" stroke-dashoffset="0" style="mix-blend-mode: normal"><path d="M183.5,184v-70h94.66667v70z" fill="none" stroke="none" stroke-width="NaN" stroke-linecap="butt"/><g stroke-width="1" stroke-linecap="round"><path d="M228.59048,140.54428c1.7568,0.42535 3.60003,0.3645 5.40013,0.5236c0.45003,0.03974 0.34632,-0.07969 0.50147,-0.00825c0.04421,0.02354 -0.06423,0.13875 -0.09904,0.20002c-0.12221,0.21609 -0.28444,0.39516 -0.39508,0.62146c-0.17366,0.35542 -0.3374,0.74447 -0.46223,1.13953c-0.10885,0.34579 -0.11955,0.73338 -0.24118,1.07845c-0.0382,0.12345 -0.07584,0.19736 -0.22381,0.28413c-0.59197,0.34703 -1.18112,0.80106 -1.80992,0.95127c-1.30901,0.28153 -2.71831,0.80786 -3.94341,0.33043c-1.40595,-0.54812 -2.69038,-1.73738 -3.53528,-3.29119c-0.41171,-0.75735 0.04663,-1.95459 0.19674,-2.9332c0.04195,-0.27302 0.00178,-0.82977 0.3729,-0.75915c1.47766,0.37214 2.76577,1.50628 4.23871,1.8629z" fill="#8b0002" stroke="none"/><path d="M226.16608,141.72446c0.16168,0.10611 0.31068,0.26108 0.41132,0.45726c0.18055,0.35231 0.33477,0.76608 0.4162,1.19713c0.09377,0.4965 0.11516,1.04287 0.1069,1.58214c-0.00216,0.12526 -0.06463,0.1498 -0.1338,0.13432c-0.27347,-0.06256 -0.51034,-0.26525 -0.77276,-0.37268c-0.34732,-0.14208 -0.73935,-0.17903 -1.04782,-0.41011c-0.39871,-0.29869 -0.79564,-0.65538 -1.06299,-1.13966c-0.21803,-0.39543 -0.42394,-0.88612 -0.35949,-1.37949c0.03779,-0.29313 0.38218,-0.38448 0.59246,-0.42627c0.38126,-0.07391 0.77365,-0.01629 1.13375,0.05337c0.2511,0.04862 0.48449,0.1522 0.71625,0.30398z" fill="#f37070" stroke="none"/><path d="M233.3636,144.1526l-0.87796,0.61783l-0.65344,0.36362l-0.62003,0.29452l-0.72624,0.19539l-0.61421,0.08686l-0.84076,-0.02428l-0.82404,-0.05884l-0.69316,-0.11215l-0.60416,-0.11265l-0.72291,-0.34046l-0.79923,-0.48691l-0.57936,-0.54073l-0.51254,-0.67892l-0.32157,-0.58842l-0.21209,-0.57816l-0.13446,-0.71459l-0.04852,-0.73049l0.1174,-0.89733l0.22668,-0.7828l0.29546,-0.72697l1.12089,0.62835l1.17949,0.54098l0.86559,0.3859l0.87121,0.28251l0.8806,0.22444l0.91591,0.17798l0.79253,0.15059l1.03713,0.11567l0.95564,0.03542l0.75834,0.0184l0.71288,-0.07835l0.57232,-0.03404" fill="none" stroke="#000000"/></g></g></g></svg>