<svg xmlns="http://www.w3.org/2000/svg" xmlns:xlink="http://www.w3.org/1999/xlink" version="1.1" width="204.90461023131866" height="181.86751611510772" viewBox="-0.29305867095717986 0.8580414877342264 204.90461023131866 181.86751611510772">
  <!-- Exported by Scratch - http://scratch.mit.edu/ -->
  <g id="ID0.7785684503614902">
    <path id="ID0.05642181634902954" fill="#690002" stroke="#690002" stroke-width="6.932450131047517" stroke-linecap="round" d="M 16.725 172.9405 L 11.6412 149.8324 L 9.5614 124.4134 L 9.7925 104.7714 L 14.7608 80.0457 L 26.3148 56.2443 L 40.5264 37.7578 L 61.7859 22.2753 L 79.8103 13.032 L 104.3049 7.4861 L 123.7158 7.255 L 147.2861 12.3388 L 161.4976 19.9645 L 174.2071 29.901 L 185.7612 42.3794 L 190.9605 53.4713 L 195.5822 67.7984 L 196.5065 86.9782 L 195.0045 98.9944 L 187.4943 119.3296 L 177.0956 141.7445 L 166.697 159.3067 L 151.9077 148.908 L 134.9232 143.131 L 117.5921 138.9715 L 97.3725 139.6648 L 76.344 143.5932 L 55.2001 150.7567 L 34.7493 160.8087 L 16.725 172.9405 Z "/>
    <path id="ID0.6428132471628487" fill="#FFFFFF" stroke="none" stroke-linecap="round" d="M 108.9302 6.4577 C 123.9665 5.4157 139.1246 6.7888 152.9972 11.327 C 164.7516 15.4561 174.7677 23.9238 183.7954 31.7779 C 186.0498 33.7427 185.6311 36.0678 182.578 36.8907 C 170.5387 40.1044 157.0971 41.032 145.4498 41.5165 C 117.8045 42.634 88.7568 41.2876 62.4286 42.0034 C 55.8453 42.1836 54.796 43.4228 50.7423 43.5859 C 45.4981 43.5445 33.286 46.3298 34.6737 42.3686 C 37.6561 34.254 49.805 23.4807 60.2374 18.3874 C 75.2202 11.0908 92.2724 7.6141 108.9302 6.4577 Z " stroke-width="2.434639160765073"/>
    <path id="ID0.17237125476822257" fill="#8B0002" stroke="none" stroke-linecap="round" d="M 169.8057 39.978 C 169.8169 37.6643 168.2791 38.2377 169.7261 37.7581 C 174.5932 36.5423 180.827 34.3503 184.9774 37.5318 C 190.8377 42.4603 193.7305 50.6487 195.4751 58.6044 C 198.5385 72.7687 198.9919 85.5183 196.8265 102.1698 C 194.661 118.8213 190.5868 130.8937 184.3776 143.9406 C 180.7618 151.5257 176.8801 162.4005 168.8454 163.4695 C 158.5358 164.304 149.8493 154.4316 142.0893 148.328 C 140.1521 146.7995 142.4934 146.2594 143.9087 143.7771 C 149.5722 133.851 155.5213 123.9742 159.416 113.2632 C 164.4692 99.3834 167.3822 85.3088 169.4555 70.99 C 170.8578 61.2634 169.7125 50.4739 169.8057 39.978 Z " stroke-width="2.4346392290583303"/>
    <path id="ID0.6231072684749961" fill="#F37070" stroke="none" stroke-linecap="round" d="M 27.0764 117.6139 C 34.0127 116.0095 41.358 114.8944 48.3795 116.0314 C 56.1436 117.295 64.005 119.3182 70.0478 124.0657 C 76.9525 129.5071 84.7969 136.945 85.873 145.6123 C 86.4354 149.7244 77.4077 148.1443 73.3346 149.6294 C 58.5028 155.0124 43.2741 160.1422 28.9024 165.9415 C 22.6332 168.4735 15.5216 179.8652 10.6426 174.8279 C 2.3381 166.2312 4.6656 150.9441 3.5822 138.917 C 3.1878 134.4835 2.9735 128.7281 6.0168 125.77 C 11.8015 120.723 20.0428 119.2403 27.0764 117.6139 Z " stroke-width="2.434639160765073"/>
    <path id="ID0.05642181634902954" fill="none" stroke="#000000" stroke-width="7.303917482295219" stroke-linecap="round" d="M 11.5446 179.0736 L 6.1884 154.7272 L 3.9973 127.9462 L 4.2407 107.2517 L 9.4752 81.2011 L 21.6484 56.1243 L 36.6214 36.6472 L 59.0201 20.3351 L 78.0103 10.5966 L 103.8175 4.7534 L 124.2684 4.51 L 149.1018 9.8662 L 164.0748 17.9005 L 177.4653 28.3694 L 189.6385 41.5165 L 195.1164 53.2028 L 199.9857 68.2975 L 200.9596 88.505 L 199.377 101.1651 L 191.4645 122.59 L 180.5086 146.206 L 169.5527 164.7092 L 153.971 153.7533 L 136.0764 147.6667 L 117.8166 143.2844 L 96.5135 144.0148 L 74.3583 148.1537 L 52.0814 155.7011 L 30.5348 166.2917 L 11.5446 179.0736 Z "/>
    <path id="ID0.32069615786895156" fill="none" stroke="#000000" stroke-width="7.303917482295219" stroke-linecap="round" d="M 32.6043 44.1946 L 183.5519 37.8645 "/>
  </g>
</svg>