<svg xmlns="http://www.w3.org/2000/svg" xmlns:xlink="http://www.w3.org/1999/xlink" version="1.1" width="195.2645845413208" height="160.42138385772705" viewBox="-0.3513922691345215 -0.21049213409423828 195.2645845413208 160.42138385772705">
  <!-- Exported by Scratch - http://scratch.mit.edu/ -->
  <g id="ID0.29343654168769717">
    <path id="ID0.8484936775639653" fill="#8B0002" stroke="none" stroke-linecap="round" d="M 104.7558 77.7275 C 114.4417 77.4014 125.2638 76.1143 133.5116 81.1598 C 138.5605 84.2454 139.6211 91.8857 139.422 97.8064 C 139.6211 103.6447 138.5879 110.9143 133.5116 114.2814 C 125.4972 119.6186 114.9978 122.2066 105.1848 121.146 C 94.7335 119.9962 86.1974 111.515 77.2974 105.7007 C 73.4773 103.2843 67.512 101.0533 67.3438 96.6051 C 67.3266 90.5608 71.5037 84.0257 76.8581 81.1598 C 85.1677 76.7115 95.3616 77.4014 104.7558 77.7275 Z " stroke-width="3.43229603767395"/>
    <g id="ID0.041586676612496376">
      <path id="ID0.6938288141973317" fill="none" stroke="#000000" stroke-width="12.718982219696045" stroke-linecap="round" d="M 8.633 6.6541 L 30.1493 11.7417 L 43.8222 20.327 L 54.9513 31.0321 L 62.5827 40.3594 L 67.0343 51.2765 L 70.426 61.1337 L 72.4399 71.6269 L 71.274 85.5118 L 68.9422 102.8944 L 62.9006 115.0834 L 56.7531 123.5627 L 44.2461 136.4937 L 32.905 144.2311 L 23.2598 148.1528 L 6.5132 151.6505 "/>
      <path id="ID0.6938288141973317" fill="none" stroke="#000000" stroke-width="11.465958578769365" stroke-linecap="round" d="M 188.0486 36.9161 L 171.5639 40.7392 L 159.1495 48.0298 L 151.8229 54.698 L 144.0894 64.7448 L 139.612 74.8804 L 136.1523 90.3507 L 135.9488 105.1096 L 139.8156 119.8686 L 147.3456 130.1821 L 157.2161 139.8732 L 166.8831 146.2747 L 180.1115 151.3425 L 187.8451 152.3205 "/>
      <path id="ID0.8020611428655684" fill="none" stroke="#FF0000" stroke-width="12.718982219696045" stroke-linecap="round" d="M 103.1774 153.3463 L 103.1774 153.3463 Z "/>
      <path id="ID0.5592617676593363" fill="none" stroke="#000000" stroke-width="12.718982219696045" stroke-linecap="round" d="M 69.6963 99.8835 C 69.6963 99.8835 83.3205 110.9914 90.7886 114.9343 C 94.687 116.9884 99.1747 117.7155 103.4016 118.326 C 108.3768 118.9937 113.4772 119.3371 118.2404 118.75 C 123.4552 118.1076 133.3972 114.5103 133.3972 114.5103 "/>
    </g>
    <path id="ID0.653577774297446" fill="none" stroke="#000000" stroke-width="13.7291841506958" stroke-linecap="round" d="M 73.8651 71.0345 C 73.8651 71.0345 87.1893 78.2732 94.8021 80.3017 C 101.9997 82.2478 109.7807 83.1265 117.1121 81.8462 C 124.8004 80.5008 139.5936 72.4074 139.5936 72.4074 "/>
  </g>
</svg>