<svg xmlns="http://www.w3.org/2000/svg" xmlns:xlink="http://www.w3.org/1999/xlink" version="1.1" width="190.91198921203613" height="155.81038093566895" viewBox="-0.011690139770507812 0.040509700775146484 190.91198921203613 155.81038093566895">
  <!-- Exported by Scratch - http://scratch.mit.edu/ -->
  <g id="ID0.0026282183825969696">
    <g id="ID0.04505880642682314">
      <g id="ID0.44735986925661564">
        <path id="ID0.8484936775639653" fill="#8B0002" stroke="none" stroke-linecap="round" d="M 100.8799 99.4484 C 91.4104 99.7672 80.8302 101.0256 72.7667 96.0928 C 67.8307 93.0762 66.7938 85.6066 66.9884 79.8182 C 66.7938 74.1103 67.8038 67.0032 72.7667 63.7113 C 80.6021 58.4934 90.8668 55.9633 100.4605 57.0002 C 110.6783 58.1243 119.0236 66.416 127.7247 72.1003 C 131.4595 74.4627 137.2915 76.6438 137.4559 80.9927 C 137.4727 86.9019 133.3889 93.2909 128.1542 96.0928 C 120.0303 100.4417 110.0642 99.7672 100.8799 99.4484 Z " stroke-width="3.355595111846924"/>
        <path id="ID0.653577774297446" fill="none" stroke="#000000" stroke-width="13.422380447387695" stroke-linecap="round" d="M 131.0803 105.9918 C 131.0803 105.9918 118.0539 98.9149 110.6112 96.9317 C 103.5745 95.0291 95.9673 94.1701 88.7998 95.4217 C 81.2832 96.7371 66.8206 104.6496 66.8206 104.6496 "/>
      </g>
      <path id="ID0.8020611428655684" fill="none" stroke="#FF0000" stroke-width="12.434753894805908" stroke-linecap="round" d="M 102.4464 25.6842 L 102.4464 25.6842 Z "/>
      <path id="ID0.5592617676593363" fill="none" stroke="#000000" stroke-width="12.434753894805908" stroke-linecap="round" d="M 135.2081 77.9688 C 135.2081 77.9688 121.8884 67.1091 114.5871 63.2543 C 110.7759 61.2461 106.3885 60.5353 102.256 59.9384 C 97.3919 59.2856 92.4056 58.9499 87.7488 59.5239 C 82.6505 60.1519 72.9307 63.6688 72.9307 63.6688 "/>
    </g>
    <path id="ID0.6938288141973317" fill="none" stroke="#000000" stroke-width="12.434753894805908" stroke-linecap="round" d="M 8.772 6.7517 L 29.8074 11.7256 L 43.1748 20.119 L 54.0552 30.5849 L 61.5161 39.7038 L 65.8682 50.3769 L 69.1842 60.0139 L 71.153 70.2725 L 70.0131 83.8471 L 67.7334 100.8413 L 61.8269 112.7579 L 55.8168 121.0478 L 43.5893 133.6898 L 32.5016 141.2543 L 23.0719 145.0883 L 6.6995 148.5079 "/>
    <path id="ID0.6938288141973317" fill="none" stroke="#000000" stroke-width="11.209730678685753" stroke-linecap="round" d="M 184.1891 36.3143 L 168.0728 40.0519 L 155.9358 47.1796 L 148.773 53.6988 L 141.2122 63.521 L 136.835 73.4302 L 133.4525 88.5547 L 133.2535 102.9839 L 137.0339 117.413 L 144.3957 127.496 L 154.0456 136.9706 L 163.4965 143.229 L 176.4294 148.1836 L 183.9902 149.1397 "/>
  </g>
</svg>