<svg xmlns="http://www.w3.org/2000/svg" xmlns:xlink="http://www.w3.org/1999/xlink" version="1.1" width="239.80304362960499" height="191.94324138351124" viewBox="-0.022972715833986967 4.782427655717527 239.80304362960499 191.94324138351124">
  <!-- Exported by Scratch - http://scratch.mit.edu/ -->
  <g id="ID0.7283255159854889">
    <path id="ID0.4394450536929071" fill="#FFFFFF" stroke="#000000" stroke-width="13.434345509487798" stroke-linecap="round" d="M 226.6816 28.7963 L 230.0402 45.0854 L 233.0629 75.3127 L 228.8647 104.1966 L 217.9493 128.2105 L 204.5149 147.0185 L 186.3786 165.1549 L 165.8912 178.2534 L 151.6172 184.4668 L 137.3432 187.8254 L 123.573 189.5047 L 104.0932 190.0085 L 86.6285 188.665 L 67.1487 186.1461 L 54.2182 179.9327 L 39.9442 171.5362 L 29.0288 160.4529 L 17.7775 143.3241 L 13.4114 132.4087 L 8.8773 118.4706 L 6.6942 102.6852 L 7.198 93.2812 L 8.8773 76.4882 L 13.0755 56.8405 L 18.4492 39.5438 L 26.5098 22.0791 L 32.8912 11.4996 L 39.9442 19.0564 L 48.3407 25.4377 L 63.4543 33.8342 L 76.5528 40.0476 L 97.8798 46.261 L 125.2523 50.6271 L 143.7245 50.6271 L 166.227 49.2837 L 186.8823 45.0854 L 211.2321 37.5286 L 226.6816 28.7963 Z "/>
    <path id="ID0.6454006624408066" fill="none" stroke="#000000" stroke-width="10.075759132115849" stroke-linecap="round" d="M 229.3277 103.3691 L 8.8365 103.3691 "/>
  </g>
</svg>