<svg version="1.1" xmlns="http://www.w3.org/2000/svg" xmlns:xlink="http://www.w3.org/1999/xlink" width="664" height="382" viewBox="0,0,664,382"><g transform="translate(12,11)"><g data-paper-data="{&quot;isPaintingLayer&quot;:true}" fill-rule="nonzero" stroke="none" stroke-linecap="butt" stroke-linejoin="miter" stroke-miterlimit="10" stroke-dasharray="" stroke-dashoffset="0" style="mix-blend-mode: normal"><path d="M-12,371v-382h664v382z" fill="#ffffff" stroke-width="0"/><text transform="translate(108.17708,143.25128) scale(1.02083,1.02083)" font-size="40" xml:space="preserve" fill="#000000" fill-rule="nonzero" stroke="none" stroke-width="1" stroke-linecap="butt" stroke-linejoin="miter" stroke-miterlimit="10" stroke-dasharray="" stroke-dashoffset="0" font-family="Pixel" font-weight="normal" text-anchor="start" style="mix-blend-mode: normal"><tspan x="0" dy="0">Click Here To Enter!</tspan></text><path d="M262.056,233.53651c0,-11.02483 25.94241,-19.96221 57.944,-19.96221c32.00159,0 57.944,8.93738 57.944,19.96221c0,11.02483 -25.94241,19.96221 -57.944,19.96221c-32.00159,0 -57.944,-8.93738 -57.944,-19.96221z" fill="#000000" stroke-width="1"/><path d="M262.056,230.46605c0,-11.02482 25.94241,-19.96221 57.944,-19.96221c32.00159,0 57.944,8.93738 57.944,19.96221c0,11.02482 -25.94241,19.96221 -57.944,19.96221c-32.00159,0 -57.944,-8.93738 -57.944,-19.96221z" fill="#ff0000" stroke-width="1"/><path d="M248.5,170.50128c7.5,0 7.5,7.5 7.5,7.5v2c-0.08751,1.62527 0.65808,3.18956 0.90316,4.79863c0.30276,1.9878 -0.84131,4.11405 -0.22497,6.02799c0.48511,1.50642 2.35797,2.5986 2.25545,4.17788c-0.21187,3.26365 -1.04863,6.77635 -3.13034,9.2988c-1.64409,1.99218 -4.6141,2.40521 -7.10193,3.09986c-1.28421,0.35857 -2.67791,-0.17277 -4,0c-3.71261,0.48517 -8.06854,2.30441 -11.62168,3.63923c-0.17739,0.06664 -8.5999,3.59654 -9.37832,3.36077c-0.40633,-0.12307 -0.80649,-0.26106 -1.20137,-0.4118v0.50864h-3c-4.14214,0 -7.5,-3.35786 -7.5,-7.5c0,-3.3738 2.22768,-6.22729 5.29236,-7.16981l2.45345,-0.81782c2.50088,-1.25991 5.06171,-2.37284 7.60912,-3.50563c-1.26337,-1.04607 -2.38025,-2.30763 -3.79791,-3.12686c-0.91266,-0.52741 -2.12523,-0.41187 -3,-1c-3.62516,-2.43728 -3.60991,-4.12046 -7.42872,-5.26476c0,0 -7.11512,-2.37171 -4.74342,-9.48683c2.37171,-7.11512 9.48683,-4.74342 9.48683,-4.74342c4.18625,1.47005 4.58517,1.25423 8.38321,4.31506c0.84679,0.68243 1.28007,1.8216 2.18807,2.42018c0.88006,0.58017 2.1025,0.44719 3,1c1.7588,1.08332 3.02014,2.88204 4.82147,3.89306c1.76548,0.9909 3.68798,1.92078 5.65336,2.76678c-0.41352,-2.08002 -0.86906,-4.16486 -0.91781,-6.27996v-2c0,0 0,-7.5 7.5,-7.5z" fill="#000000" stroke-width="0.5"/><path d="M426.61512,197.62957c2.37171,7.11512 -4.74342,9.48683 -4.74342,9.48683l-4.17034,1.28803c-3.03802,0.07003 -6.98491,-0.46961 -10,0c-4.82009,0.75074 -10.91009,2.81147 -15.7403,0.2094c-2.15764,-1.16233 -3.48316,-2.64425 -4.37267,-4.30942c-4.21813,-2.59216 -3.40939,-6.74664 -5.0175,-10.43301c-1.23697,-2.83558 -2.46742,-5.70079 -3.25101,-8.69335l-0.87966,-2.63898c-0.28496,-0.7926 -0.44024,-1.64706 -0.44024,-2.53779c0,-4.14214 3.35786,-7.5 7.5,-7.5c2.99402,0 5.57828,1.75438 6.78087,4.29123l1.92734,3.85467l-0.16787,0.08393c0.87951,0.90171 1.66656,1.92734 2.40846,3.19045c1.71648,-1.19038 3.53758,-2.24475 5.13719,-3.58619c1.99482,-1.67286 3.9933,-3.34141 6,-5c2.04319,-1.68874 2.51101,-3.44087 5.21877,-4.86059c1.81001,-0.94902 3.91748,-1.16638 5.87622,-1.74957c0,0 7.27607,-1.81902 9.09509,5.45705c1.81902,7.27607 -5.45705,9.09509 -5.45705,9.09509c-0.70793,0.08348 -1.46384,-0.01904 -2.12378,0.25043c-1.29432,0.5285 -1.71037,2.24062 -2.78123,3.13941c-2.81397,2.3618 -5.83942,4.49985 -8.78967,6.70629c2.23605,-0.03488 4.56231,0.11093 6.67429,0.22465l1.82966,-0.71197c0,0 7.11512,-2.37171 9.48683,4.74342z" fill="#000000" stroke-width="0.5"/></g></g></svg>