<svg version="1.1" xmlns="http://www.w3.org/2000/svg" xmlns:xlink="http://www.w3.org/1999/xlink" width="83.62047" height="142.1797" viewBox="0,0,83.62047,142.1797"><defs><radialGradient cx="227.25036" cy="111.99769" r="22.6417" gradientUnits="userSpaceOnUse" id="color-1"><stop offset="0" stop-color="#5e2ccf"/><stop offset="1" stop-color="#26008e"/></radialGradient><radialGradient cx="225.14204" cy="120.43098" r="22.6417" gradientUnits="userSpaceOnUse" id="color-2"><stop offset="0" stop-color="#45219b"/><stop offset="1" stop-color="#18005b"/></radialGradient><radialGradient cx="217.64578" cy="119.49395" r="14.38606" gradientUnits="userSpaceOnUse" id="color-3"><stop offset="0" stop-color="#5e2ccf"/><stop offset="1" stop-color="#26008e"/></radialGradient><radialGradient cx="223.03372" cy="120.66524" r="14.38606" gradientUnits="userSpaceOnUse" id="color-4"><stop offset="0" stop-color="#45219b"/><stop offset="1" stop-color="#18005b"/></radialGradient><radialGradient cx="221.62817" cy="114.57453" r="5.73453" gradientUnits="userSpaceOnUse" id="color-5"><stop offset="0" stop-color="#5e2ccf"/><stop offset="1" stop-color="#26008e"/></radialGradient></defs><g transform="translate(-201.38232,-96.45005)"><g data-paper-data="{&quot;isPaintingLayer&quot;:true}" fill-rule="nonzero" stroke-linejoin="miter" stroke-miterlimit="10" stroke-dasharray="" stroke-dashoffset="0" style="mix-blend-mode: normal"><path d="M263.9111,231.79642c0,3.77395 -10.73415,6.83333 -23.97539,6.83333c-13.24124,0 -23.97539,-3.05939 -23.97539,-6.83333c0,-3.77395 10.73415,-6.83333 23.97539,-6.83333c13.24124,0 23.97539,3.05939 23.97539,6.83333z" fill-opacity="0.5" fill="#000000" stroke="#000000" stroke-width="0" stroke-linecap="butt"/><g data-paper-data="{&quot;index&quot;:null}" stroke-linecap="round"><g fill="#f1d4b3"><path d="M276.60131,155.74068c-0.20928,-0.04097 -0.17714,-0.38832 -0.26558,-0.58221c-0.17688,-0.38776 -0.35429,-0.77666 -0.53116,-1.16441c-0.17688,-0.38776 -0.40393,-0.75753 -0.53116,-1.16441c-0.13137,-0.41906 -0.14888,-0.86755 -0.24006,-1.2972c-0.11305,-0.53152 -0.3151,-1.04846 -0.37286,-1.58832c-0.05068,-0.47346 -0.04012,-0.96217 0.05104,-1.42999c0.08657,-0.44391 0.25859,-0.87478 0.47493,-1.27167c0.29755,-0.54577 0.64537,-1.07231 1.05715,-1.53726c0.29095,-0.32896 0.68822,-0.54817 1.03162,-0.82227c0.34341,-0.27411 0.6577,-0.59192 1.03162,-0.82227c0.36278,-0.22386 0.75753,-0.40393 1.16441,-0.53116c0.41906,-0.13137 0.87381,-0.35569 1.2972,-0.24006c0.45971,0.1258 0.91552,0.46509 1.11336,0.89883c0.19786,0.43373 -0.01316,0.95484 -0.05104,1.42999c-0.04872,0.61938 -0.4923,1.46177 -0.20933,1.8539c0.19456,0.26923 0.75116,-0.63526 1.16441,-0.53116c0.426,0.10741 0.64008,0.63222 0.82227,1.03162c0.18218,0.3994 0.35569,0.87381 0.24006,1.2972c-0.1258,0.45971 -0.88181,0.63718 -0.89883,1.11336c-0.01565,0.439 0.59192,0.6577 0.82227,1.03162c0.22386,0.36278 0.45391,0.74528 0.53116,1.16441c0.08638,0.46841 0.15531,1.00035 -0.05104,1.42999c-0.19023,0.39554 -0.6577,0.59192 -1.03162,0.82227c-0.36278,0.22386 -0.75933,0.39845 -1.16441,0.53116c-0.51636,0.16944 -1.04846,0.3151 -1.58832,0.37286c-0.47346,0.05068 -0.95346,-0.05177 -1.42999,-0.05104c-0.81127,0.00084 -1.63951,0.21124 -2.14499,-0.07656z" data-paper-data="{&quot;origPos&quot;:null}" stroke="#c7af93" stroke-width="1.4"/><path d="M257.9313,161.79423c-1.1304,-0.06411 -0.68355,-2.17565 -0.78406,-3.48454c-0.09801,-1.4117 -0.26386,-3.09109 0.71656,-4.20946c1.83688,-1.93052 4.5235,-3.14828 7.05668,-4.20142c2.57105,-1.0702 5.48985,-2.42145 8.49211,-2.40617c1.26758,0.15621 2.30422,1.65527 2.95147,2.86461c0.94032,1.7585 2.79215,4.26858 1.51919,5.84663c-1.91418,2.46187 -5.47881,2.98542 -8.43908,3.87324c-3.58019,1.05496 -7.60808,2.37696 -11.51284,1.71715z" data-paper-data="{&quot;origPos&quot;:null}" stroke="#c7af93" stroke-width="1.4"/><path d="M273.8865,155.18583c-0.75684,-0.19281 -0.46711,-1.25061 -0.57204,-2.02496c-0.13137,-1.00495 -0.48174,-2.09216 -0.14984,-3.03906c0.33221,-0.94775 1.01959,-1.75367 1.98313,-2.1932c0.96355,-0.43954 2.02278,-0.43036 2.95625,-0.06c0.93264,0.37006 1.73899,1.10155 2.19685,2.10527c0.45787,1.0037 0.48174,2.09216 0.14984,3.03906c-0.33221,0.94775 -1.05563,1.8566 -1.98313,2.1932c-1.45136,0.52351 -3.22244,0.62668 -4.58106,-0.02031z" data-paper-data="{&quot;origPos&quot;:null}" stroke="none" stroke-width="0"/></g><path d="M243.57137,162.35908c-1.29683,-0.33659 -2.00434,-2.02337 -2.08589,-3.47139c-0.07419,-1.41014 0.66379,-3.03042 1.93161,-3.80808c2.32647,-1.29958 5.25329,-1.66659 7.9847,-1.92193c2.77274,-0.26034 5.96083,-0.68605 8.82377,0.2181c1.16437,0.52479 1.68632,2.23374 1.97012,3.6105c0.29209,1.43192 0.32996,3.57283 -0.82461,4.31692c-2.73869,1.50582 -6.18767,1.21779 -9.0917,1.41309c-2.89231,0.19677 -5.96493,0.73914 -8.708,-0.35721z" data-paper-data="{&quot;origPos&quot;:null}" fill="#8000ff" stroke="#5900b3" stroke-width="1.4"/></g><path d="M235.93597,147.02038c1.89799,0 3.61745,0.7711 4.86274,2.01638c1.24528,1.24528 2.01638,2.96474 2.01638,4.86274c0,1.89799 -0.7711,3.61745 -2.01638,4.86274c-1.24528,1.24528 -2.96474,2.01638 -4.86274,2.01638c-1.89799,0 -3.61745,-0.7711 -4.86274,-2.01638c-1.24528,-1.24528 -2.01638,-2.96474 -2.01638,-4.86274c0,-1.89799 0.7711,-3.61745 2.01638,-4.86274c1.24528,-1.24528 2.96474,-2.01638 4.86274,-2.01638z" data-paper-data="{&quot;origPos&quot;:null}" fill="#f1d4b3" stroke="#c7af93" stroke-width="1.4" stroke-linecap="butt"/><path d="M235.77598,103.28206c6.75305,0 12.87194,2.7606 17.30335,7.22081c4.43078,4.45958 7.17347,10.61878 7.17347,17.41598c0,6.79719 -2.74268,12.95639 -7.17347,17.41598c-4.43143,4.46021 -10.55031,7.22081 -17.30335,7.22081c-6.75305,0 -12.87194,-2.7606 -17.30335,-7.22081c-4.43078,-4.45958 -7.17347,-10.61878 -7.17347,-17.41598c0,-6.79719 2.74268,-12.95639 7.17347,-17.41598c4.43143,-4.46021 10.55031,-7.22081 17.30335,-7.22081z" data-paper-data="{&quot;index&quot;:null}" fill="#f1d4b3" stroke="#c7af93" stroke-width="1.4" stroke-linecap="butt"/><path d="M230.49483,143.59683c0,0 -0.64119,0.02111 -0.95987,0c-0.48121,-0.03199 -0.97907,-0.016 -1.43981,-0.15998c-0.4102,-0.12799 -0.77942,-0.3782 -1.11985,-0.63992c-0.35834,-0.2758 -0.77622,-0.54648 -0.95987,-0.95987c-0.26301,-0.59193 -0.31996,-1.91975 -0.31996,-1.91975" data-paper-data="{&quot;index&quot;:null}" fill="none" stroke="#9a8772" stroke-width="1.4" stroke-linecap="round"/><path d="M231.77457,124.71928c0.79479,0 1.51468,0.79798 2.03557,2.08677c0.52153,1.28815 0.84405,3.0684 0.84405,5.03231c0,1.96391 -0.32252,3.74416 -0.84405,5.03231c-0.5209,1.28879 -1.2408,2.08677 -2.03557,2.08677c-0.79479,0 -1.51468,-0.79798 -2.03557,-2.08677c-0.52153,-1.28815 -0.84405,-3.0684 -0.84405,-5.03231c0,-1.96391 0.32252,-3.74416 0.84405,-5.03231c0.5209,-1.28879 1.2408,-2.08677 2.03557,-2.08677z" data-paper-data="{&quot;index&quot;:null}" fill="#424242" stroke="none" stroke-width="1.4" stroke-linecap="butt"/><path d="M243.77304,124.71928c0.79479,0 1.51468,0.79798 2.03557,2.08677c0.52153,1.28815 0.84405,3.0684 0.84405,5.03231c0,1.96391 -0.32252,3.74416 -0.84405,5.03231c-0.5209,1.28879 -1.2408,2.08677 -2.03557,2.08677c-0.79479,0 -1.51468,-0.79798 -2.03557,-2.08677c-0.52153,-1.28815 -0.84405,-3.0684 -0.84405,-5.03231c0,-1.96391 0.32252,-3.74416 0.84405,-5.03231c0.5209,-1.28879 1.2408,-2.08677 2.03557,-2.08677z" data-paper-data="{&quot;index&quot;:null}" fill="#424242" stroke="none" stroke-width="1.4" stroke-linecap="butt"/><g data-paper-data="{&quot;origPos&quot;:null}" stroke-width="1.4" stroke-linecap="butt"><path d="M259.49878,122.32564c-2.26447,1.46525 -9.05789,-1.99806 -11.85518,-1.99806c-4.92856,0 -18.915,0.53282 -23.84355,-0.1332c-5.46137,-0.79923 -6.79342,-3.0637 -6.79342,-8.65827c0,-5.19496 8.12546,-14.38606 19.98063,-14.38606c11.85518,0 17.31655,6.79342 22.91113,9.72391c0,0 3.33011,8.25866 2.13127,11.18915z" fill="url(#color-1)" stroke="url(#color-2)"/><path d="M216.74022,110.07082c9.72391,0 5.32817,4.12933 5.32817,11.98838c0,7.85905 -5.86099,16.78373 -8.12546,16.78373c-2.26447,0 -3.99613,-6.3938 -3.99613,-14.25285c0,-7.99225 4.52894,-14.51926 6.79342,-14.51926z" fill="url(#color-3)" stroke="url(#color-4)"/></g><path d="M217.48668,112.39766c-0.02825,-0.00822 -0.05725,-0.01814 -0.087,-0.02991c-0.01856,-0.00707 -0.03677,-0.01486 -0.05459,-0.02333c-0.38977,-0.17921 -0.4461,-0.48927 -0.42769,-0.71127c0.00433,-0.09852 0.02767,-0.1921 0.06644,-0.27716l0.49347,-1.15143l0.09304,0.03987c2.05115,-3.19799 5.7607,-3.15574 7.85047,0.75349c2.07565,4.1513 1.8095,8.27285 -3.83749,8.41874c-3.13229,0 -4.27467,-4.25455 -4.09665,-7.019z" data-paper-data="{&quot;origPos&quot;:null}" fill="url(#color-5)" stroke="none" stroke-width="0.5" stroke-linecap="butt"/><path d="M225.00007,183.22087l4.33333,-2.46503" data-paper-data="{&quot;origPos&quot;:null}" fill="none" stroke="#000000" stroke-width="1.4" stroke-linecap="round"/><path d="M235.13601,179.65614c3.31029,0 6.30959,0.86069 8.4821,2.25059c2.17187,1.38991 3.51634,3.30965 3.51634,5.42842c0,2.11877 -1.34446,4.03851 -3.51634,5.42842c-2.17252,1.38991 -5.17181,2.25059 -8.4821,2.25059c-3.31029,0 -6.30959,-0.86069 -8.4821,-2.25059c-2.17187,-1.38991 -3.51634,-3.30965 -3.51634,-5.42842c0,-2.11877 1.34446,-4.03851 3.51634,-5.42842c2.17252,-1.38991 5.17181,-2.25059 8.4821,-2.25059z" data-paper-data="{&quot;origPos&quot;:null,&quot;index&quot;:null}" fill="#2e2e2e" stroke="#000000" stroke-width="1.4" stroke-linecap="butt"/><g><g><path d="M235.10407,207.7805c2.55966,1.44109 5.19484,2.4688 7.83898,3.51955c1.04819,0.34044 2.44449,-0.39291 3.19959,0.63992c1.05843,1.61835 1.06994,3.8171 0.95987,5.75925c-0.20861,3.66545 -0.08703,7.75963 -2.07973,10.87859c-0.85941,1.50829 -3.40628,1.01811 -5.11934,0.79989c-2.00166,-0.25405 -4.75906,-0.32508 -5.91923,-2.07973c-1.61708,-2.751 -1.16785,-6.39085 -1.27984,-9.59876c-0.14014,-4.00076 -0.21054,-8.10583 0.79989,-11.99844c0.16637,-0.97074 0.83382,1.64778 1.5998,2.07973z" data-paper-data="{&quot;origPos&quot;:null}" fill="#f1d4b3" stroke="#c7af93" stroke-width="1.4" stroke-linecap="round"/><path d="M240.41536,202.66117c1.67722,0 3.19702,0.71734 4.29768,1.8756c1.10001,1.15826 1.78153,2.75805 1.78153,4.52357c0,1.76553 -0.68151,3.36533 -1.78153,4.52357c-1.10066,1.15826 -2.62045,1.8756 -4.29768,1.8756c-1.67722,0 -3.19702,-0.71734 -4.29768,-1.8756c-1.10001,-1.15826 -1.78153,-2.75805 -1.78153,-4.52357c0,-1.76553 0.68151,-3.36533 1.78153,-4.52357c1.10066,-1.15826 2.62045,-1.8756 4.29768,-1.8756z" data-paper-data="{&quot;origPos&quot;:null}" fill="#f1d4b3" stroke="none" stroke-width="0" stroke-linecap="butt"/><g stroke-width="1.4"><path d="M246.79863,225.3961l12.15843,5.11934l-0.63992,3.51955l-25.27672,0.31996l-2.55966,-1.5998l2.23971,-9.59876l0.95987,3.51955z" fill="#2e2e2e" stroke="#000000" stroke-linecap="round"/><path d="M237.88592,226.55957v-4.65372h10.06717l1.91756,4.65372z" data-paper-data="{&quot;origPos&quot;:null,&quot;index&quot;:null}" fill="#8000ff" stroke="#5900b3" stroke-linecap="butt"/><path d="M258.41589,234.03496l-25.47148,0.31996l-2.46368,-1.5998l0.38117,-1.91975l27.90736,0.8319z" fill="#ffffff" stroke="#676767" stroke-linecap="round"/></g></g><g fill="#2e2e2e" stroke="#000000" stroke-linecap="round"><path d="M247.07046,188.42301c1.01043,3.89261 0.94003,7.99769 0.79989,11.99844c-0.15438,4.42219 -0.18739,11.10111 -0.23675,11.19002c-1.40227,2.52565 -3.24241,1.95118 -6.12472,1.75739c-2.72309,-0.18309 -4.60576,0.3025 -5.95693,-2.0688c-1.9927,-3.11896 -1.87111,-7.21314 -2.07973,-10.87859c-0.11007,-1.94215 -0.09855,-4.14091 0.95987,-5.75925c0.7551,-1.03282 2.1514,-0.29948 3.19959,-0.63992c2.64414,-1.05074 5.27932,-2.07845 7.83898,-3.51955c0.76598,-0.43195 1.43342,-3.05048 1.5998,-2.07973z" data-paper-data="{&quot;origPos&quot;:null}" stroke-width="1.4"/><path d="M246.43053,187.62312c1.55371,1.35919 -0.13054,4.86784 -0.63992,7.03908c-0.29756,1.28942 -0.62712,2.69214 -1.64074,3.61873c-1.01364,0.92723 -2.41376,1.50061 -3.95852,1.50061c-1.54476,0 -2.9449,-0.57336 -3.95852,-1.50061c-1.01364,-0.92661 -1.64074,-2.20643 -1.64074,-3.61873c0,-1.4123 0.62712,-2.69214 1.64074,-3.61873c1.01364,-0.92723 2.60445,-1.11217 3.95852,-1.50061c2.10277,-0.61496 4.99391,-3.11959 6.23919,-1.91975z" data-paper-data="{&quot;origPos&quot;:null}" stroke-width="0"/></g></g><g><path d="M224.90268,212.83333l4.66667,0.33333" data-paper-data="{&quot;origPos&quot;:null}" fill="none" stroke="#000000" stroke-width="1.4" stroke-linecap="round"/><g><g><g fill="none" stroke="none" stroke-width="1" stroke-linecap="butt" font-family="sans-serif" font-weight="normal" font-size="12" text-anchor="start"/><g fill="#f1d4b3"><path d="M224.28807,208.06846c2.55966,1.44109 5.19484,2.4688 7.83898,3.51955c1.04819,0.34044 2.44449,-0.39291 3.19959,0.63992c1.05843,1.61835 1.06994,3.8171 0.95987,5.75925c-0.20861,3.66545 -0.08703,7.75963 -2.07973,10.87859c-0.85941,1.50829 -3.40628,1.01811 -5.11934,0.79989c-2.00166,-0.25405 -4.75906,-0.32508 -5.91923,-2.07973c-1.61708,-2.751 -1.16785,-6.39085 -1.27984,-9.59876c-0.14014,-4.00076 -0.21054,-8.10583 0.79989,-11.99844c0.16637,-0.97074 0.83382,1.64778 1.5998,2.07973z" data-paper-data="{&quot;origPos&quot;:null}" stroke="#c7af93" stroke-width="1.4" stroke-linecap="round"/><path d="M229.59938,202.94913c1.67722,0 3.19702,0.71734 4.29768,1.8756c1.10001,1.15826 1.78153,2.75805 1.78153,4.52357c0,1.76553 -0.68151,3.36533 -1.78153,4.52357c-1.10066,1.15826 -2.62045,1.8756 -4.29768,1.8756c-1.67722,0 -3.19702,-0.71734 -4.29768,-1.8756c-1.10001,-1.15826 -1.78153,-2.75805 -1.78153,-4.52357c0,-1.76553 0.68151,-3.36533 1.78153,-4.52357c1.10066,-1.15826 2.62045,-1.8756 4.29768,-1.8756z" data-paper-data="{&quot;origPos&quot;:null}" stroke="none" stroke-width="0" stroke-linecap="butt"/></g><g fill="none" stroke="none" stroke-width="1" stroke-linecap="butt" font-family="sans-serif" font-weight="normal" font-size="12" text-anchor="start"/></g><g stroke-width="1.4"><path d="M235.9985,225.6662l12.15843,5.11934l-0.63992,3.51955l-25.27672,0.31996l-2.55966,-1.5998l2.23971,-9.59876l0.95987,3.51955z" data-paper-data="{&quot;origPos&quot;:null}" fill="#2e2e2e" stroke="#000000" stroke-linecap="round"/><path d="M226.08954,226.47087v-4.65372h10.06717l1.91756,4.65372z" data-paper-data="{&quot;origPos&quot;:null,&quot;index&quot;:null}" fill="#8000ff" stroke="#5900b3" stroke-linecap="butt"/><path d="M247.61576,234.30506l-25.47148,0.31996l-2.46368,-1.5998l0.38117,-1.91975l27.90736,0.8319z" fill="#ffffff" stroke="#676767" stroke-linecap="round"/></g></g><g stroke-linecap="round"><path d="M225.11992,190.9805c2.55966,1.44109 5.19484,2.4688 7.83898,3.51955c1.04819,0.34044 2.44449,-0.39291 3.19959,0.63992c1.05843,1.61835 1.06994,3.8171 0.95987,5.75925c-0.20861,3.66545 -0.08703,7.75963 -2.07973,10.87859c-0.85941,1.50829 -3.73961,1.85144 -5.45267,1.63322c-2.00166,-0.25405 -5.75906,0.17492 -6.91923,-1.57973c-1.61708,-2.751 0.16548,-7.72418 0.05349,-10.93209c-0.14014,-4.00076 -0.21054,-8.10583 0.79989,-11.99844c0.16637,-0.97074 0.83382,1.64778 1.5998,2.07973z" data-paper-data="{&quot;origPos&quot;:null}" fill="#2e2e2e" stroke="#000000" stroke-width="1.4"/><path d="M230.39923,190.02063c1.35406,0.38843 2.9449,0.57336 3.95852,1.50061c1.01364,0.92661 1.64074,2.20643 1.64074,3.61873c0,1.4123 -0.62712,2.69214 -1.64074,3.61873c-1.01364,0.92723 -2.41376,1.50061 -3.95852,1.50061c-1.54476,0 -2.9449,-0.57336 -3.95852,-1.50061c-1.01364,-0.92661 -1.34319,-2.32929 -1.64074,-3.61873c-0.50937,-2.17124 -2.19364,-5.67991 -0.63992,-7.03908c1.24528,-1.19984 4.13642,1.30479 6.23919,1.91975z" data-paper-data="{&quot;origPos&quot;:null}" fill="#2e2e2e" stroke="#000000" stroke-width="0"/><path d="M226.06936,211.97068v-29.36131" fill="none" stroke="#8000ff" stroke-width="1.4"/><path d="M228.56936,212.18979v-30.45687" fill="none" stroke="#8000ff" stroke-width="1.4"/></g></g><path d="M224.57736,155.81923c0.44987,-2.40225 2.8182,-2.12517 4.47942,-2.23971c5.40602,-0.359 10.76852,-0.35772 15.99793,0.63992c1.34574,0.26173 2.36129,-0.07935 2.55966,2.23971c0.79351,9.27688 1.54668,18.69326 0,27.83639c-0.26173,2.31073 -3.00058,2.32546 -4.79938,2.55966c-5.38426,0.69879 -10.85555,0.86582 -16.31788,0.31996c-1.27471,-0.22717 -3.02041,-0.16637 -3.19959,-2.55966c-0.71351,-9.56804 -0.51962,-19.18855 1.27984,-28.79627z" data-paper-data="{&quot;origPos&quot;:null}" fill="#8000ff" stroke="#5900b3" stroke-width="1.4" stroke-linecap="round"/><g data-paper-data="{&quot;index&quot;:null}" stroke-linecap="round"><g fill="#f1d4b3"><path d="M214.94898,188.2305c0.17053,0.55609 -0.21555,1.31842 -0.39341,2.10998c-0.10473,0.4649 -0.10948,0.9557 -0.26227,1.40666c-0.17418,0.51424 -0.43247,1.00172 -0.7105,1.46865c-0.21794,0.36636 -0.47483,0.71523 -0.77248,1.02042c-0.30641,0.31462 -0.60007,0.72798 -1.02759,0.8273c-0.4643,0.1076 -0.96838,-0.07575 -1.40666,-0.26227c-0.39216,-0.16687 -0.71523,-0.47483 -1.02042,-0.77248c-0.31462,-0.30641 -0.39546,-0.94707 -0.8273,-1.02759c-0.46843,-0.08734 -0.80661,0.61174 -1.28269,0.63418c-0.43843,0.02043 -0.86353,-0.25241 -1.21354,-0.51738c-0.35,-0.26496 -0.81545,-0.58842 -0.8273,-1.02759c-0.0114,-0.42599 0.99277,-0.77178 0.77248,-1.02042c-0.32089,-0.36173 -1.2398,-0.11269 -1.85488,-0.2003c-0.47197,-0.06674 -1.02656,0.02548 -1.40666,-0.26227c-0.38011,-0.28776 -0.61174,-0.80661 -0.63418,-1.28269c-0.02043,-0.43843 0.29771,-0.83326 0.51738,-1.21354c0.21296,-0.3693 0.47483,-0.71523 0.77248,-1.02042c0.30641,-0.31462 0.68515,-0.552 1.02759,-0.8273c0.34244,-0.2753 0.64306,-0.61515 1.02759,-0.8273c0.54361,-0.30038 1.13336,-0.52492 1.73091,-0.69617c0.43455,-0.1245 0.89254,-0.19834 1.34466,-0.18595c0.47644,0.01314 0.9557,0.10948 1.40666,0.26227c0.51424,0.17418 0.97462,0.48418 1.46865,0.7105c0.3994,0.18277 0.83326,0.29771 1.21354,0.51738c0.3693,0.21296 0.68062,0.51525 1.02042,0.77248c0.3398,0.25724 0.68062,0.51525 1.02042,0.77248c0.16991,0.12862 0.5159,0.17305 0.51021,0.38624z" data-paper-data="{&quot;origPos&quot;:null}" stroke="#c7af93" stroke-width="1.4"/><g><g stroke="#c7af93" stroke-width="1.4"><path d="M221.89463,169.55077c1.25539,0.38374 3.41356,0.40846 3.22943,1.52563c-0.20825,3.95462 -2.37741,7.59693 -4.18828,10.8606c-1.51244,2.69516 -2.80133,6.0596 -5.6216,7.39038c-1.81781,0.89787 -3.86327,-1.45712 -5.37415,-2.75853c-1.03896,-0.89558 -2.27563,-2.23436 -2.15144,-3.50549c0.64029,-2.93324 2.59596,-5.4868 4.20146,-7.7623c1.5806,-2.24227 3.35531,-4.59837 5.64018,-5.96967c1.3054,-0.71272 2.9081,-0.1844 4.26438,0.21937z" data-paper-data="{&quot;origPos&quot;:null}"/></g><path d="M213.34162,184.20456c0.73278,0.27142 1.8283,0.21949 1.8513,1.00018c0.33489,1.46706 -0.15232,3.17295 -0.97994,4.47507c-0.53089,0.83169 -1.57574,1.33933 -2.57313,1.4567c-0.99649,0.11724 -2.0535,-0.14359 -2.9331,-0.80947c-0.87959,-0.66587 -1.4175,-1.61242 -1.57509,-2.60335c-0.15771,-0.99182 0.0645,-2.0275 0.70372,-2.87189c0.63923,-0.84439 1.57574,-1.33933 2.57313,-1.4567c0.99649,-0.11724 1.98104,0.46194 2.9331,0.80947z" data-paper-data="{&quot;origPos&quot;:null}" stroke="none" stroke-width="0"/></g></g><path d="M225.87664,154.39268c1.39531,0.39558 2.88705,1.45417 2.93249,2.79319c0.4713,2.91618 -0.72856,5.79638 -1.55179,8.57605c-0.82436,2.79142 -1.29596,6.22012 -3.36318,8.56417c-0.97813,0.96434 -3.05915,0.46018 -4.39282,-0.13738c-1.28164,-0.57743 -2.83548,-1.45975 -3.0935,-2.71058c-0.25756,-2.99125 0.85367,-6.00957 1.71282,-8.65867c0.84527,-2.60985 1.84221,-5.38604 3.61816,-7.3728c1.03562,-1.06752 2.77788,-1.43412 4.13785,-1.05398z" data-paper-data="{&quot;origPos&quot;:null}" fill="#8000ff" stroke="#5900b3" stroke-width="1.4"/></g></g></g></svg>