<svg xmlns="http://www.w3.org/2000/svg" xmlns:xlink="http://www.w3.org/1999/xlink" version="1.1" width="236.8195542031288" height="107.2515610390663" viewBox="0.5418210658550331 -0.33667891888617785 236.8195542031288 107.2515610390663">
  <!-- Exported by Scratch - http://scratch.mit.edu/ -->
  <g id="ID0.7750393371097744">
    <path id="ID0.012961330357939005" fill="#FFFFFF" stroke="#000000" stroke-width="13.354557865238176" stroke-linecap="round" d="M 135.2148 78.8114 L 115.6989 79.7567 L 101.106 81.3321 L 85.2824 82.9076 L 62.0744 86.3736 L 41.6795 90.7848 L 21.1087 96.614 L 9.3289 100.2376 L 7.5707 90.7848 L 7.2191 81.017 L 8.8015 68.7285 L 12.4936 60.8512 L 17.2407 50.4532 L 21.1087 43.8363 L 29.8996 35.644 L 40.8004 28.0818 L 52.5802 22.0951 L 62.426 18.6291 L 73.8542 15.4782 L 85.2824 12.0122 L 99.172 9.9641 L 113.5891 7.916 L 124.314 7.2858 L 138.2037 6.3406 L 151.5659 6.8132 L 162.4666 7.2858 L 170.9059 7.2858 L 187.4328 9.1764 L 200.795 10.4367 L 213.8055 12.3273 L 230.6841 18.314 L 227.871 23.6705 L 225.2337 29.9724 L 224.3546 41.4732 L 224.3546 53.6042 L 225.5853 68.7285 L 227.1677 78.1812 L 227.871 85.1132 L 209.7617 82.4349 L 183.7406 79.7567 L 154.2031 78.8114 L 135.2148 78.8114 Z "/>
    <path id="ID0.6293271016329527" fill="none" stroke="#000000" stroke-width="9.4527180453386" stroke-linecap="round" d="M 221.8171 43.953 L 17.9535 51.8303 "/>
  </g>
</svg>