<svg xmlns="http://www.w3.org/2000/svg" xmlns:xlink="http://www.w3.org/1999/xlink" version="1.1" width="228.67335320502463" height="103.68789483100119" viewBox="-2.0633039523658283 0.10295056805043146 228.67335320502463 103.68789483100119">
  <!-- Exported by Scratch - http://scratch.mit.edu/ -->
  <g id="ID0.15768937254324555">
    <path id="ID0.6918087364174426" fill="#8B0002" stroke="none" stroke-linecap="round" d="M 137.3808 8.6326 C 161.9783 7.489 187.4058 10.2446 212.3149 12.1179 C 218.5405 12.5863 219.2136 12.3009 219.7211 14.9497 C 220.3703 20.6199 215.9701 25.9807 215.0378 31.7228 C 213.9878 38.188 213.3822 44.8297 213.404 51.3276 C 213.4193 55.8215 214.0597 59.6749 215.0378 64.7243 C 215.9135 69.0134 218.0199 72.906 218.3052 77.4674 C 218.3771 78.6089 221.0107 76.6985 215.8002 76.3783 C 194.9973 75.0865 173.5125 72.209 153.2825 73.1108 C 120.2832 74.5724 86.4714 78.7505 54.6048 82.9132 C 37.9886 85.0806 5.9259 103.8142 5.157 92.28 C 3.8347 72.49 27.4564 32.6573 50.0303 19.5242 C 75.4556 5.0798 108.0999 9.9941 137.3808 8.6326 Z " stroke-width="2.1783164358634792"/>
    <path id="ID0.06557183247059584" fill="#F37070" stroke="none" stroke-linecap="round" d="M 45.7478 54.3678 C 53.1366 54.4004 60.5603 55.3458 66.6596 59.0511 C 74.0724 63.5537 80.9799 70.215 84.7396 78.2203 C 85.9181 80.6579 80.8753 82.7033 78.2047 83.4483 C 70.7352 85.6375 62.3683 85.5242 55.1145 86.4979 C 39.9948 88.4845 24.409 97.8165 9.9145 93.9042 C 3.1312 92.057 4.2661 80.0719 5.1222 73.3191 C 5.8388 67.5575 10.5767 61.9875 15.7959 59.4868 C 25.0058 55.2565 35.636 54.3547 45.7478 54.3678 Z " stroke-width="2.1783164358634792"/>
    <path id="ID0.8337922939099371" fill="none" stroke="#000000" stroke-width="13.069898615180875" stroke-linecap="round" d="M 220.0751 17.3117 L 189.5787 9.9054 L 169.756 7.9449 L 150.9136 6.6379 L 134.903 6.8558 L 125.3184 6.8558 L 111.7039 7.7271 L 93.7328 10.1232 L 76.5241 13.7175 L 52.5626 20.797 L 36.2252 30.0548 L 22.7197 40.9464 L 14.0064 51.5113 L 9.6498 63.2742 L 7.4714 76.8886 L 7.1447 86.3643 L 7.9071 97.2559 L 29.4724 90.5031 L 49.2951 85.2752 L 80.8807 79.6115 L 115.5159 76.8886 L 146.2302 76.1262 L 178.9049 77.2154 L 217.1344 80.1561 "/>
  </g>
</svg>