<svg xmlns="http://www.w3.org/2000/svg" xmlns:xlink="http://www.w3.org/1999/xlink" version="1.1" width="214.38836098175034" height="175.55596352081284" viewBox="-0.01888036956779615 0.3421196914673601 214.38836098175034 175.55596352081284">
  <!-- Exported by Scratch - http://scratch.mit.edu/ -->
  <g id="ID0.9558430630713701">
    <path id="ID0.6938288141973317" fill="none" stroke="#000000" stroke-width="13.489160542297213" stroke-linecap="round" d="M 8.4119 7.0867 L 28.9829 12.7072 L 46.294 22.4869 L 57.8721 34.4023 L 66.8649 47.5542 L 72.1482 57.6711 L 75.8577 66.3266 L 77.319 80.7151 L 77.7687 93.6422 L 73.6095 113.8759 L 67.2022 126.803 L 60.6824 135.7958 L 47.418 149.5098 L 35.3902 157.7157 L 21.339 164.4603 L 6.7257 167.2705 "/>
    <path id="ID0.6938288141973317" fill="none" stroke="#000000" stroke-width="12.160259932133085" stroke-linecap="round" d="M 206.5457 40.1605 L 195.8617 41.9521 L 179.5659 47.9868 L 169.4215 56.7561 L 158.7375 69.3914 L 154.4207 79.6693 L 150.8594 86.9299 L 149.4564 98.9994 L 149.0247 109.8431 L 153.0177 126.8159 L 159.1691 137.6596 L 163.2701 144.6373 L 175.0333 156.5182 L 191.3291 165.1932 L 207.6249 169.1535 "/>
    <path id="ID0.8020611428655684" fill="none" stroke="#FF0000" stroke-width="13.489160542297213" stroke-linecap="round" d="M 109.9178 167.3829 L 109.9178 167.3829 Z "/>
    <path id="ID0.5592617676593363" fill="none" stroke="#000000" stroke-width="13.489160542297213" stroke-linecap="round" d="M 146.3633 104.9379 C 146.3633 104.9379 134.2657 95.0549 127.2536 91.8984 C 122.121 89.5985 116.4398 89.2882 110.9542 89.2006 C 106.9659 88.9105 103.0024 89.9132 99.1512 90.7743 C 96.1229 91.451 93.5037 92.4245 91.0577 93.697 C 86.5568 95.8058 78.3554 100.8912 78.3554 100.8912 "/>
  </g>
</svg>