<svg xmlns="http://www.w3.org/2000/svg" xmlns:xlink="http://www.w3.org/1999/xlink" version="1.1" width="135.37423499757756" height="237.51678260499943" viewBox="-2.267640989694541 0.5242074314022607 135.37423499757756 237.51678260499943">
  <!-- Exported by Scratch - http://scratch.mit.edu/ -->
  <g id="ID0.9802127466537058">
    <path id="ID0.8292162315919995" fill="#8B0002" stroke="#8B0002" stroke-width="6.127510244994937" stroke-linecap="round" d="M 57.631 13.5218 L 47.3674 21.1811 L 38.1761 34.0489 L 31.1295 49.3677 L 22.8574 72.3459 L 14.2789 106.9663 L 10.6023 133.621 L 7.5386 157.5182 L 7.5386 177.739 L 8.1513 201.4831 L 11.2151 211.4403 L 18.2617 224.0017 L 26.2275 228.291 L 33.1209 225.9932 L 40.7803 218.7933 L 46.1419 207.1511 L 51.5035 194.2833 L 59.9288 173.4498 L 66.0563 154.7609 L 69.4264 149.3993 L 72.4902 156.5991 L 75.554 174.6753 L 79.0773 193.0578 L 81.3751 205.3128 L 84.4388 216.3423 L 88.2685 225.9932 L 96.6939 229.0569 L 108.9489 222.9294 L 118.9061 209.9085 L 122.4294 199.4917 L 126.5655 133.621 L 128.0974 80.0052 L 126.1059 50.2868 L 115.3828 30.3724 L 103.1277 17.1983 L 93.6301 10.7644 L 86.2771 8.007 L 72.9498 8.4666 L 60.2352 11.0708 Z "/>
    <path id="ID0.6058914759196341" fill="#F37070" stroke="none" stroke-linecap="round" d="M 36.5304 185.1883 C 42.6773 188.2025 44.3462 197.3508 46.6204 204.4075 C 47.2002 205.8585 44.6921 206.6977 44.218 208.0911 C 42.4339 213.2355 42.4467 219.7027 38.6125 224.1071 C 35.9122 227.874 31.1971 231.247 26.0399 230.8338 C 19.1755 230.27 11.8722 226.785 7.7561 221.2114 C 3.6048 215.5866 4.8892 208.0463 4.1781 201.6847 C 3.4286 194.9452 -2.2058 184.6341 3.3773 181.9851 C 13.3745 177.2732 26.5685 180.3098 36.5304 185.1883 Z " stroke-width="3.203192633066123"/>
    <path id="ID0.09201513696461916" fill="#FFFFFF" stroke="none" stroke-linecap="round" d="M 79.2632 5.3421 C 86.0283 5.1051 92.3546 7.0366 98.0019 9.8266 C 105.6671 14.183 112.8903 20.1057 118.3421 26.3231 C 121.9105 30.4424 128.1663 38.7226 125.7095 41.0577 C 113.9762 45.6607 98.8411 40.7246 89.1931 40.5773 C 75.256 40.5068 60.4733 41.3236 47.5356 40.0231 C 43.5764 39.6035 36.161 40.7695 36.0201 36.7334 C 36.161 27.9247 40.5078 17.7449 47.5356 12.623 C 56.2899 6.2807 68.4236 5.7265 79.2632 5.3421 Z " stroke-width="3.203192633066123"/>
    <path id="ID0.017184496391564608" fill="none" stroke="#000000" stroke-width="6.406385266132246" stroke-linecap="round" d="M 32.6866 38.9626 L 121.8955 41.5251 "/>
    <path id="ID0.8292162315919995" fill="none" stroke="#000000" stroke-width="6.406385266132246" stroke-linecap="round" d="M 56.23 9.4932 L 45.4993 17.5012 L 35.8897 30.9546 L 28.5224 46.9705 L 19.8738 70.9945 L 10.9048 107.1906 L 7.061 135.0583 L 3.8578 160.0432 L 3.8578 181.1843 L 4.4985 206.009 L 7.7017 216.4194 L 15.069 229.5525 L 23.3973 234.037 L 30.6045 231.6346 L 38.6125 224.1071 L 44.218 211.935 L 49.8236 198.4815 L 58.6324 176.6998 L 65.0388 157.1604 L 68.5623 151.5548 L 71.7655 159.0823 L 74.9687 177.9811 L 78.6524 197.2003 L 81.0548 210.013 L 84.258 221.5445 L 88.2619 231.6346 L 97.0707 234.8378 L 109.8835 228.4314 L 120.2939 214.8178 L 123.9775 203.927 L 128.3019 135.0583 L 129.9034 79.0025 L 127.8214 47.9315 L 116.6102 27.1107 L 103.7974 13.337 L 93.8675 6.6103 L 86.1799 3.7274 L 72.246 4.2079 L 58.9527 6.9306 Z "/>
  </g>
</svg>