<svg xmlns="http://www.w3.org/2000/svg" xmlns:xlink="http://www.w3.org/1999/xlink" version="1.1" width="255.37680061017113" height="108.77766425763207" viewBox="0.23084922952136822 2.1264495484300596 255.37680061017113 108.77766425763207">
  <!-- Exported by Scratch - http://scratch.mit.edu/ -->
  <g id="ID0.4116860316134989">
    <path id="ID0.5943064647726715" fill="#FFFFFF" stroke="#000000" stroke-width="14.84030158673363" stroke-linecap="round" d="M 12.8451 9.5466 L 48.7091 19.4402 L 84.9442 25.6236 L 124.5183 30.1994 L 148.8812 31.0651 L 166.5659 30.8177 L 184.2506 29.5811 L 213.1891 26.4893 L 248.1875 21.5426 L 235.8206 37.0012 L 230.0082 50.3575 L 227.5348 60.4983 L 223.8247 75.957 L 200.5749 71.0102 L 180.5405 68.5368 L 163.7215 69.1552 L 150.2415 70.3919 L 135.2776 72.8653 L 119.9426 79.0487 L 108.0703 72.2469 L 92.7354 66.4345 L 79.3791 62.3534 L 62.4364 60.0037 L 52.1719 60.4983 L 39.5576 60.7457 L 29.2931 62.9717 L 15.3185 66.9291 L 9.877 55.3042 L 7.8983 44.6687 L 7.651 37.0012 L 8.6403 22.7792 L 12.8451 9.5466 Z "/>
    <path id="ID0.890516291372478" fill="#000000" stroke="none" stroke-linecap="round" d="M 117.7872 73.0529 C 120.384 72.0897 123.4829 72.3136 126.1229 73.1366 C 127.4541 73.5661 128.375 74.771 129.4063 76.1345 C 133.5157 81.5886 137.8669 86.6353 140.9136 92.5811 C 142.3587 95.3981 143.9931 99.1202 142.7235 102.2041 C 141.8811 103.9776 138.3382 103.6645 136.5031 102.7288 C 131.973 100.4164 128.4682 96.4094 124.8629 92.868 C 120.1425 88.2668 113.5066 84.3965 111.1497 78.0188 C 110.3396 75.5151 115.2311 73.9996 117.7872 73.0529 Z " stroke-width="2.473383505169831"/>
  </g>
</svg>