<svg version="1.1" xmlns="http://www.w3.org/2000/svg" xmlns:xlink="http://www.w3.org/1999/xlink" width="70.23695" height="142.1797" viewBox="0,0,70.23695,142.1797"><defs><radialGradient cx="227.25036" cy="111.99769" r="22.6417" gradientUnits="userSpaceOnUse" id="color-1"><stop offset="0" stop-color="#5e2ccf"/><stop offset="1" stop-color="#26008e"/></radialGradient><radialGradient cx="225.14204" cy="120.43098" r="22.6417" gradientUnits="userSpaceOnUse" id="color-2"><stop offset="0" stop-color="#45219b"/><stop offset="1" stop-color="#18005b"/></radialGradient><radialGradient cx="217.64578" cy="119.49395" r="14.38606" gradientUnits="userSpaceOnUse" id="color-3"><stop offset="0" stop-color="#5e2ccf"/><stop offset="1" stop-color="#26008e"/></radialGradient><radialGradient cx="223.03372" cy="120.66524" r="14.38606" gradientUnits="userSpaceOnUse" id="color-4"><stop offset="0" stop-color="#45219b"/><stop offset="1" stop-color="#18005b"/></radialGradient><radialGradient cx="221.62817" cy="114.57453" r="5.73453" gradientUnits="userSpaceOnUse" id="color-5"><stop offset="0" stop-color="#5e2ccf"/><stop offset="1" stop-color="#26008e"/></radialGradient></defs><g transform="translate(-209.2468,-96.45005)"><g data-paper-data="{&quot;isPaintingLayer&quot;:true}" fill-rule="nonzero" stroke-linejoin="miter" stroke-miterlimit="10" stroke-dasharray="" stroke-dashoffset="0" style="mix-blend-mode: normal"><path d="M263.9111,231.79642c0,3.77395 -10.73415,6.83333 -23.97539,6.83333c-13.24124,0 -23.97539,-3.05939 -23.97539,-6.83333c0,-3.77395 10.73415,-6.83333 23.97539,-6.83333c13.24124,0 23.97539,3.05939 23.97539,6.83333z" fill-opacity="0.5" fill="#000000" stroke="#000000" stroke-width="0" stroke-linecap="butt"/><g data-paper-data="{&quot;index&quot;:null}" stroke-linecap="round"><g fill="#f1d4b3"><path d="M273.06447,141.64682c-0.20121,0.07068 -0.34943,-0.24509 -0.5239,-0.36747c-0.34892,-0.24473 -0.69888,-0.49019 -1.04779,-0.73492c-0.34892,-0.24473 -0.73199,-0.44855 -1.04779,-0.73492c-0.32554,-0.29478 -0.56781,-0.67261 -0.86406,-0.99687c-0.36671,-0.40102 -0.80277,-0.74439 -1.12603,-1.18061c-0.28352,-0.38255 -0.52196,-0.80928 -0.68033,-1.25881c-0.15021,-0.4266 -0.22015,-0.88523 -0.23465,-1.33703c-0.01989,-0.6213 0.01329,-1.25147 0.13282,-1.86093c0.08423,-0.43101 0.31573,-0.82125 0.47297,-1.23153c0.15725,-0.41028 0.26725,-0.84351 0.47297,-1.23153c0.1994,-0.37678 0.44855,-0.73199 0.73492,-1.04779c0.29478,-0.32554 0.57324,-0.7493 0.99687,-0.86406c0.46009,-0.12439 1.02496,-0.06274 1.41525,0.21103c0.3903,0.27375 0.47231,0.82995 0.68033,1.25881c0.27173,0.55872 0.31597,1.50974 0.75857,1.7045c0.30413,0.13358 0.32589,-0.92823 0.73492,-1.04779c0.42172,-0.12317 0.87213,0.22089 1.23153,0.47297c0.35938,0.25208 0.7493,0.57324 0.86406,0.99687c0.12439,0.46009 -0.43756,0.99606 -0.21103,1.41525c0.20887,0.38645 0.84351,0.26725 1.23153,0.47297c0.37678,0.1994 0.76888,0.41267 1.04779,0.73492c0.31174,0.36012 0.64062,0.78385 0.68033,1.25881c0.03634,0.4374 -0.26725,0.84351 -0.47297,1.23153c-0.1994,0.37678 -0.45289,0.72818 -0.73492,1.04779c-0.35939,0.40764 -0.74439,0.80277 -1.18061,1.12603c-0.38255,0.28352 -0.84832,0.43832 -1.25881,0.68033c-0.69907,0.41166 -1.30662,1.0126 -1.88823,1.02049z" data-paper-data="{&quot;origPos&quot;:null}" stroke="#c7af93" stroke-width="1.4"/><path d="M260.03314,156.32331c-1.00713,0.51731 -1.69142,-1.52964 -2.44107,-2.60728c-0.79959,-1.16755 -1.79324,-2.53154 -1.5144,-3.99244c0.60592,-2.59498 2.30554,-5.00582 3.95624,-7.197c1.67472,-2.22507 3.5069,-4.86862 6.10326,-6.37619c1.17206,-0.50739 2.82519,0.26003 3.99584,0.9749c1.7015,1.0399 4.56963,2.26613 4.27139,4.27156c-0.40342,3.09226 -3.21172,5.34929 -5.31442,7.61426c-2.55254,2.7231 -5.35583,5.90322 -9.05681,7.31221z" data-paper-data="{&quot;origPos&quot;:null}" stroke="#c7af93" stroke-width="1.4"/><path d="M270.44265,142.54356c-0.75022,0.21712 -1.03622,-0.84169 -1.51893,-1.4562c-0.62231,-0.79995 -1.47511,-1.55988 -1.66858,-2.54444c-0.19363,-0.98545 -0.00918,-2.02851 0.59896,-2.89555c0.60815,-0.86705 1.52608,-1.39567 2.51854,-1.54918c0.99158,-0.15334 2.05736,0.06892 2.96057,0.70242c0.90319,0.63349 1.47511,1.55988 1.66858,2.54444c0.19363,0.98545 0.03024,2.13551 -0.59896,2.89555c-0.98621,1.18654 -2.46102,2.17262 -3.96017,2.30296z" data-paper-data="{&quot;origPos&quot;:null}" stroke="none" stroke-width="0"/></g><path d="M247.93785,164.08413c-1.28865,0.36668 -2.75309,-0.72933 -3.55687,-1.93653c-0.77826,-1.17827 -0.96268,-2.94912 -0.26346,-4.26183c1.34765,-2.29895 3.6853,-4.09794 5.91104,-5.70165c2.25884,-1.62895 4.79203,-3.61089 7.7185,-4.28149c1.26977,-0.13732 2.58543,1.0718 3.52752,2.1151c0.97716,1.08667 2.09426,2.91343 1.47567,4.13983c-1.5986,2.68559 -4.71828,4.18427 -7.12327,5.82365c-2.39414,1.63471 -4.76868,3.65874 -7.68915,4.1029z" data-paper-data="{&quot;origPos&quot;:null}" fill="#8000ff" stroke="#5900b3" stroke-width="1.4"/></g><path d="M235.93597,147.02038c1.89799,0 3.61745,0.7711 4.86274,2.01638c1.24528,1.24528 2.01638,2.96474 2.01638,4.86274c0,1.89799 -0.7711,3.61745 -2.01638,4.86274c-1.24528,1.24528 -2.96474,2.01638 -4.86274,2.01638c-1.89799,0 -3.61745,-0.7711 -4.86274,-2.01638c-1.24528,-1.24528 -2.01638,-2.96474 -2.01638,-4.86274c0,-1.89799 0.7711,-3.61745 2.01638,-4.86274c1.24528,-1.24528 2.96474,-2.01638 4.86274,-2.01638z" data-paper-data="{&quot;origPos&quot;:null}" fill="#f1d4b3" stroke="#c7af93" stroke-width="1.4" stroke-linecap="butt"/><path d="M235.77598,103.28206c6.75305,0 12.87194,2.7606 17.30335,7.22081c4.43078,4.45958 7.17347,10.61878 7.17347,17.41598c0,6.79719 -2.74268,12.95639 -7.17347,17.41598c-4.43143,4.46021 -10.55031,7.22081 -17.30335,7.22081c-6.75305,0 -12.87194,-2.7606 -17.30335,-7.22081c-4.43078,-4.45958 -7.17347,-10.61878 -7.17347,-17.41598c0,-6.79719 2.74268,-12.95639 7.17347,-17.41598c4.43143,-4.46021 10.55031,-7.22081 17.30335,-7.22081z" data-paper-data="{&quot;index&quot;:null}" fill="#f1d4b3" stroke="#c7af93" stroke-width="1.4" stroke-linecap="butt"/><path d="M230.49483,143.59683c0,0 -0.64119,0.02111 -0.95987,0c-0.48121,-0.03199 -0.97907,-0.016 -1.43981,-0.15998c-0.4102,-0.12799 -0.77942,-0.3782 -1.11985,-0.63992c-0.35834,-0.2758 -0.77622,-0.54648 -0.95987,-0.95987c-0.26301,-0.59193 -0.31996,-1.91975 -0.31996,-1.91975" data-paper-data="{&quot;index&quot;:null}" fill="none" stroke="#9a8772" stroke-width="1.4" stroke-linecap="round"/><path d="M231.77457,124.71928c0.79479,0 1.51468,0.79798 2.03557,2.08677c0.52153,1.28815 0.84405,3.0684 0.84405,5.03231c0,1.96391 -0.32252,3.74416 -0.84405,5.03231c-0.5209,1.28879 -1.2408,2.08677 -2.03557,2.08677c-0.79479,0 -1.51468,-0.79798 -2.03557,-2.08677c-0.52153,-1.28815 -0.84405,-3.0684 -0.84405,-5.03231c0,-1.96391 0.32252,-3.74416 0.84405,-5.03231c0.5209,-1.28879 1.2408,-2.08677 2.03557,-2.08677z" data-paper-data="{&quot;index&quot;:null}" fill="#424242" stroke="none" stroke-width="1.4" stroke-linecap="butt"/><path d="M243.77304,124.71928c0.79479,0 1.51468,0.79798 2.03557,2.08677c0.52153,1.28815 0.84405,3.0684 0.84405,5.03231c0,1.96391 -0.32252,3.74416 -0.84405,5.03231c-0.5209,1.28879 -1.2408,2.08677 -2.03557,2.08677c-0.79479,0 -1.51468,-0.79798 -2.03557,-2.08677c-0.52153,-1.28815 -0.84405,-3.0684 -0.84405,-5.03231c0,-1.96391 0.32252,-3.74416 0.84405,-5.03231c0.5209,-1.28879 1.2408,-2.08677 2.03557,-2.08677z" data-paper-data="{&quot;index&quot;:null}" fill="#424242" stroke="none" stroke-width="1.4" stroke-linecap="butt"/><g data-paper-data="{&quot;origPos&quot;:null}" stroke-width="1.4" stroke-linecap="butt"><path d="M259.49878,122.32564c-2.26447,1.46525 -9.05789,-1.99806 -11.85518,-1.99806c-4.92856,0 -18.915,0.53282 -23.84355,-0.1332c-5.46137,-0.79923 -6.79342,-3.0637 -6.79342,-8.65827c0,-5.19496 8.12546,-14.38606 19.98063,-14.38606c11.85518,0 17.31655,6.79342 22.91113,9.72391c0,0 3.33011,8.25866 2.13127,11.18915z" fill="url(#color-1)" stroke="url(#color-2)"/><path d="M216.74022,110.07082c9.72391,0 5.32817,4.12933 5.32817,11.98838c0,7.85905 -5.86099,16.78373 -8.12546,16.78373c-2.26447,0 -3.99613,-6.3938 -3.99613,-14.25285c0,-7.99225 4.52894,-14.51926 6.79342,-14.51926z" fill="url(#color-3)" stroke="url(#color-4)"/></g><path d="M217.48668,112.39766c-0.02825,-0.00822 -0.05725,-0.01814 -0.087,-0.02991c-0.01856,-0.00707 -0.03677,-0.01486 -0.05459,-0.02333c-0.38977,-0.17921 -0.4461,-0.48927 -0.42769,-0.71127c0.00433,-0.09852 0.02767,-0.1921 0.06644,-0.27716l0.49347,-1.15143l0.09304,0.03987c2.05115,-3.19799 5.7607,-3.15574 7.85047,0.75349c2.07565,4.1513 1.8095,8.27285 -3.83749,8.41874c-3.13229,0 -4.27467,-4.25455 -4.09665,-7.019z" data-paper-data="{&quot;origPos&quot;:null}" fill="url(#color-5)" stroke="none" stroke-width="0.5" stroke-linecap="butt"/><path d="M225.00007,183.22087l4.33333,-2.46503" data-paper-data="{&quot;origPos&quot;:null}" fill="none" stroke="#000000" stroke-width="1.4" stroke-linecap="round"/><path d="M235.13601,179.65614c3.31029,0 6.30959,0.86069 8.4821,2.25059c2.17187,1.38991 3.51634,3.30965 3.51634,5.42842c0,2.11877 -1.34446,4.03851 -3.51634,5.42842c-2.17252,1.38991 -5.17181,2.25059 -8.4821,2.25059c-3.31029,0 -6.30959,-0.86069 -8.4821,-2.25059c-2.17187,-1.38991 -3.51634,-3.30965 -3.51634,-5.42842c0,-2.11877 1.34446,-4.03851 3.51634,-5.42842c2.17252,-1.38991 5.17181,-2.25059 8.4821,-2.25059z" data-paper-data="{&quot;origPos&quot;:null,&quot;index&quot;:null}" fill="#2e2e2e" stroke="#000000" stroke-width="1.4" stroke-linecap="butt"/><g><g><path d="M235.10407,207.7805c2.55966,1.44109 5.19484,2.4688 7.83898,3.51955c1.04819,0.34044 2.44449,-0.39291 3.19959,0.63992c1.05843,1.61835 1.06994,3.8171 0.95987,5.75925c-0.20861,3.66545 -0.08703,7.75963 -2.07973,10.87859c-0.85941,1.50829 -3.40628,1.01811 -5.11934,0.79989c-2.00166,-0.25405 -4.75906,-0.32508 -5.91923,-2.07973c-1.61708,-2.751 -1.16785,-6.39085 -1.27984,-9.59876c-0.14014,-4.00076 -0.21054,-8.10583 0.79989,-11.99844c0.16637,-0.97074 0.83382,1.64778 1.5998,2.07973z" data-paper-data="{&quot;origPos&quot;:null}" fill="#f1d4b3" stroke="#c7af93" stroke-width="1.4" stroke-linecap="round"/><path d="M240.41536,202.66117c1.67722,0 3.19702,0.71734 4.29768,1.8756c1.10001,1.15826 1.78153,2.75805 1.78153,4.52357c0,1.76553 -0.68151,3.36533 -1.78153,4.52357c-1.10066,1.15826 -2.62045,1.8756 -4.29768,1.8756c-1.67722,0 -3.19702,-0.71734 -4.29768,-1.8756c-1.10001,-1.15826 -1.78153,-2.75805 -1.78153,-4.52357c0,-1.76553 0.68151,-3.36533 1.78153,-4.52357c1.10066,-1.15826 2.62045,-1.8756 4.29768,-1.8756z" data-paper-data="{&quot;origPos&quot;:null}" fill="#f1d4b3" stroke="none" stroke-width="0" stroke-linecap="butt"/><g stroke-width="1.4"><path d="M246.79863,225.3961l12.15843,5.11934l-0.63992,3.51955l-25.27672,0.31996l-2.55966,-1.5998l2.23971,-9.59876l0.95987,3.51955z" fill="#2e2e2e" stroke="#000000" stroke-linecap="round"/><path d="M237.88592,226.55957v-4.65372h10.06717l1.91756,4.65372z" data-paper-data="{&quot;origPos&quot;:null,&quot;index&quot;:null}" fill="#8000ff" stroke="#5900b3" stroke-linecap="butt"/><path d="M258.41589,234.03496l-25.47148,0.31996l-2.46368,-1.5998l0.38117,-1.91975l27.90736,0.8319z" fill="#ffffff" stroke="#676767" stroke-linecap="round"/></g></g><g fill="#2e2e2e" stroke="#000000" stroke-linecap="round"><path d="M247.07046,188.42301c1.01043,3.89261 0.94003,7.99769 0.79989,11.99844c-0.15438,4.42219 -0.18739,11.10111 -0.23675,11.19002c-1.40227,2.52565 -3.24241,1.95118 -6.12472,1.75739c-2.72309,-0.18309 -4.60576,0.3025 -5.95693,-2.0688c-1.9927,-3.11896 -1.87111,-7.21314 -2.07973,-10.87859c-0.11007,-1.94215 -0.09855,-4.14091 0.95987,-5.75925c0.7551,-1.03282 2.1514,-0.29948 3.19959,-0.63992c2.64414,-1.05074 5.27932,-2.07845 7.83898,-3.51955c0.76598,-0.43195 1.43342,-3.05048 1.5998,-2.07973z" data-paper-data="{&quot;origPos&quot;:null}" stroke-width="1.4"/><path d="M246.43053,187.62312c1.55371,1.35919 -0.13054,4.86784 -0.63992,7.03908c-0.29756,1.28942 -0.62712,2.69214 -1.64074,3.61873c-1.01364,0.92723 -2.41376,1.50061 -3.95852,1.50061c-1.54476,0 -2.9449,-0.57336 -3.95852,-1.50061c-1.01364,-0.92661 -1.64074,-2.20643 -1.64074,-3.61873c0,-1.4123 0.62712,-2.69214 1.64074,-3.61873c1.01364,-0.92723 2.60445,-1.11217 3.95852,-1.50061c2.10277,-0.61496 4.99391,-3.11959 6.23919,-1.91975z" data-paper-data="{&quot;origPos&quot;:null}" stroke-width="0"/></g></g><g><path d="M224.90268,212.83333l4.66667,0.33333" data-paper-data="{&quot;origPos&quot;:null}" fill="none" stroke="#000000" stroke-width="1.4" stroke-linecap="round"/><g><g><g fill="none" stroke="none" stroke-width="1" stroke-linecap="butt" font-family="sans-serif" font-weight="normal" font-size="12" text-anchor="start"/><g fill="#f1d4b3"><path d="M224.28807,208.06846c2.55966,1.44109 5.19484,2.4688 7.83898,3.51955c1.04819,0.34044 2.44449,-0.39291 3.19959,0.63992c1.05843,1.61835 1.06994,3.8171 0.95987,5.75925c-0.20861,3.66545 -0.08703,7.75963 -2.07973,10.87859c-0.85941,1.50829 -3.40628,1.01811 -5.11934,0.79989c-2.00166,-0.25405 -4.75906,-0.32508 -5.91923,-2.07973c-1.61708,-2.751 -1.16785,-6.39085 -1.27984,-9.59876c-0.14014,-4.00076 -0.21054,-8.10583 0.79989,-11.99844c0.16637,-0.97074 0.83382,1.64778 1.5998,2.07973z" data-paper-data="{&quot;origPos&quot;:null}" stroke="#c7af93" stroke-width="1.4" stroke-linecap="round"/><path d="M229.59938,202.94913c1.67722,0 3.19702,0.71734 4.29768,1.8756c1.10001,1.15826 1.78153,2.75805 1.78153,4.52357c0,1.76553 -0.68151,3.36533 -1.78153,4.52357c-1.10066,1.15826 -2.62045,1.8756 -4.29768,1.8756c-1.67722,0 -3.19702,-0.71734 -4.29768,-1.8756c-1.10001,-1.15826 -1.78153,-2.75805 -1.78153,-4.52357c0,-1.76553 0.68151,-3.36533 1.78153,-4.52357c1.10066,-1.15826 2.62045,-1.8756 4.29768,-1.8756z" data-paper-data="{&quot;origPos&quot;:null}" stroke="none" stroke-width="0" stroke-linecap="butt"/></g><g fill="none" stroke="none" stroke-width="1" stroke-linecap="butt" font-family="sans-serif" font-weight="normal" font-size="12" text-anchor="start"/></g><g stroke-width="1.4"><path d="M235.9985,225.6662l12.15843,5.11934l-0.63992,3.51955l-25.27672,0.31996l-2.55966,-1.5998l2.23971,-9.59876l0.95987,3.51955z" data-paper-data="{&quot;origPos&quot;:null}" fill="#2e2e2e" stroke="#000000" stroke-linecap="round"/><path d="M226.08954,226.47087v-4.65372h10.06717l1.91756,4.65372z" data-paper-data="{&quot;origPos&quot;:null,&quot;index&quot;:null}" fill="#8000ff" stroke="#5900b3" stroke-linecap="butt"/><path d="M247.61576,234.30506l-25.47148,0.31996l-2.46368,-1.5998l0.38117,-1.91975l27.90736,0.8319z" fill="#ffffff" stroke="#676767" stroke-linecap="round"/></g></g><g stroke-linecap="round"><path d="M225.11992,190.9805c2.55966,1.44109 5.19484,2.4688 7.83898,3.51955c1.04819,0.34044 2.44449,-0.39291 3.19959,0.63992c1.05843,1.61835 1.06994,3.8171 0.95987,5.75925c-0.20861,3.66545 -0.08703,7.75963 -2.07973,10.87859c-0.85941,1.50829 -3.73961,1.85144 -5.45267,1.63322c-2.00166,-0.25405 -5.75906,0.17492 -6.91923,-1.57973c-1.61708,-2.751 0.16548,-7.72418 0.05349,-10.93209c-0.14014,-4.00076 -0.21054,-8.10583 0.79989,-11.99844c0.16637,-0.97074 0.83382,1.64778 1.5998,2.07973z" data-paper-data="{&quot;origPos&quot;:null}" fill="#2e2e2e" stroke="#000000" stroke-width="1.4"/><path d="M230.39923,190.02063c1.35406,0.38843 2.9449,0.57336 3.95852,1.50061c1.01364,0.92661 1.64074,2.20643 1.64074,3.61873c0,1.4123 -0.62712,2.69214 -1.64074,3.61873c-1.01364,0.92723 -2.41376,1.50061 -3.95852,1.50061c-1.54476,0 -2.9449,-0.57336 -3.95852,-1.50061c-1.01364,-0.92661 -1.34319,-2.32929 -1.64074,-3.61873c-0.50937,-2.17124 -2.19364,-5.67991 -0.63992,-7.03908c1.24528,-1.19984 4.13642,1.30479 6.23919,1.91975z" data-paper-data="{&quot;origPos&quot;:null}" fill="#2e2e2e" stroke="#000000" stroke-width="0"/><path d="M226.06936,211.97068v-29.36131" fill="none" stroke="#8000ff" stroke-width="1.4"/><path d="M228.56936,181.73292v30.45687" fill="none" stroke="#8000ff" stroke-width="1.4"/></g></g><path d="M224.57736,155.81923c0.44987,-2.40225 2.8182,-2.12517 4.47942,-2.23971c5.40602,-0.359 10.76852,-0.35772 15.99793,0.63992c1.34574,0.26173 2.36129,-0.07935 2.55966,2.23971c0.79351,9.27688 1.54668,18.69326 0,27.83639c-0.26173,2.31073 -3.00058,2.32546 -4.79938,2.55966c-5.38426,0.69879 -10.85555,0.86582 -16.31788,0.31996c-1.27471,-0.22717 -3.02041,-0.16637 -3.19959,-2.55966c-0.71351,-9.56804 -0.51962,-19.18855 1.27984,-28.79627z" data-paper-data="{&quot;origPos&quot;:null}" fill="#8000ff" stroke="#5900b3" stroke-width="1.4" stroke-linecap="round"/><g stroke-linecap="round"><g fill="#f1d4b3"><path d="M214.01876,187.59112c0.12414,-0.17341 0.42682,0 0.63992,0c0.42619,0 0.85365,0 1.27984,0c0.42619,0 0.85686,-0.05311 1.27984,0c0.43579,0.05439 0.85108,0.22461 1.27984,0.31996c0.53049,0.11774 1.08466,0.14845 1.5998,0.31996c0.45178,0.15037 0.89204,0.36283 1.27984,0.63992c0.36796,0.26301 0.68855,0.59832 0.95987,0.95987c0.37307,0.49721 0.70775,1.03219 0.95987,1.5998c0.17854,0.40124 0.2131,0.85365 0.31996,1.27984c0.10686,0.42619 0.26556,0.84405 0.31996,1.27984c0.05311,0.42299 0.05311,0.85686 0,1.27984c-0.05439,0.43579 -0.03904,0.94261 -0.31996,1.27984c-0.30525,0.36604 -0.80309,0.63992 -1.27984,0.63992c-0.47674,0 -0.86325,-0.40826 -1.27984,-0.63992c-0.54329,-0.3014 -1.12562,-1.05459 -1.5998,-0.95987c-0.32571,0.06528 0.26621,0.94708 0,1.27984c-0.27452,0.343 -0.84086,0.31996 -1.27984,0.31996c-0.43899,0 -0.94261,-0.03904 -1.27984,-0.31996c-0.36604,-0.30525 -0.21372,-1.06674 -0.63992,-1.27984c-0.39291,-0.19645 -0.84405,0.26556 -1.27984,0.31996c-0.42299,0.05311 -0.86645,0.10366 -1.27984,0c-0.46203,-0.11582 -0.9746,-0.27389 -1.27984,-0.63992c-0.28092,-0.33723 -0.26556,-0.84405 -0.31996,-1.27984c-0.05311,-0.42299 -0.04736,-0.8562 0,-1.27984c0.06015,-0.5401 0.14845,-1.08466 0.31996,-1.5998c0.15037,-0.45178 0.44282,-0.84596 0.63992,-1.27984c0.33596,-0.73847 0.48826,-1.57931 0.95987,-1.91975z" data-paper-data="{&quot;origPos&quot;:null}" stroke="#c7af93" stroke-width="1.4"/><g><g stroke="#c7af93" stroke-width="1.4"><path d="M219.75566,168.82542c1.32507,0.4967 2.92179,1.04282 3.53241,2.39899c0.99405,2.47244 0.98694,5.42214 0.89377,8.16393c-0.09337,2.78331 -0.07538,5.99967 -1.33532,8.72482c-0.66821,1.08844 -2.46227,1.40942 -3.83119,1.49638c-1.99014,0.12568 -5.04241,0.76873 -5.94982,-1.04434c-1.44538,-2.76329 -0.44231,-6.22371 -0.02144,-9.28545c0.52607,-3.69514 0.99501,-7.90842 3.2159,-11.18715c0.52749,-1.00186 2.26312,0.28106 3.49567,0.73283z" data-paper-data="{&quot;origPos&quot;:null}"/></g><path d="M217.73026,185.67137c0.96884,0.29756 2.10341,0.43003 2.82715,1.12497c0.72438,0.69558 1.17233,1.65546 1.17233,2.71452c0,1.05906 -0.44794,2.01893 -1.17233,2.71452c-0.72375,0.69496 -1.72394,1.12497 -2.82715,1.12497c-1.10322,0 -2.10341,-0.43003 -2.82715,-1.12497c-0.72438,-0.69558 -1.25104,-1.73098 -1.17233,-2.71452c0.12607,-1.53772 0.76726,-3.1919 1.91975,-4.15946c0.48954,-0.60856 1.33166,0.09407 2.07973,0.31996z" data-paper-data="{&quot;origPos&quot;:null}" stroke="none" stroke-width="0"/></g></g><path d="M225.72985,154.33636c1.31375,0.51776 2.48159,1.86165 2.66296,3.33786c0.2168,2.65597 -0.66398,5.47117 -1.5653,8.0622c-0.91393,2.6307 -1.84974,5.70793 -3.86055,7.93741c-0.9607,0.84155 -2.73213,0.60716 -4.10251,0.29398c-1.42401,-0.32854 -3.38752,-1.18263 -3.58533,-2.54188c-0.23338,-3.11664 1.4601,-6.13501 2.48768,-8.85818c1.02138,-2.71312 1.80316,-5.73373 3.93907,-7.77434c0.84444,-1.04018 2.67275,-0.98381 4.024,-0.45703z" data-paper-data="{&quot;origPos&quot;:null}" fill="#8000ff" stroke="#5900b3" stroke-width="1.4"/></g></g></g></svg>