<svg version="1.1" xmlns="http://www.w3.org/2000/svg" xmlns:xlink="http://www.w3.org/1999/xlink" width="67.04822" height="143.64763" viewBox="0,0,67.04822,143.64763"><defs><linearGradient x1="240.68855" y1="188.20901" x2="240.68855" y2="213.56422" gradientUnits="userSpaceOnUse" id="color-1"><stop offset="0" stop-color="#72c4e4"/><stop offset="1" stop-color="#62a8c3"/></linearGradient><linearGradient x1="240.68855" y1="188.20901" x2="240.68855" y2="213.56422" gradientUnits="userSpaceOnUse" id="color-2"><stop offset="0" stop-color="#5a9ab4"/><stop offset="1" stop-color="#548fa7"/></linearGradient><linearGradient x1="240.83288" y1="187.30222" x2="240.83288" y2="199.78175" gradientUnits="userSpaceOnUse" id="color-3"><stop offset="0" stop-color="#80daff"/><stop offset="1" stop-color="#6bb7d5"/></linearGradient><linearGradient x1="229.67178" y1="188.49693" x2="229.67178" y2="213.28117" gradientUnits="userSpaceOnUse" id="color-4"><stop offset="0" stop-color="#72c4e4"/><stop offset="1" stop-color="#62a8c3"/></linearGradient><linearGradient x1="229.67178" y1="188.49693" x2="229.67178" y2="213.28117" gradientUnits="userSpaceOnUse" id="color-5"><stop offset="0" stop-color="#5a9ab4"/><stop offset="1" stop-color="#548fa7"/></linearGradient><linearGradient x1="229.85496" y1="187.59018" x2="229.85496" y2="200.06967" gradientUnits="userSpaceOnUse" id="color-6"><stop offset="0" stop-color="#80daff"/><stop offset="1" stop-color="#6bb7d5"/></linearGradient></defs><g transform="translate(-197.23334,-94.98212)"><g data-paper-data="{&quot;isPaintingLayer&quot;:true}" fill-rule="nonzero" stroke-linejoin="miter" stroke-miterlimit="10" stroke-dasharray="" stroke-dashoffset="0" style="mix-blend-mode: normal"><path d="M263.9111,231.79642c0,3.77394 -10.73415,6.83333 -23.97539,6.83333c-13.24124,0 -23.97539,-3.05938 -23.97539,-6.83333c0,-3.77394 10.73415,-6.83334 23.97539,-6.83334c13.24124,0 23.97539,3.05939 23.97539,6.83334z" fill-opacity="0.5" fill="#000000" stroke="#000000" stroke-width="0" stroke-linecap="butt"/><g stroke-linecap="round"><g fill="#e9d1bf" stroke="#bba899"><path d="M256.25311,188.03925c0.47162,0.34044 0.62393,1.18129 0.95987,1.91975c0.1971,0.43386 0.48954,0.82805 0.63992,1.27984c0.1715,0.51513 0.2598,1.0597 0.31996,1.5998c0.04736,0.42362 0.05311,0.85686 0,1.27984c-0.05439,0.43579 -0.03904,0.94261 -0.31996,1.27984c-0.30525,0.36604 -0.81782,0.5241 -1.27984,0.63992c-0.41338,0.10366 -0.85686,0.05311 -1.27984,0c-0.43579,-0.05439 -0.88692,-0.51641 -1.27984,-0.31996c-0.42619,0.2131 -0.27389,0.9746 -0.63992,1.27984c-0.33723,0.28092 -0.84086,0.31996 -1.27984,0.31996c-0.43899,0 -1.00531,0.02304 -1.27984,-0.31996c-0.26621,-0.33276 0.32571,-1.21456 0,-1.27984c-0.47417,-0.09471 -1.0565,0.65847 -1.5998,0.95987c-0.41658,0.23165 -0.80309,0.63992 -1.27984,0.63992c-0.47674,0 -0.9746,-0.27389 -1.27984,-0.63992c-0.28092,-0.33723 -0.26556,-0.84405 -0.31996,-1.27984c-0.05311,-0.42299 -0.05311,-0.85686 0,-1.27984c0.05439,-0.43579 0.2131,-0.85365 0.31996,-1.27984c0.10686,-0.42619 0.14141,-0.87861 0.31996,-1.27984c0.25213,-0.56761 0.58681,-1.10258 0.95987,-1.5998c0.27132,-0.36155 0.59193,-0.69687 0.95987,-0.95987c0.38779,-0.27709 0.82805,-0.48954 1.27984,-0.63992c0.51513,-0.1715 1.0693,-0.20222 1.5998,-0.31996c0.42875,-0.09535 0.84405,-0.26556 1.27984,-0.31996c0.42299,-0.05311 0.85365,0 1.27984,0c0.42619,0 0.85365,0 1.27984,0c0.2131,0 0.51578,-0.17341 0.63992,0z" data-paper-data="{&quot;origPos&quot;:null}" stroke-width="1.4"/><path d="M254.01204,168.22077c2.2209,3.27874 2.68983,7.49202 3.2159,11.18715c0.42087,3.06175 1.42395,6.52217 -0.02144,9.28545c-0.9074,1.81307 -3.95967,1.17002 -5.94982,1.04434c-1.36891,-0.08696 -3.16298,-0.40795 -3.83119,-1.49638c-1.25994,-2.72515 -1.24194,-5.9415 -1.33532,-8.72482c-0.09317,-2.74179 -0.10028,-5.69149 0.89377,-8.16393c0.61061,-1.35617 2.20734,-1.90228 3.53241,-2.39899c1.23254,-0.45178 2.9682,-1.73468 3.49567,-0.73283z" data-paper-data="{&quot;origPos&quot;:null}" stroke-width="1.4"/><path d="M254.62147,185.47961c1.1525,0.96756 1.79369,2.62173 1.91975,4.15946c0.07871,0.98355 -0.44794,2.01893 -1.17233,2.71452c-0.72375,0.69496 -1.72394,1.12497 -2.82715,1.12497c-1.10322,0 -2.10341,-0.43003 -2.82715,-1.12497c-0.72438,-0.69558 -1.17233,-1.65546 -1.17233,-2.71452c0,-1.05906 0.44794,-2.01893 1.17233,-2.71452c0.72375,-0.69496 1.85831,-0.82741 2.82715,-1.12497c0.74806,-0.22589 1.5902,-0.92852 2.07973,-0.31996z" data-paper-data="{&quot;origPos&quot;:null}" stroke-width="0"/></g><path d="M248.56613,154.92138c2.13592,2.04063 2.91769,5.06123 3.93907,7.77434c1.02758,2.72317 2.72106,5.74154 2.48768,8.85818c-0.1978,1.35924 -2.16133,2.21334 -3.58533,2.54188c-1.37038,0.31317 -3.1418,0.54758 -4.10251,-0.29398c-2.01081,-2.22947 -2.94663,-5.3067 -3.86055,-7.93741c-0.90132,-2.59103 -1.78211,-5.4062 -1.5653,-8.0622c0.18135,-1.47622 1.3492,-2.82012 2.66296,-3.33786c1.35125,-0.52678 3.17955,-0.58315 4.024,0.45703z" data-paper-data="{&quot;origPos&quot;:null}" fill="#addbff" stroke="#88acc7" stroke-width="1.4"/></g><path d="M235.93589,147.02042c1.89799,0 3.61745,0.7711 4.86274,2.01638c1.24528,1.24528 2.01638,2.96474 2.01638,4.86274c0,1.89799 -0.7711,3.61745 -2.01638,4.86274c-1.24528,1.24528 -2.96474,2.01638 -4.86274,2.01638c-1.89799,0 -3.61745,-0.7711 -4.86274,-2.01638c-1.24528,-1.24528 -2.01638,-2.96474 -2.01638,-4.86274c0,-1.89799 0.7711,-3.61745 2.01638,-4.86274c1.24528,-1.24528 2.96474,-2.01638 4.86274,-2.01638z" data-paper-data="{&quot;origPos&quot;:null}" fill="#e9d1bf" stroke="#bba899" stroke-width="1.4" stroke-linecap="butt"/><path d="M235.7759,103.28226c6.75305,0 12.87194,2.7606 17.30335,7.22081c4.43078,4.45958 7.17347,10.61878 7.17347,17.41598c0,6.79719 -2.74268,12.95639 -7.17347,17.41598c-4.43143,4.46021 -10.55031,7.22081 -17.30335,7.22081c-6.75305,0 -12.87194,-2.7606 -17.30335,-7.22081c-4.43078,-4.45958 -7.17347,-10.61878 -7.17347,-17.41598c0,-6.79719 2.74268,-12.95639 7.17347,-17.41598c4.43143,-4.46021 10.55031,-7.22081 17.30335,-7.22081z" data-paper-data="{&quot;index&quot;:null}" fill="#e9d1bf" stroke="#bba899" stroke-width="1.4" stroke-linecap="butt"/><path d="M244.93587,127.23937l2.3,-1.7" data-paper-data="{&quot;index&quot;:null}" fill="none" stroke="#424242" stroke-width="1.4" stroke-linecap="round"/><path d="M229.93587,127.23938l-2.3,-1.7" data-paper-data="{&quot;index&quot;:null}" fill="none" stroke="#424242" stroke-width="1.4" stroke-linecap="round"/><path d="M231.45156,123.75865c0.79479,0 1.51468,0.79798 2.03557,2.08677c0.52153,1.28815 0.84405,3.0684 0.84405,5.03231c0,1.96391 -0.32252,3.74416 -0.84405,5.03231c-0.5209,1.28879 -1.2408,2.08677 -2.03557,2.08677c-0.79479,0 -1.51468,-0.79798 -2.03557,-2.08677c-0.52153,-1.28815 -0.84405,-3.0684 -0.84405,-5.03231c0,-1.96391 0.32252,-3.74416 0.84405,-5.03231c0.5209,-1.28879 1.2408,-2.08677 2.03557,-2.08677z" data-paper-data="{&quot;index&quot;:null}" fill="#424242" stroke="none" stroke-width="1.4" stroke-linecap="butt"/><path d="M243.45003,123.75865c0.79479,0 1.51468,0.79798 2.03557,2.08677c0.52153,1.28815 0.84405,3.0684 0.84405,5.03231c0,1.96391 -0.32252,3.74416 -0.84405,5.03231c-0.5209,1.28879 -1.2408,2.08677 -2.03557,2.08677c-0.79479,0 -1.51468,-0.79798 -2.03557,-2.08677c-0.52153,-1.28815 -0.84405,-3.0684 -0.84405,-5.03231c0,-1.96391 0.32252,-3.74416 0.84405,-5.03231c0.5209,-1.28879 1.2408,-2.08677 2.03557,-2.08677z" data-paper-data="{&quot;index&quot;:null}" fill="#424242" stroke="none" stroke-width="1.4" stroke-linecap="butt"/><path d="M230.17176,142.6362c0,0 -0.64119,0.02111 -0.95987,0c-0.48121,-0.03199 -0.97907,-0.016 -1.43981,-0.15998c-0.4102,-0.12799 -0.77942,-0.3782 -1.11985,-0.63992c-0.35834,-0.2758 -0.77622,-0.54648 -0.95987,-0.95987c-0.26301,-0.59193 -0.31996,-1.91975 -0.31996,-1.91975" data-paper-data="{&quot;index&quot;:null}" fill="none" stroke="#9f8f83" stroke-width="1.4" stroke-linecap="round"/><path d="M242.80574,120.36616c0,0 0.64119,-0.02111 0.95987,0c0.48121,0.03199 0.97907,0.016 1.43981,0.15998c0.4102,0.12799 0.77942,0.3782 1.11985,0.63992c0.35834,0.2758 0.77622,0.54648 0.95987,0.95987c0.26301,0.59193 0.31996,1.91975 0.31996,1.91975" data-paper-data="{&quot;index&quot;:null}" fill="none" stroke="#9f8f83" stroke-width="1.4" stroke-linecap="round"/><path d="M226.67242,124.04569c0,0 0.05695,-1.32782 0.31996,-1.91975c0.18365,-0.41339 0.60153,-0.68407 0.95987,-0.95987c0.34043,-0.26172 0.70965,-0.51193 1.11985,-0.63992c0.46074,-0.14398 0.9586,-0.12799 1.43981,-0.15998c0.31868,-0.02111 0.95987,0 0.95987,0" data-paper-data="{&quot;index&quot;:null}" fill="none" stroke="#9f8f83" stroke-width="1.4" stroke-linecap="round"/><path d="M197.93334,108.00276c0,-6.77635 5.63005,-12.32064 12.51122,-12.32064c6.88117,0 12.51122,5.54429 12.51122,12.32064c0,6.77635 -5.63005,12.32064 -12.51122,12.32064c-6.88117,0.12321 -12.51122,-5.42108 -12.51122,-12.32064z" data-paper-data="{&quot;origPos&quot;:null}" fill="#35bcff" stroke="#298ec1" stroke-width="1.4" stroke-linecap="butt"/><g data-paper-data="{&quot;origPos&quot;:null}" fill="#35bcff" stroke="#298ec1" stroke-width="1.4" stroke-linecap="butt"><path d="M215.57418,104.92272c6.75606,-4.92825 20.14305,-8.87086 24.02154,-3.69619c3.87847,5.17466 -7.25651,21.93073 -13.88745,26.85898c-3.75337,2.71054 -1.12601,24.27165 -5.1296,26.48937c-3.75337,2.21772 -2.75247,-19.24757 -5.37982,-22.69735c0,0 -2.46027,2.50814 -2.94075,1.38091c-5.0558,-4.61375 -3.31486,-23.28426 3.31608,-28.33573z" data-paper-data="{&quot;origPos&quot;:null}"/><path d="M259.86388,152.11076c-3.87847,5.17466 -2.50225,-29.56952 -7.13139,-36.46908c-4.87938,-7.14597 -16.26458,-9.61009 -12.3861,-14.78477c3.87847,-5.17466 12.3861,0.49282 19.01705,5.42108c6.63094,4.92825 4.37893,40.6581 0.50045,45.83276z" data-paper-data="{&quot;origPos&quot;:null}"/></g><g stroke-width="1.4"><path d="M235.13595,179.6563c3.31029,0 6.30959,0.86069 8.4821,2.25059c2.17187,1.38991 3.51634,3.30965 3.51634,5.42842c0,2.11877 -1.34446,4.03851 -3.51634,5.42842c-2.17252,1.38991 -5.17181,2.25059 -8.4821,2.25059c-3.31029,0 -6.30959,-0.86069 -8.4821,-2.25059c-2.17187,-1.38991 -3.51634,-3.30965 -3.51634,-5.42842c0,-2.11877 1.34446,-4.03851 3.51634,-5.42842c2.17252,-1.38991 5.17181,-2.25059 8.4821,-2.25059z" data-paper-data="{&quot;origPos&quot;:null,&quot;index&quot;:null}" fill="#80daff" stroke="#5794ad" stroke-linecap="butt"/><path d="M224.57731,155.81936c0.44987,-2.40225 2.8182,-2.12517 4.47942,-2.23971c5.40602,-0.359 10.76852,-0.35772 15.99793,0.63992c1.34574,0.26173 2.36129,-0.07935 2.55966,2.23971c0.79351,9.27688 1.54668,18.69326 0,27.83639c-0.26173,2.31073 -3.00058,2.32546 -4.79938,2.55966c-5.38426,0.69879 -10.85555,0.86582 -16.31788,0.31996c-1.27471,-0.22717 -3.02041,-0.16637 -3.19959,-2.55966c-0.71351,-9.56804 -0.51962,-19.18855 1.27984,-28.79627z" data-paper-data="{&quot;origPos&quot;:null}" fill="#addbff" stroke="#88acc7" stroke-linecap="round"/><path d="M244.97827,164.75959v4.23134l-3.125,2.51866h-0.25l-3.125,-2.51866v-4.23134z" data-paper-data="{&quot;origPos&quot;:null,&quot;index&quot;:null}" fill="#90b6d4" stroke="#7c9db7" stroke-linecap="round"/></g><g><g fill="#e9d1bf" stroke="#bba899"><path d="M235.10401,207.78067c2.55966,1.44109 5.19484,2.4688 7.83898,3.51955c1.04819,0.34044 2.44449,-0.39291 3.19959,0.63992c1.05843,1.61835 1.06994,3.8171 0.95987,5.75925c-0.20861,3.66545 -0.08703,7.75963 -2.07973,10.87859c-0.85941,1.50829 -3.40628,1.01811 -5.11934,0.79989c-2.00166,-0.25405 -4.75906,-0.32508 -5.91923,-2.07973c-1.61708,-2.751 -1.16785,-6.39085 -1.27984,-9.59876c-0.14014,-4.00076 -0.21054,-8.10583 0.79989,-11.99844c0.16637,-0.97074 0.83382,1.64778 1.5998,2.07973z" data-paper-data="{&quot;origPos&quot;:null}" stroke-width="1.4" stroke-linecap="round"/><path d="M240.41532,202.66137c1.67722,0 3.19702,0.71734 4.29768,1.8756c1.10001,1.15826 1.78153,2.75805 1.78153,4.52357c0,1.76553 -0.68151,3.36533 -1.78153,4.52357c-1.10066,1.15826 -2.62045,1.8756 -4.29768,1.8756c-1.67722,0 -3.19702,-0.71734 -4.29768,-1.8756c-1.10001,-1.15826 -1.78153,-2.75805 -1.78153,-4.52357c0,-1.76553 0.68151,-3.36533 1.78153,-4.52357c1.10066,-1.15826 2.62045,-1.8756 4.29768,-1.8756z" data-paper-data="{&quot;origPos&quot;:null}" stroke-width="0" stroke-linecap="butt"/></g><g stroke-linecap="round"><path d="M247.0704,188.42319c1.01043,3.89261 0.94003,7.99769 0.79989,11.99844c-0.15438,4.42219 -0.18739,11.10111 -0.23675,11.19002c-1.40227,2.52565 -3.24241,1.95118 -6.12472,1.75739c-2.72309,-0.18309 -4.60576,0.3025 -5.95693,-2.0688c-1.9927,-3.11896 -1.87111,-7.21314 -2.07973,-10.87859c-0.11007,-1.94215 -0.09855,-4.14091 0.95987,-5.75925c0.7551,-1.03282 2.1514,-0.29948 3.19959,-0.63992c2.64414,-1.05074 5.27932,-2.07845 7.83898,-3.51955c0.76598,-0.43195 1.43342,-3.05048 1.5998,-2.07973z" data-paper-data="{&quot;origPos&quot;:null}" fill="url(#color-1)" stroke="url(#color-2)" stroke-width="1.4"/><path d="M246.43047,187.62332c1.55371,1.35919 -0.13054,4.86784 -0.63992,7.03908c-0.29756,1.28942 -0.62712,2.69214 -1.64074,3.61873c-1.01364,0.92723 -2.41376,1.50061 -3.95852,1.50061c-1.54476,0 -2.9449,-0.57336 -3.95852,-1.50061c-1.01364,-0.92661 -1.64074,-2.20643 -1.64074,-3.61873c0,-1.4123 0.62712,-2.69214 1.64074,-3.61873c1.01364,-0.92723 2.60445,-1.11217 3.95852,-1.50061c2.10277,-0.61496 4.99391,-3.11959 6.23919,-1.91975z" data-paper-data="{&quot;origPos&quot;:null}" fill="url(#color-3)" stroke="none" stroke-width="0"/></g><g stroke-width="1.4" stroke-linecap="round"><path d="M246.60454,225.38383l12.15843,5.11934l-0.63992,3.51955l-25.27672,0.31996l-2.55966,-1.5998l2.23971,-9.59876l0.95987,3.51955z" fill="#c7efff" stroke="#b2d6e4"/><path d="M258.30915,234.0227l-25.55881,0.31996l-2.46368,-1.5998l0.57593,-1.91975l27.84358,0.8319z" fill="#aac5e3" stroke="#93aac4"/></g></g><g><g><path d="M224.38541,208.06864c2.55966,1.44109 5.19484,2.4688 7.83898,3.51955c1.04819,0.34044 2.44449,-0.39291 3.19959,0.63992c1.05843,1.61835 1.06994,3.8171 0.95987,5.75925c-0.20861,3.66545 -0.08703,7.75963 -2.07973,10.87859c-0.85941,1.50829 -3.40628,1.01811 -5.11934,0.79989c-2.00166,-0.25405 -4.75906,-0.32508 -5.91923,-2.07973c-1.61708,-2.751 -1.16785,-6.39085 -1.27984,-9.59876c-0.14014,-4.00076 -0.21054,-8.10583 0.79989,-11.99844c0.16637,-0.97074 0.83382,1.64778 1.5998,2.07973z" data-paper-data="{&quot;origPos&quot;:null}" fill="#e9d1bf" stroke="#bba899" stroke-width="1.4" stroke-linecap="round"/><path d="M229.6967,202.94935c1.67722,0 3.19702,0.71734 4.29768,1.8756c1.10001,1.15826 1.78153,2.75805 1.78153,4.52357c0,1.76553 -0.68151,3.36533 -1.78153,4.52357c-1.10066,1.15826 -2.62045,1.8756 -4.29768,1.8756c-1.67722,0 -3.19702,-0.71734 -4.29768,-1.8756c-1.10001,-1.15826 -1.78153,-2.75805 -1.78153,-4.52357c0,-1.76553 0.68151,-3.36533 1.78153,-4.52357c1.10066,-1.15826 2.62045,-1.8756 4.29768,-1.8756z" data-paper-data="{&quot;origPos&quot;:null}" fill="#e9d1bf" stroke="#bba899" stroke-width="0" stroke-linecap="butt"/><g stroke-width="1.4" stroke-linecap="round"><path d="M236.09583,225.66639l12.15843,5.11934l-0.63992,3.51955l-25.27672,0.31996l-2.55966,-1.5998l2.23971,-9.59876l0.95987,3.51955z" data-paper-data="{&quot;origPos&quot;:null}" fill="#c7efff" stroke="#b2d6e4"/><path d="M247.80044,234.30523l-25.55881,0.31996l-2.46368,-1.5998l0.57593,-1.91975l27.84358,0.8319z" data-paper-data="{&quot;origPos&quot;:null}" fill="#aac5e3" stroke="#93aac4"/></g></g><g stroke-linecap="round"><path d="M225.21724,190.79085c2.55966,1.44109 5.19484,2.4688 7.83898,3.51955c1.04819,0.34044 2.44449,-0.39291 3.19959,0.63992c1.05843,1.61835 1.06994,3.8171 0.95987,5.75925c-0.20861,3.66545 -0.08703,7.75963 -2.07973,10.87859c-0.85941,1.50829 -3.73961,1.85144 -5.45267,1.63322c-2.00166,-0.25405 -5.75906,0.17492 -6.91923,-1.57973c-1.61708,-2.751 0.16548,-7.72418 0.05349,-10.93209c-0.14014,-4.00076 -0.21054,-8.10583 0.79989,-11.99844c0.16637,-0.97074 0.83382,1.64778 1.5998,2.07973z" data-paper-data="{&quot;origPos&quot;:null}" fill="url(#color-4)" stroke="url(#color-5)" stroke-width="1.4"/><path d="M230.49655,189.831c1.35406,0.38843 2.9449,0.57336 3.95852,1.50061c1.01364,0.92661 1.64074,2.20643 1.64074,3.61873c0,1.4123 -0.62712,2.69214 -1.64074,3.61873c-1.01364,0.92723 -2.41376,1.50061 -3.95852,1.50061c-1.54476,0 -2.9449,-0.57336 -3.95852,-1.50061c-1.01364,-0.92661 -1.34319,-2.32929 -1.64074,-3.61873c-0.50937,-2.17124 -2.19364,-5.67991 -0.63992,-7.03908c1.24528,-1.19984 4.13642,1.30479 6.23919,1.91975z" data-paper-data="{&quot;origPos&quot;:null}" fill="url(#color-6)" stroke="none" stroke-width="0"/></g></g><g stroke-linecap="round"><g fill="#e9d1bf" stroke="#bba899"><path d="M214.01871,187.59126c0.12414,-0.17341 0.42682,0 0.63992,0c0.42619,0 0.85365,0 1.27984,0c0.42619,0 0.85686,-0.05311 1.27984,0c0.43579,0.05439 0.85108,0.22461 1.27984,0.31996c0.53049,0.11774 1.08466,0.14845 1.5998,0.31996c0.45178,0.15037 0.89204,0.36283 1.27984,0.63992c0.36796,0.26301 0.68855,0.59832 0.95987,0.95987c0.37307,0.49721 0.70775,1.03219 0.95987,1.5998c0.17854,0.40124 0.2131,0.85365 0.31996,1.27984c0.10686,0.42619 0.26556,0.84405 0.31996,1.27984c0.05311,0.42299 0.05311,0.85686 0,1.27984c-0.05439,0.43579 -0.03904,0.94261 -0.31996,1.27984c-0.30525,0.36604 -0.80309,0.63992 -1.27984,0.63992c-0.47674,0 -0.86325,-0.40826 -1.27984,-0.63992c-0.54329,-0.3014 -1.12562,-1.05459 -1.5998,-0.95987c-0.32571,0.06528 0.26621,0.94708 0,1.27984c-0.27452,0.343 -0.84086,0.31996 -1.27984,0.31996c-0.43899,0 -0.94261,-0.03904 -1.27984,-0.31996c-0.36604,-0.30525 -0.21372,-1.06674 -0.63992,-1.27984c-0.39291,-0.19645 -0.84405,0.26556 -1.27984,0.31996c-0.42299,0.05311 -0.86645,0.10366 -1.27984,0c-0.46203,-0.11582 -0.9746,-0.27389 -1.27984,-0.63992c-0.28092,-0.33723 -0.26556,-0.84405 -0.31996,-1.27984c-0.05311,-0.42299 -0.04736,-0.8562 0,-1.27984c0.06015,-0.5401 0.14845,-1.08466 0.31996,-1.5998c0.15037,-0.45178 0.44282,-0.84596 0.63992,-1.27984c0.33596,-0.73847 0.48826,-1.57931 0.95987,-1.91975z" data-paper-data="{&quot;origPos&quot;:null}" stroke-width="1.4"/><g><g stroke-width="1.4"><path d="M219.75561,168.82555c1.32507,0.4967 2.92179,1.04282 3.53241,2.39899c0.99405,2.47244 0.98694,5.42214 0.89377,8.16393c-0.09337,2.78331 -0.07538,5.99967 -1.33532,8.72482c-0.66821,1.08844 -2.46227,1.40942 -3.83119,1.49638c-1.99014,0.12568 -5.04241,0.76873 -5.94982,-1.04434c-1.44538,-2.76329 -0.44231,-6.22371 -0.02144,-9.28545c0.52607,-3.69514 0.99501,-7.90842 3.2159,-11.18715c0.52749,-1.00186 2.26312,0.28106 3.49567,0.73283z" data-paper-data="{&quot;origPos&quot;:null}"/></g><path d="M217.73021,185.67152c0.96884,0.29756 2.10341,0.43003 2.82715,1.12497c0.72438,0.69558 1.17233,1.65546 1.17233,2.71452c0,1.05906 -0.44794,2.01893 -1.17233,2.71452c-0.72375,0.69496 -1.72394,1.12497 -2.82715,1.12497c-1.10322,0 -2.10341,-0.43003 -2.82715,-1.12497c-0.72438,-0.69558 -1.25104,-1.73098 -1.17233,-2.71452c0.12607,-1.53772 0.76726,-3.1919 1.91975,-4.15946c0.48954,-0.60856 1.33166,0.09407 2.07973,0.31996z" data-paper-data="{&quot;origPos&quot;:null}" stroke-width="0"/></g></g><path d="M225.72981,154.33641c1.31375,0.51776 2.48159,1.86165 2.66296,3.33786c0.2168,2.65597 -0.66398,5.47117 -1.5653,8.0622c-0.91393,2.6307 -1.84974,5.70793 -3.86055,7.93741c-0.9607,0.84155 -2.73213,0.60716 -4.10251,0.29398c-1.42401,-0.32854 -3.38752,-1.18263 -3.58533,-2.54188c-0.23338,-3.11664 1.4601,-6.13501 2.48768,-8.85818c1.02138,-2.71312 1.80316,-5.73373 3.93907,-7.77434c0.84444,-1.04018 2.67275,-0.98381 4.024,-0.45703z" data-paper-data="{&quot;origPos&quot;:null}" fill="#addbff" stroke="#88acc7" stroke-width="1.4"/></g></g></g></svg>