<svg xmlns="http://www.w3.org/2000/svg" xmlns:xlink="http://www.w3.org/1999/xlink" version="1.1" width="237.26228537984042" height="187.2508565468326" viewBox="-1.672810151315467 3.030312464498742 237.26228537984042 187.2508565468326">
  <!-- Exported by Scratch - http://scratch.mit.edu/ -->
  <g id="ID0.6641542864963412">
    <path id="ID0.40426521049812436" fill="#690002" stroke="none" stroke-linecap="round" d="M 42.9312 66.4249 C 89.7454 64.0622 136.4258 49.1578 183.0974 53.488 C 200.0761 55.0661 224.8087 65.4114 224.8147 82.0276 C 224.8087 112.1573 205.3484 142.2304 183.0974 161.6848 C 163.7708 178.5744 138.1347 184.1141 109.3543 184.1141 C 80.574 184.1141 54.4951 175.5401 35.6113 161.6848 C 16.7275 147.8326 9.5414 127.7808 5.0388 107.5864 C 1.6865 92.5364 2.4711 73.4743 12.7659 62.2641 C 19.7114 54.751 31.2277 67.0163 42.9312 66.4249 Z " stroke-width="2.971951484680176"/>
    <path id="ID0.7295714053325355" fill="#8B0002" stroke="none" stroke-linecap="round" d="M 191.9751 65.6213 C 193.2797 63.6211 195.5592 64.9645 197.919 65.6213 C 207.3103 68.2752 221.6827 65.4905 225.8553 74.5371 C 231.2613 86.2852 224.0543 100.9429 218.7226 112.7267 C 211.8485 127.8777 204.5524 143.1625 191.6779 152.848 C 172.1551 167.5354 149.1938 181.7651 124.5118 184.0535 C 113.1143 185.0491 104.2936 171.0364 98.0911 161.3686 C 96.1207 158.0163 100.54 155.2524 101.3305 152.1051 C 101.5326 151.3115 99.3304 151.2729 99.8446 150.9163 C 102.9443 149.7721 106.475 149.9682 109.2062 148.8359 C 117.4237 145.4182 126.0631 142.1312 133.4276 137.5425 C 143.0597 131.5392 152.7691 125.2356 160.7696 117.1846 C 168.7166 109.1841 175.0736 99.4064 180.9788 89.6941 C 185.6507 81.9759 186.896 72.6915 191.9751 65.6213 Z " stroke-width="2.971951484680176"/>
    <path id="ID0.1919293338432908" fill="#F37070" stroke="none" stroke-linecap="round" d="M 79.6867 130.3 C 88.4629 133.9763 96.817 139.519 103.0165 146.7943 C 111.1775 156.37 117.2967 167.7941 121.4426 179.783 C 122.4798 182.7787 118.7381 181.5008 114.9043 181.8634 C 99.572 183.3077 83.9039 187.2485 68.8391 184.2409 C 55.4415 181.8277 42.998 174.5583 32.2841 166.112 C 23.6743 159.3865 17.6175 149.7574 12.0748 140.256 C 10.6899 137.8814 12.0986 136.1934 13.858 135.3523 C 20.5686 132.1604 26.1767 130.6685 32.5813 129.2598 C 39.7437 127.6906 47.3103 126.374 54.8709 126.5851 C 63.1418 126.7247 71.8378 127.013 79.6867 130.3 Z " stroke-width="2.971951484680176"/>
    <g id="ID0.4405666505917907">
      <path id="ID0.13184536714106798" fill="#FFFFFF" stroke="none" stroke-linecap="round" d="M 68.0839 34.3801 C 104.3981 41.6405 141.1314 45.5546 177.7489 43.8903 C 194.0827 43.1473 210.7999 21.1697 223.8141 27.9904 C 234.5755 33.2804 230.7061 55.8851 225.3001 68.1117 C 222.5659 74.2666 212.3988 70.3674 205.9824 70.3407 C 203.4533 70.3407 204.113 69.3064 197.8095 69.1519 C 172.6104 68.5248 147.6816 68.7239 122.7678 68.5575 C 94.3589 67.8977 65.8876 69.4491 37.6867 66.6673 C 29.713 65.8798 16.152 66.4979 15.0345 58.7501 C 13.1414 42.8293 17.0763 19.7699 30.9345 13.5764 C 43.4761 7.9802 54.1811 31.6042 68.0839 34.3801 Z " stroke-width="2.971951484680176"/>
      <g id="ID0.0970809068530798">
        <path id="ID0.4394450536929071" fill="none" stroke="#000000" stroke-width="9.874574808551344" stroke-linecap="round" d="M 224.2427 25.6496 L 227.5807 41.3849 L 230.5849 70.5845 L 226.4124 98.4863 L 215.564 121.6837 L 202.212 139.8524 L 184.1869 157.3721 L 168.4984 168.8897 L 153.6443 175.5408 L 139.1241 180.7318 L 121.5997 184.1384 L 98.2338 185.2739 L 77.7051 182.1918 L 61.5159 177.4874 L 47.6633 171.4853 L 34.6451 161.4276 L 24.965 151.37 L 15.4517 136.9324 L 10.1109 123.9548 L 7.7743 112.275 L 5.6046 97.0263 L 6.1053 87.942 L 7.7743 71.72 L 11.9468 52.7403 L 17.2876 36.0316 L 23.1291 19.9719 L 30.3057 7.9676 L 38.6507 16.2408 L 51.0012 24.0274 L 62.0166 30.5162 L 75.0347 36.5183 L 96.231 42.5204 L 123.4356 46.7381 L 141.7945 46.7381 L 164.159 45.4404 L 184.6876 41.3849 L 208.888 34.085 L 224.2427 25.6496 Z "/>
        <path id="ID0.04005338391289115" fill="none" stroke="#000000" stroke-width="8.915854454040527" stroke-linecap="round" d="M 9.1847 63.7866 L 229.8521 71.9595 "/>
      </g>
    </g>
  </g>
</svg>