<svg version="1.1" xmlns="http://www.w3.org/2000/svg" xmlns:xlink="http://www.w3.org/1999/xlink" width="168.50942" height="358.14447" viewBox="0,0,168.50942,358.14447"><g transform="translate(-156.99254,-0.47793)"><g data-paper-data="{&quot;isPaintingLayer&quot;:true}" fill-rule="nonzero" stroke-linejoin="miter" stroke-miterlimit="10" stroke-dasharray="" stroke-dashoffset="0" style="mix-blend-mode: normal"><path d="M284.4111,348.79642c0,5.42674 -15.43516,9.82598 -34.47539,9.82598c-19.04023,0 -34.47539,-4.39924 -34.47539,-9.82598c0,-5.42674 15.43516,-9.82599 34.47539,-9.82599c19.04023,0 34.47539,4.39925 34.47539,9.82599z" fill-opacity="0.5" fill="#000000" stroke="#000000" stroke-width="0" stroke-linecap="butt"/><g data-paper-data="{&quot;index&quot;:null}" stroke-width="2" stroke-linecap="butt"><path d="M266.83805,193.33327c-0.00827,-10.86023 -3.01096,-27.49465 -3.01096,-27.49465c0.05669,-2.60037 8.82394,0.28105 8.82394,0.28105c6.50237,0 12.44025,71.27121 12.44025,77.77358c0,6.50237 -2.93788,11.77358 -9.44025,11.77358c-6.50237,0 -11.77358,-5.27121 -11.77358,-11.77358c0,-6.50237 2.97553,-30.95839 2.9606,-50.55998z" data-paper-data="{&quot;origPos&quot;:null}" fill="#ffe9bf" stroke="#e5d1ab"/><path d="M281.1905,190.69897c-5.71452,-0.06983 -11.30422,0.59648 -14.27506,0.75808c-0.00713,0.00037 -0.01424,0.00076 -0.02141,0.00115c-1.09876,-13.1986 -3.99932,-13.50472 -5.64654,-23.00505c-0.84455,-4.871 5.22017,-7.76622 5.22017,-7.76622c8.05498,-0.16961 13.17895,12.68827 14.72284,30.01202z" data-paper-data="{&quot;origPos&quot;:null}" fill="#c896fa" stroke="#b084db"/></g><g data-paper-data="{&quot;origPos&quot;:null}" stroke-width="2"><path d="M272.00011,269.42184c0,14.40861 -1.45079,57.35861 -7.08536,71.13484c-2.24437,5.48736 -2.6121,4.64428 -10.16873,3.70508c-2.62161,-0.32583 -3.12336,-0.3984 -5.7808,-5.64322c-4.71123,-9.29825 -5.78488,-41.91623 -5.78488,-74.193c0,-32.27677 -0.48922,-23.47187 12.78488,-23.47187c13.2741,0 16.03489,-3.8086 16.03489,28.46817z" data-paper-data="{&quot;origPos&quot;:null}" fill="#ffe9bf" stroke="#e5d1ab" stroke-linecap="butt"/><path d="M268.45729,354.42821c-22.26587,2.85449 -22.47397,-21.59485 -22.47397,-21.59485c0,0 7.28347,1.66412 11.51855,1.02244c4.3507,-0.65919 10.48145,-3.02244 10.48145,-3.02244c0,0 29.24856,15.63911 0.47397,23.59485z" data-paper-data="{&quot;origPos&quot;:null}" fill="#343434" stroke="#1b1b1b" stroke-linecap="round"/><path d="M271.44995,287.20003c0,0 -8.4089,-1.42775 -13.407,-1.3175c-5.61705,0.1239 -14.593,2.7175 -14.593,2.7175c0,0 -9.84477,-52.46109 13.80432,-53.31356c21.4818,-0.41201 14.19567,51.91355 14.19567,51.91355z" data-paper-data="{&quot;origPos&quot;:null}" fill="#31357a" stroke="#1e224a" stroke-linecap="round"/></g><g data-paper-data="{&quot;origPos&quot;:null}" stroke-width="2"><path d="M243.6668,269.75515c0,14.40861 -1.45079,57.35861 -7.08536,71.13484c-2.24437,5.48736 -2.6121,4.64428 -10.16873,3.70508c-2.62161,-0.32583 -3.12336,-0.3984 -5.7808,-5.64322c-4.71123,-9.29825 -5.78488,-41.91623 -5.78488,-74.193c0,-32.27677 -0.48922,-23.47187 12.78488,-23.47187c13.2741,0 16.03489,-3.8086 16.03489,28.46817z" data-paper-data="{&quot;origPos&quot;:null}" fill="#ffe9bf" stroke="#e5d1ab" stroke-linecap="butt"/><path d="M240.12396,354.76155c-22.26587,2.85449 -22.47397,-21.59485 -22.47397,-21.59485c0,0 7.28347,1.66412 11.51855,1.02244c4.3507,-0.65919 10.48145,-3.02244 10.48145,-3.02244c0,0 29.24856,15.63911 0.47397,23.59485z" data-paper-data="{&quot;origPos&quot;:null}" fill="#343434" stroke="#1b1b1b" stroke-linecap="round"/><path d="M243.11665,287.53334c0,0 -8.4089,-1.42775 -13.407,-1.3175c-5.61705,0.1239 -14.593,2.7175 -14.593,2.7175c0,0 -9.84476,-52.46109 13.80433,-53.31355c21.4818,-0.41201 14.19567,51.91355 14.19567,51.91355z" data-paper-data="{&quot;origPos&quot;:null}" fill="#31357a" stroke="#1e224a" stroke-linecap="round"/></g><g stroke-linecap="butt"><path d="M273.89905,165.9294c1.67884,13.80563 -4.28045,22.64694 -4.74842,36.80875c-0.32941,9.96856 0.59491,15.66246 -0.89226,25.54156c-0.44331,2.94497 6.79158,30.5566 -0.52361,30.60923c-10.94753,0.07877 -24.28455,0.0941 -35.22567,-0.25904c-5.73291,-0.18504 -11.76157,0.24617 -16.93872,-2.02402c-3.21872,-1.41142 -3.42414,-17.36558 -0.03417,-27.89468c3.16225,-9.82181 1.61962,-16.32637 2.47223,-26.53898c1.14342,-13.6961 -5.37373,-31.26132 0.61023,-43.80521c2.9178,-6.11643 21.18389,-1.37321 28.45174,-1.37321c10.57753,0 29.64918,-2.29724 26.82864,8.9356z" data-paper-data="{&quot;origPos&quot;:null}" fill="#c896fa" stroke="#b084db" stroke-width="2"/><path d="M243.84483,179.21577c-5.68853,0 -10.3,-3.89512 -10.3,-8.7c0,-4.80488 4.61146,-8.7 10.3,-8.7c5.68854,0 10.3,3.89512 10.3,8.7c0,4.80487 -4.61146,8.7 -10.3,8.7z" data-paper-data="{&quot;origPos&quot;:null}" fill="#ffe9bf" stroke="#e5d1ab" stroke-width="2"/><g><path d="M255.61002,222.53135c-2.64803,1.59922 -10.42814,-6.66694 -10.42814,-6.66694c0,0 -9.06572,6.83934 -11.40647,4.81429c-2.34276,-2.02497 3.11748,-11.98171 3.11748,-11.98171c0,0 -9.30457,-6.50905 -8.10208,-9.36061c1.20251,-2.85373 12.35764,-0.73732 12.35764,-0.73732c0,0 3.3127,-10.86016 6.39688,-10.60053c3.08839,0.26167 4.5235,11.52684 4.5235,11.52684c0,0 11.35243,-0.20562 12.05444,2.81002c0.70822,3.01363 -9.5621,7.86114 -9.5621,7.86114c0,0 3.70314,10.7356 1.04881,12.33482z" fill="#ffbd00" stroke="#a29800" stroke-width="1"/><path d="M250.45306,214.65361c-1.33337,0.80377 -5.24422,-3.35212 -5.24422,-3.35212c0,0 -4.55464,3.43729 -5.7302,2.41959c-1.17549,-1.01767 1.566,-6.01887 1.566,-6.01887c0,0 -4.673,-3.27328 -4.07075,-4.70421c0.60444,-1.43312 6.20789,-0.3697 6.20789,-0.3697c0,0 1.66575,-5.45815 3.21716,-5.32518c1.5494,0.13078 2.268,5.79045 2.268,5.79045c0,0 5.70738,-0.10184 6.0604,1.41224c0.35729,1.51617 -4.80177,3.95027 -4.80177,3.95027c0,0 1.85676,5.39379 0.52751,6.19756z" fill="#d79e00" stroke="none" stroke-width="2.57572"/></g></g><g data-paper-data="{&quot;origPos&quot;:null}" stroke="#1e224a" stroke-width="2" stroke-linecap="round"><path d="M213.56664,259.83337l0.25,-13.5c0,0 17.54557,4.22728 29.25567,4.53276c10.73002,0.27991 28.24433,-3.03276 28.24433,-3.03276c0,0 0.59087,5.02789 0.80905,8.246c0.17209,2.53827 0.19095,6.504 0.19095,6.504" data-paper-data="{&quot;origPos&quot;:null}" fill="#31357a"/><path d="M252.56664,259.83337c0,0 -4.57189,1.90426 -7.97817,2.00299c-3.32576,0.0964 -9.27183,-1.50299 -9.27183,-1.50299" data-paper-data="{&quot;origPos&quot;:null}" fill="none"/></g><g stroke-width="2" stroke-linecap="butt"><path d="M223.71399,244.55991c0,6.50237 -5.27121,11.77358 -11.77358,11.77358c-6.50237,0 -9.44025,-5.27121 -9.44025,-11.77358c0,-6.50237 5.93788,-77.77358 12.44025,-77.77358c0,0 8.76725,-2.88142 8.82394,-0.28105c0,0 -3.00269,16.63442 -3.01096,27.49465c-0.01493,19.60159 2.9606,44.05761 2.9606,50.55998z" data-paper-data="{&quot;origPos&quot;:null}" fill="#ffe9bf" stroke="#e5d1ab"/><path d="M206.40093,191.36561c1.54389,-17.32375 6.66786,-30.18163 14.72284,-30.01202c0,0 6.06472,2.89522 5.22017,7.76622c-1.64722,9.50033 -4.54778,9.80645 -5.64654,23.00505c-0.00717,-0.00039 -0.01428,-0.00078 -0.02141,-0.00115c-2.97084,-0.1616 -8.56054,-0.82791 -14.27506,-0.75808z" data-paper-data="{&quot;origPos&quot;:null}" fill="#c896fa" stroke="#b084db"/></g><path d="M322.86678,83.33345c0,44.73506 -36.26494,81 -81,81c-44.73506,0 -81,-36.26494 -81,-81c0,-44.73506 36.26494,-81 81,-81c44.73506,0 81,36.26494 81,81z" data-paper-data="{&quot;origPos&quot;:null,&quot;index&quot;:null}" fill="#ffe9bf" stroke="#e5d1ab" stroke-width="2" stroke-linecap="butt"/><path d="M228.54084,72.27704c13.43964,0 24.33461,12.4241 24.33461,27.75c0,15.3259 -10.89498,27.75 -24.33461,27.75c-13.43964,0 -24.33462,-12.4241 -24.33462,-27.75c0,-15.3259 10.89498,-27.75 24.33462,-27.75z" data-paper-data="{&quot;origPos&quot;:null}" fill="#e5d1ab" stroke="#e5d1ab" stroke-width="2.5" stroke-linecap="butt"/><path d="M308.4916,99.5271c0,15.3259 -10.89498,27.75 -24.33462,27.75c-13.43963,0 -24.33461,-12.4241 -24.33461,-27.75c0,-15.3259 10.89497,-27.75 24.33461,-27.75c13.43964,0 24.33462,12.4241 24.33462,27.75z" data-paper-data="{&quot;origPos&quot;:null}" fill="#e5d1ab" stroke="#e5d1ab" stroke-width="2.5" stroke-linecap="butt"/><path d="M229.21646,141.55406c0,0 -6.53595,1.26193 -9.5672,0.78953c-2.9788,-0.46423 -7.6328,-2.98953 -7.6328,-2.98953" data-paper-data="{&quot;origPos&quot;:null}" fill="none" stroke="#000000" stroke-width="2" stroke-linecap="round"/><path d="M182.50003,140c-0.31915,-2.70513 -25,-22.9888 -24.5,-56.5c0.3249,-21.77537 2.55843,-35.14767 15.97761,-52.29987c4.83737,-6.18305 8.04344,-9.28771 14.02202,-14.37562c11.29917,-9.61587 22.16339,-13.82451 37.00037,-13.82451c0,0 15.56998,-2.05253 28.07362,-1.39057c9.66503,0.51168 17.31396,2.62477 27.40898,6.85708c0,0 14.70907,8.17426 24.91679,20.19433c4.68644,5.51851 7.21085,11.95286 11.6821,24.4617c0,0 7.82519,17.36856 7.40402,29.75797c-0.57349,16.86997 -10.68558,40.1416 -9.40194,33.23923c1.84951,-9.94515 -3.94172,-78.26406 -27.39586,-63.26367c-3.24694,2.07662 -15.75356,12.07672 -19.58835,12.46318c-7.98144,0.80436 -13.52437,-22.59031 -19.23151,-16.95303c-12.89463,12.7368 -4.81109,8.82882 -18.81606,20.33355c-2.8391,2.33225 -12.87676,-16.71984 -15.98403,-14.75903c-4.95329,3.12573 -12.12037,23.27677 -17.68536,25.1033c-5.44957,1.78865 -10.64174,-11.91461 -14.71575,-7.87736c0,0 -3.26027,18.33959 -1.86018,34.39381c1.06626,12.22633 15.60522,40.93951 2.69353,34.43951z" data-paper-data="{&quot;origPos&quot;:null}" fill="#ad5600" stroke="#934a00" stroke-width="2" stroke-linecap="butt"/></g></g></svg>