<svg xmlns="http://www.w3.org/2000/svg" xmlns:xlink="http://www.w3.org/1999/xlink" version="1.1" width="195.97148305107223" height="160.52807789970504" viewBox="0.27385768329567384 0.9382577840036816 195.97148305107223 160.52807789970504">
  <!-- Exported by Scratch - http://scratch.mit.edu/ -->
  <g id="ID0.041586676612496376">
    <path id="ID0.6938288141973317" fill="none" stroke="#000000" stroke-width="12.335084735642539" stroke-linecap="round" d="M 7.9833 7.1058 L 26.7943 12.2454 L 42.6243 21.1884 L 53.212 32.0843 L 61.4353 44.1111 L 66.2666 53.3624 L 69.6587 61.2774 L 70.995 74.4348 L 71.4062 86.2559 L 67.6029 104.7586 L 61.7437 116.5797 L 55.7818 124.8031 L 43.6523 137.3437 L 32.6535 144.8476 L 19.8044 151.0151 L 6.4414 153.5849 "/>
    <path id="ID0.6938288141973317" fill="none" stroke="#000000" stroke-width="11.119879427273336" stroke-linecap="round" d="M 189.091 37.3419 L 179.321 38.9802 L 164.4194 44.4987 L 155.1429 52.5177 L 145.373 64.0719 L 141.4255 73.4705 L 138.1689 80.1099 L 136.886 91.1468 L 136.4912 101.0628 L 140.1426 116.5835 L 145.7677 126.4994 L 149.5178 132.8801 L 160.2746 143.7446 L 175.1762 151.6774 L 190.0778 155.2988 "/>
    <path id="ID0.8020611428655684" fill="none" stroke="#FF0000" stroke-width="12.335084735642539" stroke-linecap="round" d="M 100.8048 153.6877 L 100.8048 153.6877 Z "/>
    <path id="ID0.5592617676593363" fill="none" stroke="#000000" stroke-width="12.335084735642539" stroke-linecap="round" d="M 72.2208 97.4438 C 72.2208 97.4438 83.2833 106.4813 89.6955 109.3677 C 94.389 111.4708 99.5842 111.7545 104.6004 111.8347 C 108.2475 112.0999 111.872 111.183 115.3936 110.3956 C 118.1628 109.7768 120.5579 108.8866 122.7947 107.723 C 126.9105 105.7946 134.4102 101.1443 134.4102 101.1443 "/>
  </g>
</svg>