<svg version="1.1" xmlns="http://www.w3.org/2000/svg" xmlns:xlink="http://www.w3.org/1999/xlink" width="93.95005" height="142.1797" viewBox="0,0,93.95005,142.1797"><defs><radialGradient cx="227.25036" cy="111.99769" r="22.6417" gradientUnits="userSpaceOnUse" id="color-1"><stop offset="0" stop-color="#5e2ccf"/><stop offset="1" stop-color="#26008e"/></radialGradient><radialGradient cx="225.14204" cy="120.43098" r="22.6417" gradientUnits="userSpaceOnUse" id="color-2"><stop offset="0" stop-color="#45219b"/><stop offset="1" stop-color="#18005b"/></radialGradient><radialGradient cx="217.64578" cy="119.49395" r="14.38606" gradientUnits="userSpaceOnUse" id="color-3"><stop offset="0" stop-color="#5e2ccf"/><stop offset="1" stop-color="#26008e"/></radialGradient><radialGradient cx="223.03372" cy="120.66524" r="14.38606" gradientUnits="userSpaceOnUse" id="color-4"><stop offset="0" stop-color="#45219b"/><stop offset="1" stop-color="#18005b"/></radialGradient><radialGradient cx="221.62817" cy="114.57453" r="5.73453" gradientUnits="userSpaceOnUse" id="color-5"><stop offset="0" stop-color="#5e2ccf"/><stop offset="1" stop-color="#26008e"/></radialGradient></defs><g transform="translate(-189.66163,-96.45005)"><g data-paper-data="{&quot;isPaintingLayer&quot;:true}" fill-rule="nonzero" stroke-linejoin="miter" stroke-miterlimit="10" stroke-dasharray="" stroke-dashoffset="0" style="mix-blend-mode: normal"><path d="M263.9111,231.79642c0,3.77395 -10.73415,6.83333 -23.97539,6.83333c-13.24124,0 -23.97539,-3.05939 -23.97539,-6.83333c0,-3.77395 10.73415,-6.83333 23.97539,-6.83333c13.24124,0 23.97539,3.05939 23.97539,6.83333z" fill-opacity="0.5" fill="#000000" stroke="#000000" stroke-width="0" stroke-linecap="butt"/><g data-paper-data="{&quot;index&quot;:null}" stroke-linecap="round"><g fill="#f1d4b3"><path d="M271.6869,176.52602c-0.13328,-0.16648 0.11566,-0.41085 0.17341,-0.61598c0.11549,-0.41025 0.23132,-0.82171 0.34682,-1.23195c0.11549,-0.41025 0.18107,-0.83918 0.34682,-1.23195c0.17045,-0.40474 0.44683,-0.75839 0.6548,-1.14525c0.25709,-0.47875 0.43683,-1.00386 0.74151,-1.45325c0.26719,-0.39414 0.59097,-0.76035 0.96279,-1.05855c0.35286,-0.28291 0.76252,-0.50067 1.18406,-0.66385c0.57971,-0.22436 1.18537,-0.40157 1.80006,-0.49044c0.4346,-0.06313 0.87946,0.02619 1.31866,0.03882c0.43921,0.01263 0.88443,-0.02692 1.31866,0.03882c0.42153,0.0635 0.83918,0.18107 1.23195,0.34682c0.40474,0.17045 0.89677,0.29301 1.14525,0.6548c0.26963,0.39301 0.39836,0.94647 0.26916,1.40535c-0.12918,0.45889 -0.62691,0.72033 -0.96279,1.05855c-0.43733,0.4413 -1.32013,0.79773 -1.35747,1.27986c-0.02542,0.3312 0.98377,0.00038 1.23195,0.34682c0.25578,0.3572 0.08014,0.89609 -0.03882,1.31866c-0.11897,0.42256 -0.29301,0.89677 -0.6548,1.14525c-0.39301,0.26963 -1.08473,-0.08332 -1.40535,0.26916c-0.29556,0.32498 0.02692,0.88443 -0.03882,1.31866c-0.0635,0.42153 -0.13501,0.86212 -0.34682,1.23195c-0.23668,0.41334 -0.52771,0.86391 -0.96279,1.05855c-0.40074,0.17902 -0.88443,0.02692 -1.31866,-0.03882c-0.42153,-0.0635 -0.83701,-0.18642 -1.23195,-0.34682c-0.50361,-0.20425 -1.00386,-0.43683 -1.45325,-0.74151c-0.39414,-0.26719 -0.69434,-0.65549 -1.05855,-0.96279c-0.61979,-0.52347 -1.38792,-0.89794 -1.58782,-1.44418z" data-paper-data="{&quot;origPos&quot;:null}" stroke="#c7af93" stroke-width="1.4"/><path d="M253.52516,169.0852c-0.82142,-0.77922 0.88379,-2.10228 1.65267,-3.1663c0.8372,-1.14088 1.79556,-2.52991 3.26642,-2.75018c2.64929,-0.28688 5.48672,0.51925 8.10068,1.35192c2.65389,0.84411 5.75478,1.69834 8.03655,3.64958c0.86663,0.93814 0.68946,2.75209 0.40223,4.09333c-0.41831,1.94975 -0.6264,5.06206 -2.61754,5.44422c-3.05157,0.64253 -6.1107,-1.26073 -8.94386,-2.4955c-3.41432,-1.50768 -7.34289,-3.10076 -9.89716,-6.12702z" data-paper-data="{&quot;origPos&quot;:null}" stroke="#c7af93" stroke-width="1.4"/><path d="M269.97313,174.34863c-0.45314,-0.63612 0.45139,-1.25637 0.87156,-1.91522c0.54896,-0.85195 0.9839,-1.90818 1.84897,-2.41653c0.86586,-0.5088 1.9112,-0.67989 2.93062,-0.3929c1.01944,0.28699 1.82203,0.9783 2.29528,1.86405c0.47282,0.88499 0.61574,1.96427 0.31678,3.02621c-0.29893,1.06193 -0.9839,1.90818 -1.84897,2.41653c-0.86586,0.5088 -2.0052,0.73518 -2.93062,0.3929c-1.44604,-0.53804 -2.86456,-1.60347 -3.48363,-2.97504z" data-paper-data="{&quot;origPos&quot;:null}" stroke="none" stroke-width="0"/></g><path d="M242.19924,160.23929c-0.77243,-1.09472 -0.22275,-2.83933 0.65048,-3.99729c0.85437,-1.1243 2.46444,-1.8843 3.93457,-1.65884c2.61538,0.51101 5.08654,2.12171 7.3364,3.6914c2.28464,1.59258 4.99315,3.32726 6.59433,5.86697c0.54974,1.1528 -0.1559,2.79445 -0.82872,4.02869c-0.70212,1.28169 -2.05632,2.94033 -3.41832,2.7624c-3.06327,-0.6199 -5.50982,-3.06792 -7.85265,-4.79496c-2.33484,-1.71835 -5.03058,-3.28938 -6.41609,-5.89836z" data-paper-data="{&quot;origPos&quot;:null}" fill="#8000ff" stroke="#5900b3" stroke-width="1.4"/></g><path d="M235.93597,147.02038c1.89799,0 3.61745,0.7711 4.86274,2.01638c1.24528,1.24528 2.01638,2.96474 2.01638,4.86274c0,1.89799 -0.7711,3.61745 -2.01638,4.86274c-1.24528,1.24528 -2.96474,2.01638 -4.86274,2.01638c-1.89799,0 -3.61745,-0.7711 -4.86274,-2.01638c-1.24528,-1.24528 -2.01638,-2.96474 -2.01638,-4.86274c0,-1.89799 0.7711,-3.61745 2.01638,-4.86274c1.24528,-1.24528 2.96474,-2.01638 4.86274,-2.01638z" data-paper-data="{&quot;origPos&quot;:null}" fill="#f1d4b3" stroke="#c7af93" stroke-width="1.4" stroke-linecap="butt"/><path d="M235.77598,103.28206c6.75305,0 12.87194,2.7606 17.30335,7.22081c4.43078,4.45958 7.17347,10.61878 7.17347,17.41598c0,6.79719 -2.74268,12.95639 -7.17347,17.41598c-4.43143,4.46021 -10.55031,7.22081 -17.30335,7.22081c-6.75305,0 -12.87194,-2.7606 -17.30335,-7.22081c-4.43078,-4.45958 -7.17347,-10.61878 -7.17347,-17.41598c0,-6.79719 2.74268,-12.95639 7.17347,-17.41598c4.43143,-4.46021 10.55031,-7.22081 17.30335,-7.22081z" data-paper-data="{&quot;index&quot;:null}" fill="#f1d4b3" stroke="#c7af93" stroke-width="1.4" stroke-linecap="butt"/><path d="M230.49483,143.59683c0,0 -0.64119,0.02111 -0.95987,0c-0.48121,-0.03199 -0.97907,-0.016 -1.43981,-0.15998c-0.4102,-0.12799 -0.77942,-0.3782 -1.11985,-0.63992c-0.35834,-0.2758 -0.77622,-0.54648 -0.95987,-0.95987c-0.26301,-0.59193 -0.31996,-1.91975 -0.31996,-1.91975" data-paper-data="{&quot;index&quot;:null}" fill="none" stroke="#9a8772" stroke-width="1.4" stroke-linecap="round"/><path d="M231.77457,124.71928c0.79479,0 1.51468,0.79798 2.03557,2.08677c0.52153,1.28815 0.84405,3.0684 0.84405,5.03231c0,1.96391 -0.32252,3.74416 -0.84405,5.03231c-0.5209,1.28879 -1.2408,2.08677 -2.03557,2.08677c-0.79479,0 -1.51468,-0.79798 -2.03557,-2.08677c-0.52153,-1.28815 -0.84405,-3.0684 -0.84405,-5.03231c0,-1.96391 0.32252,-3.74416 0.84405,-5.03231c0.5209,-1.28879 1.2408,-2.08677 2.03557,-2.08677z" data-paper-data="{&quot;index&quot;:null}" fill="#424242" stroke="none" stroke-width="1.4" stroke-linecap="butt"/><path d="M243.77304,124.71928c0.79479,0 1.51468,0.79798 2.03557,2.08677c0.52153,1.28815 0.84405,3.0684 0.84405,5.03231c0,1.96391 -0.32252,3.74416 -0.84405,5.03231c-0.5209,1.28879 -1.2408,2.08677 -2.03557,2.08677c-0.79479,0 -1.51468,-0.79798 -2.03557,-2.08677c-0.52153,-1.28815 -0.84405,-3.0684 -0.84405,-5.03231c0,-1.96391 0.32252,-3.74416 0.84405,-5.03231c0.5209,-1.28879 1.2408,-2.08677 2.03557,-2.08677z" data-paper-data="{&quot;index&quot;:null}" fill="#424242" stroke="none" stroke-width="1.4" stroke-linecap="butt"/><g data-paper-data="{&quot;origPos&quot;:null}" stroke-width="1.4" stroke-linecap="butt"><path d="M259.49878,122.32564c-2.26447,1.46525 -9.05789,-1.99806 -11.85518,-1.99806c-4.92856,0 -18.915,0.53282 -23.84355,-0.1332c-5.46137,-0.79923 -6.79342,-3.0637 -6.79342,-8.65827c0,-5.19496 8.12546,-14.38606 19.98063,-14.38606c11.85518,0 17.31655,6.79342 22.91113,9.72391c0,0 3.33011,8.25866 2.13127,11.18915z" fill="url(#color-1)" stroke="url(#color-2)"/><path d="M216.74022,110.07082c9.72391,0 5.32817,4.12933 5.32817,11.98838c0,7.85905 -5.86099,16.78373 -8.12546,16.78373c-2.26447,0 -3.99613,-6.3938 -3.99613,-14.25285c0,-7.99225 4.52894,-14.51926 6.79342,-14.51926z" fill="url(#color-3)" stroke="url(#color-4)"/></g><path d="M217.48668,112.39766c-0.02825,-0.00822 -0.05725,-0.01814 -0.087,-0.02991c-0.01856,-0.00707 -0.03677,-0.01486 -0.05459,-0.02333c-0.38977,-0.17921 -0.4461,-0.48927 -0.42769,-0.71127c0.00433,-0.09852 0.02767,-0.1921 0.06644,-0.27716l0.49347,-1.15143l0.09304,0.03987c2.05115,-3.19799 5.7607,-3.15574 7.85047,0.75349c2.07565,4.1513 1.8095,8.27285 -3.83749,8.41874c-3.13229,0 -4.27467,-4.25455 -4.09665,-7.019z" data-paper-data="{&quot;origPos&quot;:null}" fill="url(#color-5)" stroke="none" stroke-width="0.5" stroke-linecap="butt"/><path d="M225.00007,183.22087l4.33333,-2.46503" data-paper-data="{&quot;origPos&quot;:null}" fill="none" stroke="#000000" stroke-width="1.4" stroke-linecap="round"/><path d="M235.13601,179.65614c3.31029,0 6.30959,0.86069 8.4821,2.25059c2.17187,1.38991 3.51634,3.30965 3.51634,5.42842c0,2.11877 -1.34446,4.03851 -3.51634,5.42842c-2.17252,1.38991 -5.17181,2.25059 -8.4821,2.25059c-3.31029,0 -6.30959,-0.86069 -8.4821,-2.25059c-2.17187,-1.38991 -3.51634,-3.30965 -3.51634,-5.42842c0,-2.11877 1.34446,-4.03851 3.51634,-5.42842c2.17252,-1.38991 5.17181,-2.25059 8.4821,-2.25059z" data-paper-data="{&quot;origPos&quot;:null,&quot;index&quot;:null}" fill="#2e2e2e" stroke="#000000" stroke-width="1.4" stroke-linecap="butt"/><g><g><path d="M235.10407,207.7805c2.55966,1.44109 5.19484,2.4688 7.83898,3.51955c1.04819,0.34044 2.44449,-0.39291 3.19959,0.63992c1.05843,1.61835 1.06994,3.8171 0.95987,5.75925c-0.20861,3.66545 -0.08703,7.75963 -2.07973,10.87859c-0.85941,1.50829 -3.40628,1.01811 -5.11934,0.79989c-2.00166,-0.25405 -4.75906,-0.32508 -5.91923,-2.07973c-1.61708,-2.751 -1.16785,-6.39085 -1.27984,-9.59876c-0.14014,-4.00076 -0.21054,-8.10583 0.79989,-11.99844c0.16637,-0.97074 0.83382,1.64778 1.5998,2.07973z" data-paper-data="{&quot;origPos&quot;:null}" fill="#f1d4b3" stroke="#c7af93" stroke-width="1.4" stroke-linecap="round"/><path d="M240.41536,202.66117c1.67722,0 3.19702,0.71734 4.29768,1.8756c1.10001,1.15826 1.78153,2.75805 1.78153,4.52357c0,1.76553 -0.68151,3.36533 -1.78153,4.52357c-1.10066,1.15826 -2.62045,1.8756 -4.29768,1.8756c-1.67722,0 -3.19702,-0.71734 -4.29768,-1.8756c-1.10001,-1.15826 -1.78153,-2.75805 -1.78153,-4.52357c0,-1.76553 0.68151,-3.36533 1.78153,-4.52357c1.10066,-1.15826 2.62045,-1.8756 4.29768,-1.8756z" data-paper-data="{&quot;origPos&quot;:null}" fill="#f1d4b3" stroke="none" stroke-width="0" stroke-linecap="butt"/><g stroke-width="1.4"><path d="M246.79863,225.3961l12.15843,5.11934l-0.63992,3.51955l-25.27672,0.31996l-2.55966,-1.5998l2.23971,-9.59876l0.95987,3.51955z" fill="#2e2e2e" stroke="#000000" stroke-linecap="round"/><path d="M237.88592,226.55957v-4.65372h10.06717l1.91756,4.65372z" data-paper-data="{&quot;origPos&quot;:null,&quot;index&quot;:null}" fill="#8000ff" stroke="#5900b3" stroke-linecap="butt"/><path d="M258.41589,234.03496l-25.47148,0.31996l-2.46368,-1.5998l0.38117,-1.91975l27.90736,0.8319z" fill="#ffffff" stroke="#676767" stroke-linecap="round"/></g></g><g fill="#2e2e2e" stroke="#000000" stroke-linecap="round"><path d="M247.07046,188.42301c1.01043,3.89261 0.94003,7.99769 0.79989,11.99844c-0.15438,4.42219 -0.18739,11.10111 -0.23675,11.19002c-1.40227,2.52565 -3.24241,1.95118 -6.12472,1.75739c-2.72309,-0.18309 -4.60576,0.3025 -5.95693,-2.0688c-1.9927,-3.11896 -1.87111,-7.21314 -2.07973,-10.87859c-0.11007,-1.94215 -0.09855,-4.14091 0.95987,-5.75925c0.7551,-1.03282 2.1514,-0.29948 3.19959,-0.63992c2.64414,-1.05074 5.27932,-2.07845 7.83898,-3.51955c0.76598,-0.43195 1.43342,-3.05048 1.5998,-2.07973z" data-paper-data="{&quot;origPos&quot;:null}" stroke-width="1.4"/><path d="M246.43053,187.62312c1.55371,1.35919 -0.13054,4.86784 -0.63992,7.03908c-0.29756,1.28942 -0.62712,2.69214 -1.64074,3.61873c-1.01364,0.92723 -2.41376,1.50061 -3.95852,1.50061c-1.54476,0 -2.9449,-0.57336 -3.95852,-1.50061c-1.01364,-0.92661 -1.64074,-2.20643 -1.64074,-3.61873c0,-1.4123 0.62712,-2.69214 1.64074,-3.61873c1.01364,-0.92723 2.60445,-1.11217 3.95852,-1.50061c2.10277,-0.61496 4.99391,-3.11959 6.23919,-1.91975z" data-paper-data="{&quot;origPos&quot;:null}" stroke-width="0"/></g></g><g><path d="M224.90268,212.83333l4.66667,0.33333" data-paper-data="{&quot;origPos&quot;:null}" fill="none" stroke="#000000" stroke-width="1.4" stroke-linecap="round"/><g><g><g fill="none" stroke="none" stroke-width="1" stroke-linecap="butt" font-family="sans-serif" font-weight="normal" font-size="12" text-anchor="start"/><g fill="#f1d4b3"><path d="M224.28807,208.06846c2.55966,1.44109 5.19484,2.4688 7.83898,3.51955c1.04819,0.34044 2.44449,-0.39291 3.19959,0.63992c1.05843,1.61835 1.06994,3.8171 0.95987,5.75925c-0.20861,3.66545 -0.08703,7.75963 -2.07973,10.87859c-0.85941,1.50829 -3.40628,1.01811 -5.11934,0.79989c-2.00166,-0.25405 -4.75906,-0.32508 -5.91923,-2.07973c-1.61708,-2.751 -1.16785,-6.39085 -1.27984,-9.59876c-0.14014,-4.00076 -0.21054,-8.10583 0.79989,-11.99844c0.16637,-0.97074 0.83382,1.64778 1.5998,2.07973z" data-paper-data="{&quot;origPos&quot;:null}" stroke="#c7af93" stroke-width="1.4" stroke-linecap="round"/><path d="M229.59938,202.94913c1.67722,0 3.19702,0.71734 4.29768,1.8756c1.10001,1.15826 1.78153,2.75805 1.78153,4.52357c0,1.76553 -0.68151,3.36533 -1.78153,4.52357c-1.10066,1.15826 -2.62045,1.8756 -4.29768,1.8756c-1.67722,0 -3.19702,-0.71734 -4.29768,-1.8756c-1.10001,-1.15826 -1.78153,-2.75805 -1.78153,-4.52357c0,-1.76553 0.68151,-3.36533 1.78153,-4.52357c1.10066,-1.15826 2.62045,-1.8756 4.29768,-1.8756z" data-paper-data="{&quot;origPos&quot;:null}" stroke="none" stroke-width="0" stroke-linecap="butt"/></g><g fill="none" stroke="none" stroke-width="1" stroke-linecap="butt" font-family="sans-serif" font-weight="normal" font-size="12" text-anchor="start"/></g><g stroke-width="1.4"><path d="M235.9985,225.6662l12.15843,5.11934l-0.63992,3.51955l-25.27672,0.31996l-2.55966,-1.5998l2.23971,-9.59876l0.95987,3.51955z" data-paper-data="{&quot;origPos&quot;:null}" fill="#2e2e2e" stroke="#000000" stroke-linecap="round"/><path d="M226.08954,226.47087v-4.65372h10.06717l1.91756,4.65372z" data-paper-data="{&quot;origPos&quot;:null,&quot;index&quot;:null}" fill="#8000ff" stroke="#5900b3" stroke-linecap="butt"/><path d="M247.61576,234.30506l-25.47148,0.31996l-2.46368,-1.5998l0.38117,-1.91975l27.90736,0.8319z" fill="#ffffff" stroke="#676767" stroke-linecap="round"/></g></g><g stroke-linecap="round"><path d="M225.11992,190.9805c2.55966,1.44109 5.19484,2.4688 7.83898,3.51955c1.04819,0.34044 2.44449,-0.39291 3.19959,0.63992c1.05843,1.61835 1.06994,3.8171 0.95987,5.75925c-0.20861,3.66545 -0.08703,7.75963 -2.07973,10.87859c-0.85941,1.50829 -3.73961,1.85144 -5.45267,1.63322c-2.00166,-0.25405 -5.75906,0.17492 -6.91923,-1.57973c-1.61708,-2.751 0.16548,-7.72418 0.05349,-10.93209c-0.14014,-4.00076 -0.21054,-8.10583 0.79989,-11.99844c0.16637,-0.97074 0.83382,1.64778 1.5998,2.07973z" data-paper-data="{&quot;origPos&quot;:null}" fill="#2e2e2e" stroke="#000000" stroke-width="1.4"/><path d="M230.39923,190.02063c1.35406,0.38843 2.9449,0.57336 3.95852,1.50061c1.01364,0.92661 1.64074,2.20643 1.64074,3.61873c0,1.4123 -0.62712,2.69214 -1.64074,3.61873c-1.01364,0.92723 -2.41376,1.50061 -3.95852,1.50061c-1.54476,0 -2.9449,-0.57336 -3.95852,-1.50061c-1.01364,-0.92661 -1.34319,-2.32929 -1.64074,-3.61873c-0.50937,-2.17124 -2.19364,-5.67991 -0.63992,-7.03908c1.24528,-1.19984 4.13642,1.30479 6.23919,1.91975z" data-paper-data="{&quot;origPos&quot;:null}" fill="#2e2e2e" stroke="#000000" stroke-width="0"/><path d="M226.06936,211.97068v-29.36131" fill="none" stroke="#8000ff" stroke-width="1.4"/><path d="M228.56936,181.73292v30.45687" fill="none" stroke="#8000ff" stroke-width="1.4"/></g></g><path d="M224.57736,155.81923c0.44987,-2.40225 2.8182,-2.12517 4.47942,-2.23971c5.40602,-0.359 10.76852,-0.35772 15.99793,0.63992c1.34574,0.26173 2.36129,-0.07935 2.55966,2.23971c0.79351,9.27688 1.54668,18.69326 0,27.83639c-0.26173,2.31073 -3.00058,2.32546 -4.79938,2.55966c-5.38426,0.69879 -10.85555,0.86582 -16.31788,0.31996c-1.27471,-0.22717 -3.02041,-0.16637 -3.19959,-2.55966c-0.71351,-9.56804 -0.51962,-19.18855 1.27984,-28.79627z" data-paper-data="{&quot;origPos&quot;:null}" fill="#8000ff" stroke="#5900b3" stroke-width="1.4" stroke-linecap="round"/><g data-paper-data="{&quot;index&quot;:null}" stroke-linecap="round"><g fill="#f1d4b3"><path d="M201.97194,178.7091c-0.15301,0.56116 -0.88671,0.99922 -1.46003,1.57325c-0.33695,0.337 -0.60323,0.74931 -0.97335,1.04884c-0.42202,0.34159 -0.90083,0.61561 -1.38535,0.86172c-0.37998,0.19321 -0.78355,0.35082 -1.19822,0.44973c-0.42712,0.1022 -0.89622,0.29467 -1.31065,0.15017c-0.44995,-0.15716 -0.77805,-0.58149 -1.04884,-0.97335c-0.24231,-0.3506 -0.35082,-0.78355 -0.44973,-1.19822c-0.1022,-0.42712 0.17182,-1.01183 -0.15017,-1.31065c-0.34927,-0.32414 -1.00868,0.08605 -1.42308,-0.14938c-0.3815,-0.21701 -0.59502,-0.67479 -0.74928,-1.08579c-0.15425,-0.41099 -0.37483,-0.93311 -0.15017,-1.31065c0.218,-0.36616 1.25155,-0.12185 1.19822,-0.44973c-0.07794,-0.47723 -0.98773,-0.75776 -1.46081,-1.16048c-0.36327,-0.30862 -0.88132,-0.52702 -1.04884,-0.97335c-0.16752,-0.44635 -0.08605,-1.00868 0.14938,-1.42308c0.21701,-0.3815 0.6969,-0.54523 1.08579,-0.74928c0.37735,-0.19835 0.78355,-0.35082 1.19822,-0.44973c0.42712,-0.1022 0.87409,-0.10046 1.31065,-0.15017c0.43656,-0.04971 0.87226,-0.17633 1.31065,-0.15017c0.62,0.03659 1.23848,0.16194 1.83507,0.33649c0.43383,0.12697 0.86041,0.30929 1.23595,0.56136c0.39569,0.2657 0.74931,0.60323 1.04884,0.97335c0.34159,0.42202 0.56507,0.93006 0.86172,1.38535c0.23993,0.36791 0.54523,0.6969 0.74928,1.08579c0.19835,0.37735 0.29997,0.79922 0.44973,1.19822c0.14976,0.39901 0.29997,0.79922 0.44973,1.19822c0.07489,0.19951 0.3436,0.42195 0.22486,0.59911z" data-paper-data="{&quot;origPos&quot;:null}" stroke="#c7af93" stroke-width="1.4"/><g><g stroke="#c7af93" stroke-width="1.4"><path d="M217.82455,166.63147c0.85607,0.99519 2.66706,2.16933 1.91445,3.01524c-2.28923,3.23138 -6.06904,5.15094 -9.34367,6.94191c-2.71859,1.4699 -5.60587,3.62498 -8.70083,3.24278c-2.0163,-0.21244 -2.48682,-3.29603 -3.06847,-5.20341c-0.39962,-1.31218 -0.72953,-3.10462 0.05469,-4.11268c2.10862,-2.13719 5.12619,-3.25056 7.69919,-4.31601c2.5342,-1.05067 5.29329,-2.09384 7.95736,-2.03199c1.48425,0.09513 2.55662,1.39812 3.48726,2.46415z" data-paper-data="{&quot;origPos&quot;:null}"/></g><path d="M202.76462,174.44724c0.47435,0.62099 1.42809,1.1625 1.03036,1.83467c-0.50088,1.41899 -1.82426,2.60056 -3.21961,3.25893c-0.89316,0.4193 -2.04759,0.29006 -2.95336,-0.1437c-0.90494,-0.43339 -1.659,-1.21869 -2.04667,-2.25155c-0.38766,-1.03285 -0.33653,-2.12037 0.05978,-3.04216c0.39669,-0.92262 1.13794,-1.67929 2.12946,-2.05144c0.99152,-0.37214 2.04759,-0.29006 2.95336,0.1437c0.90494,0.43339 1.42764,1.44905 2.04667,2.25155z" data-paper-data="{&quot;origPos&quot;:null}" stroke="none" stroke-width="0"/></g></g><path d="M229.29029,155.94686c0.96801,1.07997 1.66324,2.77188 0.98612,3.92797c-1.15993,2.71676 -3.71319,4.5101 -5.89439,6.41973c-2.18843,1.91895 -4.41922,4.56507 -7.41912,5.44174c-1.34208,0.29244 -2.83166,-1.24573 -3.63964,-2.46348c-0.77475,-1.17294 -1.61667,-2.74904 -1.16636,-3.94418c1.38071,-2.666 3.93286,-4.62345 6.07465,-6.40351c2.10908,-1.75431 4.43524,-3.56817 6.99802,-4.29848c1.44581,-0.34893 3.11436,0.2722 4.06075,1.32023z" data-paper-data="{&quot;origPos&quot;:null}" fill="#8000ff" stroke="#5900b3" stroke-width="1.4"/></g></g></g></svg>