<svg xmlns="http://www.w3.org/2000/svg" xmlns:xlink="http://www.w3.org/1999/xlink" version="1.1" width="228.3359351158142" height="106.32009649276733" viewBox="-1.6888816356658936 -2.5011537075042725 228.3359351158142 106.32009649276733">
  <!-- Exported by Scratch - http://scratch.mit.edu/ -->
  <g id="ID0.15768937254324555">
    <path id="ID0.6918087364174426" fill="#8B0002" stroke="none" stroke-linecap="round" d="M 137.4078 8.6468 C 162.0053 7.5032 187.4328 10.2588 212.3418 12.1321 C 218.5675 12.6005 219.2406 12.3151 219.7481 14.9639 C 220.3973 20.6341 215.9971 25.9949 215.0647 31.737 C 214.0148 38.2022 213.4092 44.8439 213.431 51.3418 C 213.4463 55.8357 214.0867 59.6891 215.0647 64.7385 C 215.9404 69.0276 218.0469 72.9202 218.3322 77.4816 C 218.4041 78.623 221.0377 76.7127 215.8272 76.3925 C 195.0242 75.1007 173.5395 72.2232 153.3095 73.125 C 120.3102 74.5866 86.4983 78.7646 54.6317 82.9274 C 38.0155 85.0948 5.9529 103.8283 5.184 92.2942 C 3.8617 72.5042 27.4834 32.6715 50.0573 19.5384 C 75.4826 5.094 108.1268 10.0083 137.4078 8.6468 Z " stroke-width="2.178316354751587"/>
    <path id="ID0.06557183247059584" fill="#F37070" stroke="none" stroke-linecap="round" d="M 85.0042 36.0024 C 103.204 27.9687 120.7395 17.4083 139.571 10.5161 C 147.8966 7.4686 162.2647 0.6505 165.6019 6.0505 C 169.5055 12.4134 160.2694 26.2087 154.0568 34.0419 C 144.7968 45.7046 132.6614 55.8468 120.5108 63.5581 C 107.6217 71.7377 92.7743 78.1898 78.5782 82.0738 C 56.2112 88.1905 32.021 96.7229 9.9612 93.9456 C 2.9884 93.0351 5.1689 80.3921 5.1689 73.3605 C 5.1754 69.7075 7.149 65.499 10.5058 63.5581 C 15.7686 60.1468 23.0333 60.7742 29.0215 58.548 C 46.5373 52.0413 66.6214 44.1253 85.0042 36.0024 Z " stroke-width="2.178316354751587"/>
    <path id="ID0.8337922939099371" fill="none" stroke="#000000" stroke-width="13.069898128509521" stroke-linecap="round" d="M 220.1121 17.3398 L 189.6157 9.9335 L 169.793 7.9731 L 150.9506 6.6661 L 134.9399 6.8839 L 125.3553 6.8839 L 111.7409 7.7552 L 93.7698 10.1514 L 76.5611 13.7456 L 52.5996 20.8251 L 36.2622 30.083 L 22.7566 40.9746 L 14.0434 51.5394 L 9.6867 63.3023 L 7.5084 76.9168 L 7.1817 86.3925 L 7.9441 97.284 L 29.5094 90.5313 L 49.3321 85.3033 L 80.9177 79.6397 L 115.5529 76.9168 L 146.2672 76.1544 L 178.9419 77.2435 L 217.1714 80.1843 "/>
  </g>
</svg>