<svg version="1.1" xmlns="http://www.w3.org/2000/svg" xmlns:xlink="http://www.w3.org/1999/xlink" width="721" height="417.3" viewBox="0,0,721,417.3"><g transform="translate(120.5,15.14999)"><g data-paper-data="{&quot;isPaintingLayer&quot;:true}" fill-rule="nonzero" stroke-linejoin="miter" stroke-miterlimit="10" stroke-dasharray="" stroke-dashoffset="0" style="mix-blend-mode: normal"><path d="M-109.89504,356.85001v-372h695.67366v372z" fill="#b5f1ff" stroke="#000000" stroke-width="0" stroke-linecap="butt"/><path d="M-111.26718,359.15001v-168h699.79008v168z" fill="#67ff9c" stroke="#48b36d" stroke-width="2" stroke-linecap="butt"/><path d="M-119.5,401.15001v-91h719v91z" fill="#bebebe" stroke="#8c8c8c" stroke-width="2" stroke-linecap="butt"/><path d="M188.34568,311.03752v-34.5h101.5v34.5z" fill="#bebebe" stroke="#8c8c8c" stroke-width="2" stroke-linecap="butt"/><g stroke="#000000"><path d="M28.5,282.35001v-249h420v249z" fill="#fff400" stroke-width="3" stroke-linecap="butt"/><g><path d="M214.20961,265.18082v-63.81818h49.63636v63.81818z" fill="#964700" stroke-width="3" stroke-linecap="butt"/><path d="M220.8628,264.83065v-56.11448h36.15489v56.11448z" fill="#ffffff" stroke-width="3" stroke-linecap="butt"/><g stroke-width="2"><path d="M227.38469,235.2852v-19.60943h23.2862v19.60943z" fill="#ffffff" stroke-linecap="butt"/><path d="M249.62037,225.65556h-21.18517" fill="none" stroke-linecap="round"/><path d="M239.11533,233.70944l-0.17508,-16.28283" fill="none" stroke-linecap="round"/></g><path d="M247.86954,251.56802v-11.55555h4.72727v11.55555z" fill="#964700" stroke-width="1" stroke-linecap="butt"/></g><path d="M28.5,282.35001v-9h420v9z" fill="#ece100" stroke-width="3" stroke-linecap="butt"/><path d="M189.18519,282.11668v-16.33333h100.33333v16.33333z" fill="#b1b1b1" stroke-width="3" stroke-linecap="butt"/><path d="M189.7639,274.37501h98.25" fill="none" stroke-width="3" stroke-linecap="round"/><path d="M29,178.15001v-15h420v15z" fill="#fff400" stroke-width="3" stroke-linecap="butt"/><path d="M20,168.85001l17.85474,-15l402.07579,0.21333l15.06947,15.78667z" fill="#131414" stroke-width="3" stroke-linecap="butt"/><g stroke-width="3"><path d="M323.5,259.05001v-67h117v67z" fill="#8ecfff" stroke-linecap="butt"/><path d="M381.75,193.25001v65" fill="none" stroke-linecap="round"/><path d="M438.25,226.25001l-114,-0.5" fill="none" stroke-linecap="round"/></g><g stroke-width="3"><path d="M35,259.05001v-67h117v67z" fill="#8ecfff" stroke-linecap="butt"/><path d="M93.25,258.25001v-65" fill="none" stroke-linecap="round"/><path d="M35.75,225.75001l114,0.5" fill="none" stroke-linecap="round"/></g><g stroke-width="3"><path d="M322.5,139.05001v-67h117v67z" fill="#8ecfff" stroke-linecap="butt"/><path d="M380.75,73.25v65" fill="none" stroke-linecap="round"/><path d="M323.25,105.74999l114,0.5" fill="none" stroke-linecap="round"/></g><g stroke-width="3"><path d="M34,139.05001v-67h117v67z" fill="#8ecfff" stroke-linecap="butt"/><path d="M92.25,138.24999v-65" fill="none" stroke-linecap="round"/><path d="M34.75,105.75l114,0.5" fill="none" stroke-linecap="round"/></g><path d="M2,63.15001l28,-75l417,1l26,74z" fill="#ff8f00" stroke-width="3" stroke-linecap="butt"/><g stroke-width="2" stroke-linecap="butt"><path d="M306.14815,220.91672v-8.64328h4.82416v8.64328z" fill="#131414"/><path d="M299.86111,206.99366c0,-4.81055 3.89973,-8.71029 8.71028,-8.71029c4.81055,0 8.71028,3.89973 8.71028,8.71029c0,4.81055 -3.89973,8.71028 -8.71028,8.71028c-4.81056,0 -8.71028,-3.89973 -8.71028,-8.71028z" fill="#ffffff"/></g><g stroke-width="2" stroke-linecap="butt"><path d="M163.48149,218.58338v-8.64328h4.82416v8.64328z" fill="#131414"/><path d="M157.19445,204.66032c0,-4.81055 3.89973,-8.71029 8.71028,-8.71029c4.81055,0 8.71028,3.89973 8.71028,8.71029c0,4.81055 -3.89973,8.71028 -8.71028,8.71028c-4.81056,0 -8.71028,-3.89973 -8.71028,-8.71028z" fill="#ffffff"/></g></g><path d="M189.34568,317.03752v-11.5h99.5v11.5z" fill="#bebebe" stroke="none" stroke-width="0" stroke-linecap="butt"/><g stroke="#000000" stroke-width="2"><path d="M138.44136,260.15003v-26.25h6.75v26.25z" fill="#fff400" stroke-linecap="butt"/><path d="M154.45314,306.15002v-25h9v25z" fill="#894100" stroke-linecap="butt"/><path d="M138.44136,283.15002v-30h41.5v30z" fill="#b9b9b9" stroke-linecap="butt"/><path d="M146.69136,262.15002h23.5" fill="none" stroke-linecap="round"/><path d="M170.19136,275.65002h-22" fill="none" stroke-linecap="round"/></g></g></g></svg>