<svg version="1.1" xmlns="http://www.w3.org/2000/svg" xmlns:xlink="http://www.w3.org/1999/xlink" width="54.6643" height="142.1797" viewBox="0,0,54.6643,142.1797"><defs><radialGradient cx="227.25036" cy="111.99769" r="22.6417" gradientUnits="userSpaceOnUse" id="color-1"><stop offset="0" stop-color="#5e2ccf"/><stop offset="1" stop-color="#26008e"/></radialGradient><radialGradient cx="225.14204" cy="120.43098" r="22.6417" gradientUnits="userSpaceOnUse" id="color-2"><stop offset="0" stop-color="#45219b"/><stop offset="1" stop-color="#18005b"/></radialGradient><radialGradient cx="217.64578" cy="119.49395" r="14.38606" gradientUnits="userSpaceOnUse" id="color-3"><stop offset="0" stop-color="#5e2ccf"/><stop offset="1" stop-color="#26008e"/></radialGradient><radialGradient cx="223.03372" cy="120.66524" r="14.38606" gradientUnits="userSpaceOnUse" id="color-4"><stop offset="0" stop-color="#45219b"/><stop offset="1" stop-color="#18005b"/></radialGradient><radialGradient cx="221.62817" cy="114.57453" r="5.73453" gradientUnits="userSpaceOnUse" id="color-5"><stop offset="0" stop-color="#5e2ccf"/><stop offset="1" stop-color="#26008e"/></radialGradient></defs><g transform="translate(-209.2468,-96.45005)"><g data-paper-data="{&quot;isPaintingLayer&quot;:true}" fill-rule="nonzero" stroke-linejoin="miter" stroke-miterlimit="10" stroke-dasharray="" stroke-dashoffset="0" style="mix-blend-mode: normal"><path d="M263.9111,231.79642c0,3.77395 -10.73415,6.83333 -23.97539,6.83333c-13.24124,0 -23.97539,-3.05939 -23.97539,-6.83333c0,-3.77395 10.73415,-6.83333 23.97539,-6.83333c13.24124,0 23.97539,3.05939 23.97539,6.83333z" fill-opacity="0.5" fill="#000000" stroke="#000000" stroke-width="0" stroke-linecap="butt"/><g data-paper-data="{&quot;index&quot;:null}" stroke-linecap="round"><g fill="#f1d4b3"><path d="M245.28984,189.76226c0.08817,-0.19418 0.41873,-0.08274 0.62778,-0.12406c0.41811,-0.08262 0.83746,-0.16549 1.25556,-0.2481c0.41811,-0.08262 0.83029,-0.2182 1.25556,-0.2481c0.43807,-0.03111 0.87849,0.05535 1.31758,0.06578c0.54326,0.01266 1.09288,-0.06463 1.63149,0.00376c0.47238,0.05995 0.94546,0.18301 1.37961,0.37968c0.41195,0.18668 0.79149,0.45348 1.12774,0.75558c0.46237,0.41547 0.89443,0.87542 1.2518,1.38338c0.25293,0.35901 0.37455,0.79614 0.562,1.19354c0.18745,0.3974 0.42416,0.77655 0.562,1.19354c0.13409,0.40465 0.2182,0.83029 0.2481,1.25556c0.03111,0.43807 0.14443,0.9323 -0.06578,1.31758c-0.22849,0.41827 -0.66382,0.78348 -1.1315,0.87588c-0.46768,0.09242 -0.92603,-0.23316 -1.37961,-0.37968c-0.59141,-0.19035 -1.30869,-0.81636 -1.75555,-0.63152c-0.30686,0.12718 0.44477,0.87749 0.2481,1.25556c-0.20282,0.38972 -0.76286,0.4769 -1.19354,0.562c-0.43067,0.08508 -0.9323,0.14443 -1.31758,-0.06578c-0.41827,-0.22849 -0.41648,-1.00506 -0.87588,-1.1315c-0.42354,-0.11655 -0.77655,0.42416 -1.19354,0.562c-0.40465,0.13409 -0.82992,0.26966 -1.25556,0.2481c-0.4757,-0.02406 -1.00919,-0.07973 -1.37961,-0.37968c-0.34097,-0.27638 -0.42416,-0.77655 -0.562,-1.19354c-0.13409,-0.40465 -0.21245,-0.83079 -0.2481,-1.25556c-0.04571,-0.54153 -0.06463,-1.09288 0.00376,-1.63149c0.05995,-0.47238 0.27041,-0.91578 0.37968,-1.37961c0.1864,-0.78956 0.17282,-1.64401 0.56951,-2.06941z" data-paper-data="{&quot;origPos&quot;:null}" stroke="#c7af93" stroke-width="1.4"/><path d="M243.70833,170.19921c0.32326,-1.08509 2.27467,-0.16301 3.57142,0.04126c1.39621,0.23042 3.06855,0.45662 3.93046,1.66866c1.4545,2.23282 2.01937,5.12794 2.45948,7.83579c0.44797,2.74863 1.08915,5.90047 0.38142,8.81817c-0.44452,1.19731 -2.14235,1.86002 -3.46841,2.21071c-1.92803,0.50911 -4.79772,1.73168 -6.03941,0.1289c-1.95367,-2.43066 -1.64044,-6.01989 -1.82113,-9.10515c-0.20025,-3.727 -0.55701,-7.95126 0.98612,-11.59835z" data-paper-data="{&quot;origPos&quot;:null}" stroke="#c7af93" stroke-width="1.4"/><path d="M246.45624,187.24879c0.36226,-0.69191 1.32464,-0.16589 2.10232,-0.08928c1.00813,0.1041 2.14686,0.01409 2.9916,0.55555c0.8455,0.54197 1.47104,1.39678 1.67633,2.43574c0.2053,1.03897 -0.04807,2.0675 -0.62386,2.8903c-0.5753,0.82207 -1.47314,1.43784 -2.55543,1.65169c-1.08227,0.21388 -2.14686,-0.01409 -2.9916,-0.55555c-0.8455,-0.54197 -1.56287,-1.4556 -1.67633,-2.43574c-0.17443,-1.533 0.13391,-3.28007 1.07697,-4.45272z" data-paper-data="{&quot;origPos&quot;:null}" stroke="none" stroke-width="0"/></g><path d="M246.4727,156.09655c0.62678,-1.18415 2.43131,-1.48329 3.85906,-1.22846c1.3892,0.25324 2.79543,1.34522 3.25952,2.75828c0.7276,2.56358 0.40925,5.49609 0.02735,8.2127c-0.38657,2.75798 -0.7081,5.95826 -2.24855,8.53525c-0.77933,1.01183 -2.56261,1.1253 -3.96771,1.08371c-1.46067,-0.04625 -3.55253,-0.50348 -4.01009,-1.7986c-0.83313,-3.01227 0.24306,-6.30168 0.72322,-9.17238c0.47603,-2.85965 0.65739,-5.9745 2.35718,-8.39051z" data-paper-data="{&quot;origPos&quot;:null}" fill="#8000ff" stroke="#5900b3" stroke-width="1.4"/></g><path d="M235.93597,147.02038c1.89799,0 3.61745,0.7711 4.86274,2.01638c1.24528,1.24528 2.01638,2.96474 2.01638,4.86274c0,1.89799 -0.7711,3.61745 -2.01638,4.86274c-1.24528,1.24528 -2.96474,2.01638 -4.86274,2.01638c-1.89799,0 -3.61745,-0.7711 -4.86274,-2.01638c-1.24528,-1.24528 -2.01638,-2.96474 -2.01638,-4.86274c0,-1.89799 0.7711,-3.61745 2.01638,-4.86274c1.24528,-1.24528 2.96474,-2.01638 4.86274,-2.01638z" data-paper-data="{&quot;origPos&quot;:null}" fill="#f1d4b3" stroke="#c7af93" stroke-width="1.4" stroke-linecap="butt"/><path d="M235.77598,103.28206c6.75305,0 12.87194,2.7606 17.30335,7.22081c4.43078,4.45958 7.17347,10.61878 7.17347,17.41598c0,6.79719 -2.74268,12.95639 -7.17347,17.41598c-4.43143,4.46021 -10.55031,7.22081 -17.30335,7.22081c-6.75305,0 -12.87194,-2.7606 -17.30335,-7.22081c-4.43078,-4.45958 -7.17347,-10.61878 -7.17347,-17.41598c0,-6.79719 2.74268,-12.95639 7.17347,-17.41598c4.43143,-4.46021 10.55031,-7.22081 17.30335,-7.22081z" data-paper-data="{&quot;index&quot;:null}" fill="#f1d4b3" stroke="#c7af93" stroke-width="1.4" stroke-linecap="butt"/><path d="M230.49483,143.59683c0,0 -0.64119,0.02111 -0.95987,0c-0.48121,-0.03199 -0.97907,-0.016 -1.43981,-0.15998c-0.4102,-0.12799 -0.77942,-0.3782 -1.11985,-0.63992c-0.35834,-0.2758 -0.77622,-0.54648 -0.95987,-0.95987c-0.26301,-0.59193 -0.31996,-1.91975 -0.31996,-1.91975" data-paper-data="{&quot;index&quot;:null}" fill="none" stroke="#9a8772" stroke-width="1.4" stroke-linecap="round"/><path d="M231.77457,124.71928c0.79479,0 1.51468,0.79798 2.03557,2.08677c0.52153,1.28815 0.84405,3.0684 0.84405,5.03231c0,1.96391 -0.32252,3.74416 -0.84405,5.03231c-0.5209,1.28879 -1.2408,2.08677 -2.03557,2.08677c-0.79479,0 -1.51468,-0.79798 -2.03557,-2.08677c-0.52153,-1.28815 -0.84405,-3.0684 -0.84405,-5.03231c0,-1.96391 0.32252,-3.74416 0.84405,-5.03231c0.5209,-1.28879 1.2408,-2.08677 2.03557,-2.08677z" data-paper-data="{&quot;index&quot;:null}" fill="#424242" stroke="none" stroke-width="1.4" stroke-linecap="butt"/><path d="M243.77304,124.71928c0.79479,0 1.51468,0.79798 2.03557,2.08677c0.52153,1.28815 0.84405,3.0684 0.84405,5.03231c0,1.96391 -0.32252,3.74416 -0.84405,5.03231c-0.5209,1.28879 -1.2408,2.08677 -2.03557,2.08677c-0.79479,0 -1.51468,-0.79798 -2.03557,-2.08677c-0.52153,-1.28815 -0.84405,-3.0684 -0.84405,-5.03231c0,-1.96391 0.32252,-3.74416 0.84405,-5.03231c0.5209,-1.28879 1.2408,-2.08677 2.03557,-2.08677z" data-paper-data="{&quot;index&quot;:null}" fill="#424242" stroke="none" stroke-width="1.4" stroke-linecap="butt"/><g data-paper-data="{&quot;origPos&quot;:null}" stroke-width="1.4" stroke-linecap="butt"><path d="M259.49878,122.32564c-2.26447,1.46525 -9.05789,-1.99806 -11.85518,-1.99806c-4.92856,0 -18.915,0.53282 -23.84355,-0.1332c-5.46137,-0.79923 -6.79342,-3.0637 -6.79342,-8.65827c0,-5.19496 8.12546,-14.38606 19.98063,-14.38606c11.85518,0 17.31655,6.79342 22.91113,9.72391c0,0 3.33011,8.25866 2.13127,11.18915z" fill="url(#color-1)" stroke="url(#color-2)"/><path d="M216.74022,110.07082c9.72391,0 5.32817,4.12933 5.32817,11.98838c0,7.85905 -5.86099,16.78373 -8.12546,16.78373c-2.26447,0 -3.99613,-6.3938 -3.99613,-14.25285c0,-7.99225 4.52894,-14.51926 6.79342,-14.51926z" fill="url(#color-3)" stroke="url(#color-4)"/></g><path d="M217.48668,112.39766c-0.02825,-0.00822 -0.05725,-0.01814 -0.087,-0.02991c-0.01856,-0.00707 -0.03677,-0.01486 -0.05459,-0.02333c-0.38977,-0.17921 -0.4461,-0.48927 -0.42769,-0.71127c0.00433,-0.09852 0.02767,-0.1921 0.06644,-0.27716l0.49347,-1.15143l0.09304,0.03987c2.05115,-3.19799 5.7607,-3.15574 7.85047,0.75349c2.07565,4.1513 1.8095,8.27285 -3.83749,8.41874c-3.13229,0 -4.27467,-4.25455 -4.09665,-7.019z" data-paper-data="{&quot;origPos&quot;:null}" fill="url(#color-5)" stroke="none" stroke-width="0.5" stroke-linecap="butt"/><path d="M229.3334,180.75584l-4.33333,2.46503" data-paper-data="{&quot;origPos&quot;:null}" fill="none" stroke="#000000" stroke-width="1.4" stroke-linecap="round"/><path d="M235.13601,179.65614c3.31029,0 6.30959,0.86069 8.4821,2.25059c2.17187,1.38991 3.51634,3.30965 3.51634,5.42842c0,2.11877 -1.34446,4.03851 -3.51634,5.42842c-2.17252,1.38991 -5.17181,2.25059 -8.4821,2.25059c-3.31029,0 -6.30959,-0.86069 -8.4821,-2.25059c-2.17187,-1.38991 -3.51634,-3.30965 -3.51634,-5.42842c0,-2.11877 1.34446,-4.03851 3.51634,-5.42842c2.17252,-1.38991 5.17181,-2.25059 8.4821,-2.25059z" data-paper-data="{&quot;origPos&quot;:null,&quot;index&quot;:null}" fill="#2e2e2e" stroke="#000000" stroke-width="1.4" stroke-linecap="butt"/><g><g><path d="M235.10407,207.7805c2.55966,1.44109 5.19484,2.4688 7.83898,3.51955c1.04819,0.34044 2.44449,-0.39291 3.19959,0.63992c1.05843,1.61835 1.06994,3.8171 0.95987,5.75925c-0.20861,3.66545 -0.08703,7.75963 -2.07973,10.87859c-0.85941,1.50829 -3.40628,1.01811 -5.11934,0.79989c-2.00166,-0.25405 -4.75906,-0.32508 -5.91923,-2.07973c-1.61708,-2.751 -1.16785,-6.39085 -1.27984,-9.59876c-0.14014,-4.00076 -0.21054,-8.10583 0.79989,-11.99844c0.16637,-0.97074 0.83382,1.64778 1.5998,2.07973z" data-paper-data="{&quot;origPos&quot;:null}" fill="#f1d4b3" stroke="#c7af93" stroke-width="1.4" stroke-linecap="round"/><path d="M240.41536,202.66117c1.67722,0 3.19702,0.71734 4.29768,1.8756c1.10001,1.15826 1.78153,2.75805 1.78153,4.52357c0,1.76553 -0.68151,3.36533 -1.78153,4.52357c-1.10066,1.15826 -2.62045,1.8756 -4.29768,1.8756c-1.67722,0 -3.19702,-0.71734 -4.29768,-1.8756c-1.10001,-1.15826 -1.78153,-2.75805 -1.78153,-4.52357c0,-1.76553 0.68151,-3.36533 1.78153,-4.52357c1.10066,-1.15826 2.62045,-1.8756 4.29768,-1.8756z" data-paper-data="{&quot;origPos&quot;:null}" fill="#f1d4b3" stroke="none" stroke-width="0" stroke-linecap="butt"/><g stroke-width="1.4"><path d="M246.79863,225.3961l12.15843,5.11934l-0.63992,3.51955l-25.27672,0.31996l-2.55966,-1.5998l2.23971,-9.59876l0.95987,3.51955z" fill="#2e2e2e" stroke="#000000" stroke-linecap="round"/><path d="M237.88592,226.55957v-4.65372h10.06717l1.91756,4.65372z" data-paper-data="{&quot;origPos&quot;:null,&quot;index&quot;:null}" fill="#8000ff" stroke="#5900b3" stroke-linecap="butt"/><path d="M258.41589,234.03496l-25.47148,0.31996l-2.46368,-1.5998l0.38117,-1.91975l27.90736,0.8319z" fill="#ffffff" stroke="#676767" stroke-linecap="round"/></g></g><g fill="#2e2e2e" stroke="#000000" stroke-linecap="round"><path d="M247.07046,188.42301c1.01043,3.89261 0.94003,7.99769 0.79989,11.99844c-0.15438,4.42219 -0.18739,11.10111 -0.23675,11.19002c-1.40227,2.52565 -3.24241,1.95118 -6.12472,1.75739c-2.72309,-0.18309 -4.60576,0.3025 -5.95693,-2.0688c-1.9927,-3.11896 -1.87111,-7.21314 -2.07973,-10.87859c-0.11007,-1.94215 -0.09855,-4.14091 0.95987,-5.75925c0.7551,-1.03282 2.1514,-0.29948 3.19959,-0.63992c2.64414,-1.05074 5.27932,-2.07845 7.83898,-3.51955c0.76598,-0.43195 1.43342,-3.05048 1.5998,-2.07973z" data-paper-data="{&quot;origPos&quot;:null}" stroke-width="1.4"/><path d="M246.43053,187.62312c1.55371,1.35919 -0.13054,4.86784 -0.63992,7.03908c-0.29756,1.28942 -0.62712,2.69214 -1.64074,3.61873c-1.01364,0.92723 -2.41376,1.50061 -3.95852,1.50061c-1.54476,0 -2.9449,-0.57336 -3.95852,-1.50061c-1.01364,-0.92661 -1.64074,-2.20643 -1.64074,-3.61873c0,-1.4123 0.62712,-2.69214 1.64074,-3.61873c1.01364,-0.92723 2.60445,-1.11217 3.95852,-1.50061c2.10277,-0.61496 4.99391,-3.11959 6.23919,-1.91975z" data-paper-data="{&quot;origPos&quot;:null}" stroke-width="0"/></g></g><g><path d="M224.90268,212.83333l4.66667,0.33333" data-paper-data="{&quot;origPos&quot;:null}" fill="none" stroke="#000000" stroke-width="1.4" stroke-linecap="round"/><g><g><g fill="none" stroke="none" stroke-width="1" stroke-linecap="butt" font-family="sans-serif" font-weight="normal" font-size="12" text-anchor="start"/><g fill="#f1d4b3"><path d="M224.28807,208.06846c2.55966,1.44109 5.19484,2.4688 7.83898,3.51955c1.04819,0.34044 2.44449,-0.39291 3.19959,0.63992c1.05843,1.61835 1.06994,3.8171 0.95987,5.75925c-0.20861,3.66545 -0.08703,7.75963 -2.07973,10.87859c-0.85941,1.50829 -3.40628,1.01811 -5.11934,0.79989c-2.00166,-0.25405 -4.75906,-0.32508 -5.91923,-2.07973c-1.61708,-2.751 -1.16785,-6.39085 -1.27984,-9.59876c-0.14014,-4.00076 -0.21054,-8.10583 0.79989,-11.99844c0.16637,-0.97074 0.83382,1.64778 1.5998,2.07973z" data-paper-data="{&quot;origPos&quot;:null}" stroke="#c7af93" stroke-width="1.4" stroke-linecap="round"/><path d="M229.59938,202.94913c1.67722,0 3.19702,0.71734 4.29768,1.8756c1.10001,1.15826 1.78153,2.75805 1.78153,4.52357c0,1.76553 -0.68151,3.36533 -1.78153,4.52357c-1.10066,1.15826 -2.62045,1.8756 -4.29768,1.8756c-1.67722,0 -3.19702,-0.71734 -4.29768,-1.8756c-1.10001,-1.15826 -1.78153,-2.75805 -1.78153,-4.52357c0,-1.76553 0.68151,-3.36533 1.78153,-4.52357c1.10066,-1.15826 2.62045,-1.8756 4.29768,-1.8756z" data-paper-data="{&quot;origPos&quot;:null}" stroke="none" stroke-width="0" stroke-linecap="butt"/></g><g fill="none" stroke="none" stroke-width="1" stroke-linecap="butt" font-family="sans-serif" font-weight="normal" font-size="12" text-anchor="start"/></g><g stroke-width="1.4"><path d="M235.9985,225.6662l12.15843,5.11934l-0.63992,3.51955l-25.27672,0.31996l-2.55966,-1.5998l2.23971,-9.59876l0.95987,3.51955z" data-paper-data="{&quot;origPos&quot;:null}" fill="#2e2e2e" stroke="#000000" stroke-linecap="round"/><path d="M226.08954,226.47087v-4.65372h10.06717l1.91756,4.65372z" data-paper-data="{&quot;origPos&quot;:null,&quot;index&quot;:null}" fill="#8000ff" stroke="#5900b3" stroke-linecap="butt"/><path d="M247.61576,234.30506l-25.47148,0.31996l-2.46368,-1.5998l0.38117,-1.91975l27.90736,0.8319z" fill="#ffffff" stroke="#676767" stroke-linecap="round"/></g></g><g stroke-linecap="round"><path d="M225.11992,190.9805c2.55966,1.44109 5.19484,2.4688 7.83898,3.51955c1.04819,0.34044 2.44449,-0.39291 3.19959,0.63992c1.05843,1.61835 1.06994,3.8171 0.95987,5.75925c-0.20861,3.66545 -0.08703,7.75963 -2.07973,10.87859c-0.85941,1.50829 -3.73961,1.85144 -5.45267,1.63322c-2.00166,-0.25405 -5.75906,0.17492 -6.91923,-1.57973c-1.61708,-2.751 0.16548,-7.72418 0.05349,-10.93209c-0.14014,-4.00076 -0.21054,-8.10583 0.79989,-11.99844c0.16637,-0.97074 0.83382,1.64778 1.5998,2.07973z" data-paper-data="{&quot;origPos&quot;:null}" fill="#2e2e2e" stroke="#000000" stroke-width="1.4"/><path d="M230.39923,190.02063c1.35406,0.38843 2.9449,0.57336 3.95852,1.50061c1.01364,0.92661 1.64074,2.20643 1.64074,3.61873c0,1.4123 -0.62712,2.69214 -1.64074,3.61873c-1.01364,0.92723 -2.41376,1.50061 -3.95852,1.50061c-1.54476,0 -2.9449,-0.57336 -3.95852,-1.50061c-1.01364,-0.92661 -1.34319,-2.32929 -1.64074,-3.61873c-0.50937,-2.17124 -2.19364,-5.67991 -0.63992,-7.03908c1.24528,-1.19984 4.13642,1.30479 6.23919,1.91975z" data-paper-data="{&quot;origPos&quot;:null}" fill="#2e2e2e" stroke="#000000" stroke-width="0"/><path d="M226.06936,182.60937v29.36131" fill="none" stroke="#8000ff" stroke-width="1.4"/><path d="M228.56936,181.73292v30.45687" fill="none" stroke="#8000ff" stroke-width="1.4"/></g></g><path d="M224.57736,155.81923c0.44987,-2.40225 2.8182,-2.12517 4.47942,-2.23971c5.40602,-0.359 10.76852,-0.35772 15.99793,0.63992c1.34574,0.26173 2.36129,-0.07935 2.55966,2.23971c0.79351,9.27688 1.54668,18.69326 0,27.83639c-0.26173,2.31073 -3.00058,2.32546 -4.79938,2.55966c-5.38426,0.69879 -10.85555,0.86582 -16.31788,0.31996c-1.27471,-0.22717 -3.02041,-0.16637 -3.19959,-2.55966c-0.71351,-9.56804 -0.51962,-19.18855 1.27984,-28.79627z" data-paper-data="{&quot;origPos&quot;:null}" fill="#8000ff" stroke="#5900b3" stroke-width="1.4" stroke-linecap="round"/><g data-paper-data="{&quot;index&quot;:null}" stroke-linecap="round"><g fill="#f1d4b3"><path d="M225.60609,189.26554c0.38772,0.43357 0.35636,1.28752 0.52632,2.08081c0.09958,0.46604 0.30078,0.91372 0.35089,1.38721c0.05717,0.53993 0.02675,1.09076 -0.0302,1.63121c-0.04449,0.42395 -0.13168,0.84834 -0.27418,1.25012c-0.1465,0.41402 -0.24008,0.91236 -0.58671,1.18158c-0.37658,0.29214 -0.9111,0.33673 -1.38721,0.35089c-0.426,0.01269 -0.84834,-0.13168 -1.25012,-0.27418c-0.41402,-0.1465 -0.7557,-0.69443 -1.18158,-0.58671c-0.46196,0.11684 -0.47631,0.89329 -0.89924,1.11303c-0.38958,0.20215 -0.88987,0.13239 -1.31867,0.03835c-0.42879,-0.09405 -0.98691,-0.19286 -1.18158,-0.58671c-0.18874,-0.38207 0.57834,-1.11657 0.27418,-1.25012c-0.44288,-0.19411 -1.17305,0.41684 -1.76829,0.59485c-0.45654,0.13703 -0.92155,0.45302 -1.38721,0.35089c-0.46568,-0.10214 -0.89329,-0.47631 -1.11303,-0.89924c-0.20215,-0.38958 -0.07858,-0.88135 -0.03835,-1.31867c0.03875,-0.42454 0.13168,-0.84834 0.27418,-1.25012c0.1465,-0.41402 0.39103,-0.78817 0.58671,-1.18158c0.19569,-0.3934 0.32636,-0.8279 0.58671,-1.18158c0.36787,-0.50042 0.80939,-0.95129 1.28031,-1.35702c0.34247,-0.29503 0.72746,-0.55387 1.14321,-0.73195c0.43816,-0.18758 0.91372,-0.30078 1.38721,-0.35089c0.53993,-0.05717 1.08781,0.03156 1.63121,0.0302c0.43923,-0.00128 0.88135,-0.07858 1.31867,-0.03835c0.42454,0.03875 0.83384,0.18288 1.25012,0.27418c0.4163,0.0913 0.83384,0.18288 1.25012,0.27418c0.20816,0.04565 0.54096,-0.05889 0.62506,0.1371z" data-paper-data="{&quot;origPos&quot;:null}" stroke="#c7af93" stroke-width="1.4"/><g><g stroke="#c7af93" stroke-width="1.4"><path d="M224.09114,169.39397c1.30071,-0.17723 3.27089,-1.05853 3.57152,0.03307c1.46692,3.67839 1.02235,7.89431 0.74459,11.61636c-0.24482,3.08081 -0.00638,6.67579 -2.01018,9.06528c-1.27476,1.57657 -4.11841,0.29457 -6.03541,-0.25454c-1.31851,-0.37821 -3.00216,-1.07608 -3.42167,-2.28239c-0.64687,-2.93179 0.05974,-6.06963 0.56482,-8.80831c0.49637,-2.69809 1.12135,-5.58083 2.62198,-7.78291c0.88698,-1.19386 2.56362,-1.38524 3.96433,-1.58653z" data-paper-data="{&quot;origPos&quot;:null}"/></g><path d="M222.46055,186.2827c0.7791,-0.06038 1.75219,-0.5663 2.1,0.13301c0.91845,1.192 1.19037,2.94514 0.98409,4.47416c-0.13382,0.97757 -0.87007,1.8761 -1.72665,2.40035c-0.85582,0.52375 -1.92492,0.72952 -3.00251,0.49319c-1.07759,-0.23634 -1.96245,-0.87065 -2.5205,-1.70452c-0.55855,-0.83463 -0.79046,-1.86818 -0.56358,-2.90265c0.22689,-1.03447 0.87007,-1.8761 1.72665,-2.40035c0.85582,-0.52375 1.99242,-0.41009 3.00251,-0.49319z" data-paper-data="{&quot;origPos&quot;:null}" stroke="none" stroke-width="0"/></g></g><path d="M221.35963,153.96144c1.43274,-0.22507 3.23067,0.11155 3.83265,1.30848c1.64916,2.45082 1.76568,5.56877 2.18211,8.43772c0.42033,2.88009 1.42787,6.19117 0.53221,9.18546c-0.48441,1.28532 -2.5853,1.69893 -4.04663,1.71478c-1.40566,0.01232 -3.18618,-0.13822 -3.94427,-1.16604c-1.4865,-2.60849 -1.74135,-5.81475 -2.07047,-8.58017c-0.3253,-2.72397 -0.58254,-5.66249 0.19822,-8.21036c0.49341,-1.40308 1.92204,-2.46559 3.31621,-2.68988z" data-paper-data="{&quot;origPos&quot;:null}" fill="#8000ff" stroke="#5900b3" stroke-width="1.4"/></g></g></g></svg>