<svg xmlns="http://www.w3.org/2000/svg" xmlns:xlink="http://www.w3.org/1999/xlink" version="1.1" width="214.04413032531738" height="134.02826118469238" viewBox="0.28048133850097656 -0.3180384635925293 214.04413032531738 134.02826118469238">
  <!-- Exported by Scratch - http://scratch.mit.edu/ -->
  <g id="ID0.6847758572548628">
    <path id="ID0.4837075602263212" fill="#8B0002" stroke="#000000" stroke-width="9.811037063598633" stroke-linecap="round" d="M 38.38 6.9844 L 44.1031 6.8208 L 48.7634 7.6384 L 55.5493 10.6635 L 66.9955 18.4306 L 82.5297 29.2227 L 94.7935 34.9458 L 104.9315 38.0526 L 117.6859 38.2162 L 132.1572 35.1911 L 148.1001 25.6253 L 160.2004 14.1791 L 173.6088 6.3303 L 179.1684 5.5127 L 184.728 6.5756 L 196.7465 14.5062 L 204.35 23.1726 L 208.765 36.4175 L 209.4191 48.5177 L 206.3123 66.2594 L 202.8784 77.4603 L 195.9289 94.4661 L 188.5706 110.6543 L 183.4198 119.8113 L 165.4329 112.6165 L 145.2385 106.0758 L 130.9308 104.1136 L 116.0507 103.0508 L 100.026 103.6231 L 87.4352 105.2582 L 70.8382 108.7739 L 54.2412 114.7422 L 38.1347 122.264 L 27.2608 128.8047 L 21.2107 121.4465 L 14.67 111.2266 L 9.5192 97.0824 L 6.4941 81.5482 L 5.186 68.1398 L 5.6765 53.9956 L 8.9469 39.8513 L 14.0159 28.8957 L 20.7201 19.4117 L 28.896 12.0534 L 38.38 6.9844 Z "/>
    <path id="ID0.5603219540789723" fill="#FFFFFF" stroke="#000000" stroke-width="4" stroke-linecap="round" d="M 40 9 C 38.244 9.439 36.065 10.587 34 11 C 32.694 11.261 31.108 10.261 30 11 C 28.761 11.826 29.053 13.947 28 15 C 26.947 16.053 24.826 15.761 24 17 C 23.261 18.108 24.739 19.892 24 21 C 23.174 22.239 21.053 21.947 20 23 C 18.947 24.053 18.666 25.668 18 27 C 17.334 28.332 16.666 29.668 16 31 C 15.334 32.332 14.666 33.668 14 35 C 13.334 36.332 12.361 37.555 12 39 C 11.677 40.292 12.323 41.708 12 43 C 11.639 44.445 10.361 45.555 10 47 C 9.677 48.292 10.323 49.708 10 51 C 9.639 52.445 8.361 53.555 8 55 C 7.677 56.292 8 57.668 8 59 C 8 60.332 7.261 61.892 8 63 C 8.826 64.239 10.555 64.639 12 65 C 13.292 65.323 14.708 65.323 16 65 C 17.445 64.639 18.668 63.666 20 63 C 21.332 62.334 22.555 61.361 24 61 C 25.292 60.677 26.668 61 28 61 C 29.332 61 30.708 61.323 32 61 C 33.445 60.639 34.555 59.361 36 59 C 37.292 58.677 38.668 59 40 59 C 41.332 59 42.668 59 44 59 C 45.332 59 46.668 59 48 59 C 49.332 59 50.668 59 52 59 C 53.332 59 54.668 59 56 59 C 57.332 59 58.668 59 60 59 C 61.332 59 62.668 59 64 59 C 65.332 59 66.668 59 68 59 C 69.332 59 70.708 59.323 72 59 C 73.445 58.639 74.555 57.361 76 57 C 77.292 56.677 78.668 57 80 57 C 81.332 57 82.668 57 84 57 C 85.332 57 86.708 57.323 88 57 C 89.445 56.639 90.555 55.361 92 55 C 93.292 54.677 94.668 55 96 55 C 97.332 55 98.668 55 100 55 C 101.332 55 102.668 55 104 55 C 105.332 55 106.668 55 108 55 C 109.332 55 110.668 55 112 55 C 113.332 55 114.668 55 116 55 C 117.332 55 118.668 55 120 55 C 121.332 55 122.668 55 124 55 C 125.332 55 126.668 55 128 55 C 129.332 55 130.708 55.323 132 55 C 133.445 54.639 134.555 53.361 136 53 C 137.292 52.677 138.668 53 140 53 C 141.332 53 142.668 53 144 53 C 145.332 53 146.708 53.323 148 53 C 149.445 52.639 150.555 51.361 152 51 C 153.292 50.677 154.668 51 156 51 C 157.332 51 158.668 51 160 51 C 161.332 51 162.668 51 164 51 C 165.332 51 166.668 51 168 51 C 169.332 51 170.668 51 172 51 C 173.332 51 174.668 51 176 51 C 177.332 51 178.668 51 180 51 C 181.332 51 182.668 51 184 51 C 185.332 51 186.668 51 188 51 C 189.332 51 190.668 51 192 51 C 193.332 51 194.668 51 196 51 C 197.332 51 198.668 51 200 51 C 201.332 51 202.892 51.739 204 51 C 205.239 50.174 205.639 48.445 206 47 C 206.323 45.708 205.677 44.292 206 43 C 206.361 41.555 207.639 40.445 208 39 C 208.323 37.708 208 36.332 208 35 C 208 33.668 208 32.332 208 31 C 208 29.668 208.323 28.292 208 27 C 207.639 25.555 206.666 24.332 206 23 C 205.334 21.668 205.053 20.053 204 19 C 202.947 17.947 201.053 18.053 200 17 C 198.947 15.947 199.239 13.826 198 13 C 196.892 12.261 195.332 13 194 13 C 192.668 13 191.292 13.323 190 13 C 188.555 12.639 187.332 11.666 186 11 C 184.668 10.334 183.332 9.666 182 9 C 180.668 8.334 179.445 7.361 178 7 C 176.708 6.677 175.292 7.323 174 7 C 172.555 6.639 171.445 5.361 170 5 C 168.708 4.677 167.108 4.261 166 5 C 164.761 5.826 165.053 7.947 164 9 C 162.947 10.053 161.053 9.947 160 11 C 158.947 12.053 159.053 13.947 158 15 C 156.947 16.053 155.332 16.334 154 17 C 152.668 17.666 151.053 17.947 150 19 C 148.947 20.053 149.053 21.947 148 23 C 146.947 24.053 145.332 24.334 144 25 C 142.668 25.666 141.332 26.334 140 27 C 138.668 27.666 137.053 27.947 136 29 C 134.947 30.053 135.239 32.174 134 33 C 132.892 33.739 131.108 32.261 130 33 C 128.761 33.826 129.239 36.174 128 37 C 126.892 37.739 125.292 36.677 124 37 C 122.555 37.361 121.445 38.639 120 39 C 118.708 39.323 117.332 39 116 39 C 114.668 39 113.332 39 112 39 C 110.668 39 109.332 39 108 39 C 106.668 39 105.332 39 104 39 C 102.668 39 101.332 39 100 39 C 98.668 39 97.332 39 96 39 C 94.668 39 93.292 39.323 92 39 C 90.555 38.639 89.332 37.666 88 37 C 86.668 36.334 85.053 36.053 84 35 C 82.947 33.947 83.239 31.826 82 31 C 80.892 30.261 79.108 31.739 78 31 C 76.761 30.174 77.053 28.053 76 27 C 74.947 25.947 73.053 26.053 72 25 C 70.947 23.947 71.053 22.053 70 21 C 68.947 19.947 67.445 19.361 66 19 C 64.708 18.677 63.108 19.739 62 19 C 60.761 18.174 60.666 16.332 60 15 C 59.334 13.668 59.239 11.826 58 11 C 56.892 10.261 55.292 11.323 54 11 C 52.555 10.639 51.445 9.361 50 9 C 48.708 8.677 47.332 9 46 9 C 44.668 9 43.332 9 42 9 C 41.334 9 40.555 8.861 40 9 Z "/>
    <path id="ID0.23376987967640162" fill="none" stroke="#000000" stroke-width="6.540691375732422" stroke-linecap="round" d="M 8.2928 62.1251 L 206.8028 49.5343 "/>
    <path id="ID0.6102587403729558" fill="#F37070" stroke="#F37070" stroke-width="4" stroke-linecap="round" d="M 14 93 C 24.718 90.33 35.386 93.427 46 95 C 48.658 95.394 49.051 94.701 50 95 C 51.372 96.249 51.065 98.25 52 99 C 53.102 99.936 55.174 99.761 56 101 C 56.739 102.108 55.677 103.708 56 105 C 56.361 106.445 58.471 107.587 58 109 C 57.529 110.413 55.445 110.639 54 111 C 52.708 111.323 51.108 110.261 50 111 C 48.761 111.826 49.239 114.174 48 115 C 46.892 115.739 45.292 114.677 44 115 C 42.555 115.361 41.332 116.334 40 117 C 37.336 118.332 34.326 119.139 32 121 C 30.837 121.93 31.239 124.174 30 125 C 28.892 125.739 26.942 125.942 26 125 C 23.894 122.894 23.332 119.664 22 117 C 21.334 115.668 20.361 114.445 20 113 C 19.677 111.708 20.323 110.292 20 109 C 19.639 107.555 18.361 106.445 18 105 C 17.677 103.708 18.942 101.942 18 101 C 17.058 100.058 14.942 101.942 14 101 C 13.058 100.058 14 98.332 14 97 C 14 95.002 11.32 91.167 14 91 Z "/>
  </g>
</svg>