<svg xmlns="http://www.w3.org/2000/svg" xmlns:xlink="http://www.w3.org/1999/xlink" version="1.1" width="245.57380933107393" height="116.4210154467966" viewBox="1.1233407530116128 2.1842409643458414 245.57380933107393 116.4210154467966">
  <!-- Exported by Scratch - http://scratch.mit.edu/ -->
  <g id="ID0.20669684698805213">
    <path id="ID0.7229881007224321" fill="#FFFFFF" stroke="#000000" stroke-width="12.131518071308317" stroke-linecap="round" d="M 43.1768 17.4436 L 26.4569 13.1341 L 11.6478 8.25 L 8.7815 18.8801 L 7.1891 31.6649 L 7.3483 42.5822 L 10.0554 55.9416 L 16.9026 69.1574 L 22.4759 77.92 L 32.0302 87.4009 L 43.4953 95.7325 L 62.6038 103.7769 L 79.8015 108.9483 L 96.8399 111.2467 L 120.2478 112.5395 L 144.2927 110.8157 L 157.8279 107.9427 L 171.3631 104.0642 L 181.7135 100.6166 L 192.064 95.7325 L 203.2106 89.9866 L 221.8414 77.0581 L 221.0452 55.2234 L 223.7522 46.4608 L 226.6185 38.8473 L 232.6695 29.2228 L 240.6314 20.1729 L 214.3572 23.9078 L 191.2678 27.499 L 172.7962 28.5046 L 155.7578 29.6538 L 128.6874 29.2228 L 106.8718 28.2173 L 91.7443 26.7808 L 74.2281 23.9078 L 58.3044 21.0348 L 43.1768 17.4436 Z "/>
    <path id="ID0.1358409491367638" fill="none" stroke="#000000" stroke-width="9.254699195241141" stroke-linecap="round" d="M 13.6478 57.8131 L 27.134 59.8871 L 42.1955 61.3678 L 57.4194 62.244 L 76.4063 63.7553 L 93.9853 64.6499 L 125.3868 65.047 L 162.9303 63.3721 L 178.0115 62.5815 L 188.3888 60.997 L 199.8613 59.8754 L 217.7832 57.4413 "/>
  </g>
</svg>