<svg xmlns="http://www.w3.org/2000/svg" xmlns:xlink="http://www.w3.org/1999/xlink" version="1.1" width="214.04413003649225" height="133.10303659166803" viewBox="0.251581813266327 0.5923816217685243 214.04413003649225 133.10303659166803">
  <!-- Exported by Scratch - http://scratch.mit.edu/ -->
  <g id="ID0.6114906393922865">
    <path id="ID0.4837075602263212" fill="#FFFFFF" stroke="#000000" stroke-width="9.811036774773498" stroke-linecap="round" d="M 38.3511 6.9695 L 44.0742 6.806 L 48.7344 7.6236 L 55.5204 10.6487 L 66.9666 18.4158 L 82.5007 29.2079 L 94.7645 34.931 L 104.9026 38.0378 L 117.657 38.2013 L 132.1282 35.1763 L 148.0712 25.6105 L 160.1715 14.1643 L 173.5799 6.3155 L 179.1395 5.4979 L 184.699 6.5608 L 196.7176 14.4913 L 204.3211 23.1578 L 208.7361 36.4027 L 209.3902 48.5029 L 206.2833 66.2446 L 202.8495 77.4455 L 195.9 94.4513 L 188.5417 110.6395 L 183.3909 119.7965 L 165.404 112.6017 L 145.2096 106.061 L 130.9019 104.0988 L 116.0218 103.0359 L 99.9971 103.6083 L 87.4063 105.2434 L 70.8093 108.7591 L 54.2123 114.7274 L 38.1058 122.2492 L 27.2319 128.7899 L 21.1818 121.4316 L 14.6411 111.2118 L 9.4903 97.0676 L 6.4652 81.5334 L 5.1571 68.125 L 5.6476 53.9808 L 8.918 39.8365 L 13.987 28.8809 L 20.6912 19.3969 L 28.8671 12.0386 L 38.3511 6.9695 Z "/>
    <path id="ID0.23376987967640162" fill="none" stroke="#000000" stroke-width="6.540691183182332" stroke-linecap="round" d="M 8.2639 76.0947 L 206.7739 63.5039 "/>
  </g>
</svg>