<svg xmlns="http://www.w3.org/2000/svg" xmlns:xlink="http://www.w3.org/1999/xlink" version="1.1" width="252.55558037757874" height="120.78017449378967" viewBox="3.072039484977722 22.330373644828796 252.55558037757874 120.78017449378967">
  <!-- Exported by Scratch - http://scratch.mit.edu/ -->
  <g id="ID0.47083132388070226">
    <path id="ID0.48441735515370965" fill="#8B0002" stroke="none" stroke-linecap="round" d="M 115.4373 51.9677 C 154.168 54.2007 193.0638 48.5181 231.7992 46.4267 C 241.4831 45.9032 238.8729 44.2787 242.4097 45.012 C 243.4283 45.2713 241.5232 47.3722 240.995 48.4309 C 239.144 52.1634 236.3169 55.4126 234.7466 59.2772 C 232.2826 65.3464 230.144 71.9226 228.8519 78.494 C 227.7295 84.2449 228.833 90.4061 227.4371 96.1782 C 227.0504 98.2295 226.5058 99.4957 223.6645 101.2476 C 212.2971 108.2553 201.3565 116.9488 188.5319 120.936 C 161.7274 128.743 133.6355 140.681 106.0058 136.2623 C 74.2969 131.1881 42.9652 115.6567 19.707 93.2308 C 8.3726 82.2996 13.9867 62.1798 13.8123 46.3088 C 13.7651 41.8807 11.0016 33.173 19.1175 33.3404 C 51.7436 35.446 82.9645 50.0956 115.4373 51.9677 Z " stroke-width="2.3578903675079346"/>
    <path id="ID0.3644148511812091" fill="#F37070" stroke="none" stroke-linecap="round" d="M 81.4488 73.544 C 91.7629 71.1727 101.571 68.1047 111.9307 64.5446 C 123.6024 60.5251 134.4418 53.8343 146.4288 50.9953 C 151.5906 49.8223 156.5054 50.6719 161.5217 50.5256 C 167.8566 50.3492 179.166 43.4743 179.9413 48.5018 C 181.918 58.9717 174.4047 72.8117 167.0255 81.5205 C 156.1972 94.2772 142.238 103.7725 127.4479 112.5041 C 115.489 119.8999 102.3567 125.7307 87.4215 129.5131 C 83.6873 130.458 82.0098 125.0768 78.9332 124.2657 C 71.2341 122.2073 62.6333 123.3255 55.2957 120.4586 C 45.8116 116.7527 36.1751 112.1593 28.8319 105.1453 C 24.5803 101.0123 23.9689 95.0576 20.9142 90.5651 C 19.819 88.0389 18.3018 86.1194 16.4699 84.235 C 13.8985 81.4523 7.0635 76.0053 9.473 75.007 C 13.9466 73.2063 22.5022 77.5904 28.9189 77.9979 C 36.0189 78.9303 43.4352 79.6651 49.9686 79.0197 C 60.5691 77.9608 71.3282 75.8571 81.4488 73.544 Z " stroke-width="2.357890177820032"/>
    <path id="ID0.5423615328036249" fill="none" stroke="#000000" stroke-width="11.789451837539673" stroke-linecap="round" d="M 249.7329 39.6609 L 237.7076 41.6651 L 222.8529 44.7304 L 206.7014 46.3809 L 186.3056 48.2672 L 163.9057 49.0925 L 146.5752 48.7388 L 126.5331 48.2672 L 107.0805 46.9704 L 87.6279 44.7304 L 67.9395 40.8399 L 41.0596 35.2988 L 15.1228 28.2251 L 11.3502 40.4862 L 9.2281 53.4546 L 9.8175 67.9556 L 13.3544 79.3914 L 18.6596 90.3556 L 25.1438 98.9619 L 33.9859 107.4503 L 47.1901 116.8818 L 61.3374 123.9555 L 79.9648 129.6144 L 96.47 133.1513 L 109.6742 133.3871 L 124.7647 133.3871 L 142.4489 132.2081 L 160.3688 130.4397 L 173.1014 127.4923 L 187.8382 122.5408 L 199.9814 116.2923 L 212.5961 108.865 L 229.1013 96.8398 "/>
  </g>
</svg>