<svg xmlns="http://www.w3.org/2000/svg" xmlns:xlink="http://www.w3.org/1999/xlink" version="1.1" width="245.57382452634283" height="116.42101538327644" viewBox="1.1483408801391235 2.28114098237301 245.57382452634283 116.42101538327644">
  <!-- Exported by Scratch - http://scratch.mit.edu/ -->
  <g id="ID0.10225837351754308">
    <path id="ID0.7229881007224321" fill="#FFFFFF" stroke="#000000" stroke-width="12.13151800778816" stroke-linecap="round" d="M 43.2018 17.5404 L 26.4819 13.2309 L 11.6728 8.3469 L 8.8065 18.9769 L 7.2141 31.7617 L 7.3733 42.6791 L 10.0804 56.0385 L 16.9276 69.2542 L 22.5009 78.0169 L 32.0552 87.4977 L 43.5203 95.8294 L 62.6288 103.8738 L 79.8265 109.0452 L 96.8649 111.3435 L 120.2728 112.6364 L 144.3177 110.9126 L 157.8529 108.0396 L 171.3881 104.1611 L 181.7385 100.7135 L 192.089 95.8294 L 203.2356 90.0834 L 221.8664 77.155 L 221.0702 55.3202 L 223.7772 46.5576 L 226.6435 38.9442 L 232.6945 29.3197 L 240.6564 20.2698 L 214.3822 24.0047 L 191.2928 27.5959 L 172.8212 28.6014 L 155.7828 29.7506 L 128.7124 29.3197 L 106.8968 28.3141 L 91.7693 26.8776 L 74.2531 24.0047 L 58.3294 21.1317 L 43.2018 17.5404 Z "/>
    <path id="ID0.6935098143294454" fill="#F37070" stroke="none" stroke-linecap="round" d="M 107.25 65 C 115.135 65.346 119.76 64.015 125.25 66 C 134.721 69.236 142.999 72.076 147.25 79.5 C 149.851 83.89 142.802 89.46 138.25 91.5 C 129.81 95.256 119.969 95.969 110.75 96 C 105.127 95.799 99.845 93.312 94.75 91 C 88.395 88.112 82.929 84.955 76.75 80.25 C 70.508 75.431 55.377 65.732 60.25 63.25 C 69.831 58.467 91.612 64.319 107.25 65 Z " stroke-width="1"/>
    <path id="ID0.1358409491367638" fill="none" stroke="#000000" stroke-width="9.254699005696732" stroke-linecap="round" d="M 13.6915 57.8475 L 27.1777 59.9215 L 42.2393 61.4021 L 57.4631 62.2783 L 76.45 63.7897 L 94.3431 64.6868 L 125.4306 65.0814 L 162.974 63.4065 L 178.0552 62.6159 L 188.4326 61.0314 L 199.9051 59.9097 L 217.827 57.4757 "/>
  </g>
</svg>