<svg xmlns="http://www.w3.org/2000/svg" xmlns:xlink="http://www.w3.org/1999/xlink" version="1.1" width="252.29424290774108" height="120.77158360598328" viewBox="0.284974073778379 1.32857415617584 252.29424290774108 120.77158360598328">
  <!-- Exported by Scratch - http://scratch.mit.edu/ -->
  <g id="ID0.47083132388070226">
    <path id="ID0.48441735515370965" fill="#8B0002" stroke="none" stroke-linecap="round" d="M 112.4045 30.9574 C 151.1352 33.1903 190.031 27.5078 228.7664 25.4163 C 238.4503 24.8929 235.8401 23.2683 239.3769 24.0016 C 240.3955 24.2609 238.4904 26.3618 237.9622 27.4205 C 236.1112 31.1531 233.2841 34.4022 231.7138 38.2668 C 229.2498 44.336 227.1112 50.9122 225.8191 57.4836 C 224.6967 63.2345 225.8002 69.3957 224.4043 75.1678 C 224.0176 77.2192 223.473 78.4853 220.6317 80.2373 C 209.2643 87.2449 198.3237 95.9385 185.4991 99.9256 C 158.6946 107.7326 130.6027 119.6706 102.973 115.2519 C 71.2641 110.1778 39.9324 94.6463 16.6742 72.2204 C 5.3398 61.2893 10.9539 41.1694 10.7795 25.2984 C 10.7323 20.8703 7.9689 12.1626 16.0847 12.33 C 48.7108 14.4356 79.9317 29.0852 112.4045 30.9574 Z " stroke-width="2.3578903295950937"/>
    <path id="ID0.3644148511812091" fill="#F37070" stroke="none" stroke-linecap="round" d="M 65.0215 55.8417 C 68.8158 57.1069 72.5089 59.1779 75.3172 62.0247 C 80.3568 67.1377 85.0491 73.2909 88.2562 79.9038 C 91.9498 87.521 94.279 96.1124 95.955 104.6677 C 96.3391 106.6554 95.098 107.2037 93.5776 107.136 C 87.5613 106.8463 81.8402 104.2451 75.9041 103.217 C 68.048 101.858 59.6042 102.2768 52.2665 99.4099 C 42.7824 95.704 33.1371 91.0757 25.8028 84.0965 C 19.82 78.3971 13.7672 71.159 13.4408 63.1863 C 13.2363 58.4508 20.2289 56.1232 24.5467 54.9235 C 32.3816 52.7778 40.9039 52.6849 48.7826 52.8652 C 54.2767 52.9917 59.5837 54.0331 65.0215 55.8417 Z " stroke-width="2.357890261155815"/>
    <path id="ID0.5423615328036249" fill="none" stroke="#000000" stroke-width="11.789451647975469" stroke-linecap="round" d="M 246.6845 18.6591 L 234.6593 20.6633 L 219.8046 23.7285 L 203.653 25.379 L 183.2573 27.2654 L 160.8573 28.0906 L 143.5268 27.7369 L 123.4847 27.2654 L 104.0321 25.9685 L 84.5795 23.7285 L 64.8912 19.838 L 38.0112 14.297 L 12.0744 7.2233 L 8.3018 19.4843 L 6.1797 32.4527 L 6.7692 46.9537 L 10.306 58.3895 L 15.6113 69.3537 L 22.0955 77.96 L 30.9375 86.4484 L 44.1417 95.88 L 58.2891 102.9536 L 76.9164 108.6126 L 93.4216 112.1494 L 106.6258 112.3852 L 121.7163 112.3852 L 139.4005 111.2063 L 157.3205 109.4378 L 170.0531 106.4905 L 184.7899 101.5389 L 196.933 95.2905 L 209.5477 87.8631 L 226.053 75.8379 "/>
  </g>
</svg>