<svg xmlns="http://www.w3.org/2000/svg" xmlns:xlink="http://www.w3.org/1999/xlink" version="1.1" width="264.5316560268402" height="181.37265944480896" viewBox="0.5134187936782837 0.3107186555862427 264.5316560268402 181.37265944480896">
  <!-- Exported by Scratch - http://scratch.mit.edu/ -->
  <path id="ID0.5483859125524759" fill="none" stroke="#000000" stroke-width="14.337762594223022" stroke-linecap="round" d="M 44.9604 7.4796 L 30.6227 18.9498 L 22.02 30.42 L 14.1343 46.1916 L 9.8329 61.9631 L 7.6823 77.0177 L 7.6823 92.0724 L 9.116 111.4284 L 16.2849 131.5012 L 24.8876 145.839 L 37.7916 158.743 L 54.28 168.7794 L 74.3529 172.3639 L 92.2751 165.9119 L 106.6128 153.7248 L 120.9506 139.387 L 133.1377 123.6155 L 149.6261 99.2413 L 156.795 133.6519 L 162.5301 150.1403 L 171.8496 163.7612 L 180.4523 170.2132 L 193.3563 174.5145 L 213.4292 174.5145 L 227.05 169.4963 L 241.3878 162.3274 L 251.4242 151.5741 L 256.4424 134.3688 L 257.8762 111.4284 L 257.1593 92.7893 L 252.1411 70.5658 L 243.5385 55.5111 "/>
</svg>