<svg version="1.1" xmlns="http://www.w3.org/2000/svg" xmlns:xlink="http://www.w3.org/1999/xlink" width="65.71485" height="142.1797" viewBox="0,0,65.71485,142.1797"><defs><radialGradient cx="227.25036" cy="111.99769" r="22.6417" gradientUnits="userSpaceOnUse" id="color-1"><stop offset="0" stop-color="#5e2ccf"/><stop offset="1" stop-color="#26008e"/></radialGradient><radialGradient cx="225.14204" cy="120.43098" r="22.6417" gradientUnits="userSpaceOnUse" id="color-2"><stop offset="0" stop-color="#45219b"/><stop offset="1" stop-color="#18005b"/></radialGradient><radialGradient cx="217.64578" cy="119.49395" r="14.38606" gradientUnits="userSpaceOnUse" id="color-3"><stop offset="0" stop-color="#5e2ccf"/><stop offset="1" stop-color="#26008e"/></radialGradient><radialGradient cx="223.03372" cy="120.66524" r="14.38606" gradientUnits="userSpaceOnUse" id="color-4"><stop offset="0" stop-color="#45219b"/><stop offset="1" stop-color="#18005b"/></radialGradient><radialGradient cx="221.62817" cy="114.57453" r="5.73453" gradientUnits="userSpaceOnUse" id="color-5"><stop offset="0" stop-color="#5e2ccf"/><stop offset="1" stop-color="#26008e"/></radialGradient></defs><g transform="translate(-202.7535,-96.45005)"><g data-paper-data="{&quot;isPaintingLayer&quot;:true}" fill-rule="nonzero" stroke-linejoin="miter" stroke-miterlimit="10" stroke-dasharray="" stroke-dashoffset="0" style="mix-blend-mode: normal"><path d="M263.9111,231.79642c0,3.77395 -10.73415,6.83333 -23.97539,6.83333c-13.24124,0 -23.97539,-3.05939 -23.97539,-6.83333c0,-3.77395 10.73415,-6.83333 23.97539,-6.83333c13.24124,0 23.97539,3.05939 23.97539,6.83333z" fill-opacity="0.5" fill="#000000" stroke="#000000" stroke-width="0" stroke-linecap="butt"/><g data-paper-data="{&quot;index&quot;:null}" stroke-linecap="round"><g fill="#f1d4b3"><path d="M254.80234,188.34546c0.00574,-0.21318 0.35362,-0.23902 0.53017,-0.35836c0.3531,-0.23867 0.70724,-0.47805 1.06034,-0.7167c0.3531,-0.23867 0.68015,-0.52383 1.06034,-0.7167c0.39151,-0.19897 0.8309,-0.29053 1.23951,-0.45163c0.50545,-0.19954 0.98178,-0.48442 1.50461,-0.63081c0.45853,-0.12841 0.94223,-0.19895 1.41869,-0.18654c0.45212,0.01184 0.90553,0.1101 1.33277,0.25772c0.58752,0.20303 1.16441,0.45883 1.69114,0.7879c0.37261,0.23244 0.6546,0.5879 0.9818,0.88116c0.3272,0.29326 0.69269,0.55056 0.9818,0.88116c0.28086,0.32069 0.52383,0.68015 0.7167,1.06034c0.19897,0.39151 0.49552,0.80281 0.45163,1.23951c-0.04791,0.4742 -0.30701,0.97992 -0.70198,1.24687c-0.39496,0.26697 -0.94383,0.14519 -1.41869,0.18654c-0.61889,0.05455 -1.52312,-0.24336 -1.86296,0.10066c-0.23328,0.23647 0.75092,0.63555 0.7167,1.06034c-0.03536,0.43791 -0.51745,0.73596 -0.88116,0.9818c-0.36371,0.24582 -0.80281,0.49552 -1.23951,0.45163c-0.4742,-0.04791 -0.77445,-0.76408 -1.24687,-0.70198c-0.43553,0.05728 -0.55056,0.69269 -0.88116,0.9818c-0.32069,0.28086 -0.6598,0.57109 -1.06034,0.7167c-0.44763,0.16277 -0.9608,0.31888 -1.41869,0.18654c-0.42159,-0.12208 -0.69269,-0.55056 -0.9818,-0.88116c-0.28086,-0.32069 -0.51872,-0.68284 -0.7167,-1.06034c-0.25264,-0.48116 -0.48442,-0.98178 -0.63081,-1.50461c-0.12841,-0.45853 -0.10689,-0.94887 -0.18654,-1.41869c-0.13522,-0.79992 -0.47991,-1.58187 -0.27981,-2.12803z" data-paper-data="{&quot;origPos&quot;:null}" stroke="#c7af93" stroke-width="1.4"/><path d="M245.73975,170.93616c-0.12402,-1.1254 2.03236,-1.0345 3.30652,-1.35044c1.37596,-0.33051 3.00468,-0.77225 4.27,0.00936c2.20813,1.49172 3.8541,3.93949 5.31231,6.26323c1.48131,2.35826 3.29739,5.01289 3.77964,7.97621c0.05592,1.27594 -1.25071,2.54658 -2.33612,3.38521c-1.57844,1.21862 -3.74709,3.46066 -5.51421,2.46669c-2.74495,-1.47993 -3.85174,-4.90859 -5.21766,-7.6809c-1.63344,-3.35597 -3.60439,-7.10923 -3.60052,-11.06934z" data-paper-data="{&quot;origPos&quot;:null}" stroke="#c7af93" stroke-width="1.4"/><path d="M254.89983,185.57625c0.06477,-0.77832 1.15595,-0.66782 1.90223,-0.89957c0.9693,-0.29602 1.98346,-0.82165 2.97225,-0.65119c0.98969,0.17063 1.89834,0.71501 2.4914,1.59243c0.59307,0.87743 0.75949,1.92355 0.54887,2.90547c-0.21045,0.98106 -0.79827,1.89744 -1.71228,2.51523c-0.91398,0.61781 -1.98346,0.82165 -2.97225,0.65119c-0.98969,-0.17063 -2.00582,-0.7335 -2.4914,-1.59243c-0.75669,-1.34459 -1.15181,-3.07411 -0.73882,-4.52114z" data-paper-data="{&quot;origPos&quot;:null}" stroke="none" stroke-width="0"/></g><path d="M242.804,156.86818c0.11712,-1.33467 1.6634,-2.31182 3.0779,-2.6321c1.37837,-0.30676 3.09851,0.15263 4.07544,1.27411c1.667,2.07905 2.51376,4.90464 3.21803,7.55602c0.71605,2.69131 1.66398,5.76484 1.24656,8.738c-0.32466,1.23522 -1.92354,2.03304 -3.23428,2.54098c-1.36375,0.52525 -3.46881,0.91724 -4.39388,-0.09812c-1.93867,-2.45142 -2.22595,-5.90046 -2.8996,-8.73201c-0.67316,-2.81976 -1.71702,-5.76009 -1.0902,-8.64687z" data-paper-data="{&quot;origPos&quot;:null}" fill="#8000ff" stroke="#5900b3" stroke-width="1.4"/></g><path d="M235.93597,147.02038c1.89799,0 3.61745,0.7711 4.86274,2.01638c1.24528,1.24528 2.01638,2.96474 2.01638,4.86274c0,1.89799 -0.7711,3.61745 -2.01638,4.86274c-1.24528,1.24528 -2.96474,2.01638 -4.86274,2.01638c-1.89799,0 -3.61745,-0.7711 -4.86274,-2.01638c-1.24528,-1.24528 -2.01638,-2.96474 -2.01638,-4.86274c0,-1.89799 0.7711,-3.61745 2.01638,-4.86274c1.24528,-1.24528 2.96474,-2.01638 4.86274,-2.01638z" data-paper-data="{&quot;origPos&quot;:null}" fill="#f1d4b3" stroke="#c7af93" stroke-width="1.4" stroke-linecap="butt"/><path d="M235.77598,103.28206c6.75305,0 12.87194,2.7606 17.30335,7.22081c4.43078,4.45958 7.17347,10.61878 7.17347,17.41598c0,6.79719 -2.74268,12.95639 -7.17347,17.41598c-4.43143,4.46021 -10.55031,7.22081 -17.30335,7.22081c-6.75305,0 -12.87194,-2.7606 -17.30335,-7.22081c-4.43078,-4.45958 -7.17347,-10.61878 -7.17347,-17.41598c0,-6.79719 2.74268,-12.95639 7.17347,-17.41598c4.43143,-4.46021 10.55031,-7.22081 17.30335,-7.22081z" data-paper-data="{&quot;index&quot;:null}" fill="#f1d4b3" stroke="#c7af93" stroke-width="1.4" stroke-linecap="butt"/><path d="M230.49483,143.59683c0,0 -0.64119,0.02111 -0.95987,0c-0.48121,-0.03199 -0.97907,-0.016 -1.43981,-0.15998c-0.4102,-0.12799 -0.77942,-0.3782 -1.11985,-0.63992c-0.35834,-0.2758 -0.77622,-0.54648 -0.95987,-0.95987c-0.26301,-0.59193 -0.31996,-1.91975 -0.31996,-1.91975" data-paper-data="{&quot;index&quot;:null}" fill="none" stroke="#9a8772" stroke-width="1.4" stroke-linecap="round"/><path d="M231.77457,124.71928c0.79479,0 1.51468,0.79798 2.03557,2.08677c0.52153,1.28815 0.84405,3.0684 0.84405,5.03231c0,1.96391 -0.32252,3.74416 -0.84405,5.03231c-0.5209,1.28879 -1.2408,2.08677 -2.03557,2.08677c-0.79479,0 -1.51468,-0.79798 -2.03557,-2.08677c-0.52153,-1.28815 -0.84405,-3.0684 -0.84405,-5.03231c0,-1.96391 0.32252,-3.74416 0.84405,-5.03231c0.5209,-1.28879 1.2408,-2.08677 2.03557,-2.08677z" data-paper-data="{&quot;index&quot;:null}" fill="#424242" stroke="none" stroke-width="1.4" stroke-linecap="butt"/><path d="M243.77304,124.71928c0.79479,0 1.51468,0.79798 2.03557,2.08677c0.52153,1.28815 0.84405,3.0684 0.84405,5.03231c0,1.96391 -0.32252,3.74416 -0.84405,5.03231c-0.5209,1.28879 -1.2408,2.08677 -2.03557,2.08677c-0.79479,0 -1.51468,-0.79798 -2.03557,-2.08677c-0.52153,-1.28815 -0.84405,-3.0684 -0.84405,-5.03231c0,-1.96391 0.32252,-3.74416 0.84405,-5.03231c0.5209,-1.28879 1.2408,-2.08677 2.03557,-2.08677z" data-paper-data="{&quot;index&quot;:null}" fill="#424242" stroke="none" stroke-width="1.4" stroke-linecap="butt"/><g data-paper-data="{&quot;origPos&quot;:null}" stroke-width="1.4" stroke-linecap="butt"><path d="M259.49878,122.32564c-2.26447,1.46525 -9.05789,-1.99806 -11.85518,-1.99806c-4.92856,0 -18.915,0.53282 -23.84355,-0.1332c-5.46137,-0.79923 -6.79342,-3.0637 -6.79342,-8.65827c0,-5.19496 8.12546,-14.38606 19.98063,-14.38606c11.85518,0 17.31655,6.79342 22.91113,9.72391c0,0 3.33011,8.25866 2.13127,11.18915z" fill="url(#color-1)" stroke="url(#color-2)"/><path d="M216.74022,110.07082c9.72391,0 5.32817,4.12933 5.32817,11.98838c0,7.85905 -5.86099,16.78373 -8.12546,16.78373c-2.26447,0 -3.99613,-6.3938 -3.99613,-14.25285c0,-7.99225 4.52894,-14.51926 6.79342,-14.51926z" fill="url(#color-3)" stroke="url(#color-4)"/></g><path d="M217.48668,112.39766c-0.02825,-0.00822 -0.05725,-0.01814 -0.087,-0.02991c-0.01856,-0.00707 -0.03677,-0.01486 -0.05459,-0.02333c-0.38977,-0.17921 -0.4461,-0.48927 -0.42769,-0.71127c0.00433,-0.09852 0.02767,-0.1921 0.06644,-0.27716l0.49347,-1.15143l0.09304,0.03987c2.05115,-3.19799 5.7607,-3.15574 7.85047,0.75349c2.07565,4.1513 1.8095,8.27285 -3.83749,8.41874c-3.13229,0 -4.27467,-4.25455 -4.09665,-7.019z" data-paper-data="{&quot;origPos&quot;:null}" fill="url(#color-5)" stroke="none" stroke-width="0.5" stroke-linecap="butt"/><path d="M229.3334,180.75584l-4.33333,2.46503" data-paper-data="{&quot;origPos&quot;:null}" fill="none" stroke="#000000" stroke-width="1.4" stroke-linecap="round"/><path d="M235.13601,179.65614c3.31029,0 6.30959,0.86069 8.4821,2.25059c2.17187,1.38991 3.51634,3.30965 3.51634,5.42842c0,2.11877 -1.34446,4.03851 -3.51634,5.42842c-2.17252,1.38991 -5.17181,2.25059 -8.4821,2.25059c-3.31029,0 -6.30959,-0.86069 -8.4821,-2.25059c-2.17187,-1.38991 -3.51634,-3.30965 -3.51634,-5.42842c0,-2.11877 1.34446,-4.03851 3.51634,-5.42842c2.17252,-1.38991 5.17181,-2.25059 8.4821,-2.25059z" data-paper-data="{&quot;origPos&quot;:null,&quot;index&quot;:null}" fill="#2e2e2e" stroke="#000000" stroke-width="1.4" stroke-linecap="butt"/><g><g><path d="M235.10407,207.7805c2.55966,1.44109 5.19484,2.4688 7.83898,3.51955c1.04819,0.34044 2.44449,-0.39291 3.19959,0.63992c1.05843,1.61835 1.06994,3.8171 0.95987,5.75925c-0.20861,3.66545 -0.08703,7.75963 -2.07973,10.87859c-0.85941,1.50829 -3.40628,1.01811 -5.11934,0.79989c-2.00166,-0.25405 -4.75906,-0.32508 -5.91923,-2.07973c-1.61708,-2.751 -1.16785,-6.39085 -1.27984,-9.59876c-0.14014,-4.00076 -0.21054,-8.10583 0.79989,-11.99844c0.16637,-0.97074 0.83382,1.64778 1.5998,2.07973z" data-paper-data="{&quot;origPos&quot;:null}" fill="#f1d4b3" stroke="#c7af93" stroke-width="1.4" stroke-linecap="round"/><path d="M240.41536,202.66117c1.67722,0 3.19702,0.71734 4.29768,1.8756c1.10001,1.15826 1.78153,2.75805 1.78153,4.52357c0,1.76553 -0.68151,3.36533 -1.78153,4.52357c-1.10066,1.15826 -2.62045,1.8756 -4.29768,1.8756c-1.67722,0 -3.19702,-0.71734 -4.29768,-1.8756c-1.10001,-1.15826 -1.78153,-2.75805 -1.78153,-4.52357c0,-1.76553 0.68151,-3.36533 1.78153,-4.52357c1.10066,-1.15826 2.62045,-1.8756 4.29768,-1.8756z" data-paper-data="{&quot;origPos&quot;:null}" fill="#f1d4b3" stroke="none" stroke-width="0" stroke-linecap="butt"/><g stroke-width="1.4"><path d="M246.79863,225.3961l12.15843,5.11934l-0.63992,3.51955l-25.27672,0.31996l-2.55966,-1.5998l2.23971,-9.59876l0.95987,3.51955z" fill="#2e2e2e" stroke="#000000" stroke-linecap="round"/><path d="M237.88592,226.55957v-4.65372h10.06717l1.91756,4.65372z" data-paper-data="{&quot;origPos&quot;:null,&quot;index&quot;:null}" fill="#8000ff" stroke="#5900b3" stroke-linecap="butt"/><path d="M258.41589,234.03496l-25.47148,0.31996l-2.46368,-1.5998l0.38117,-1.91975l27.90736,0.8319z" fill="#ffffff" stroke="#676767" stroke-linecap="round"/></g></g><g fill="#2e2e2e" stroke="#000000" stroke-linecap="round"><path d="M247.07046,188.42301c1.01043,3.89261 0.94003,7.99769 0.79989,11.99844c-0.15438,4.42219 -0.18739,11.10111 -0.23675,11.19002c-1.40227,2.52565 -3.24241,1.95118 -6.12472,1.75739c-2.72309,-0.18309 -4.60576,0.3025 -5.95693,-2.0688c-1.9927,-3.11896 -1.87111,-7.21314 -2.07973,-10.87859c-0.11007,-1.94215 -0.09855,-4.14091 0.95987,-5.75925c0.7551,-1.03282 2.1514,-0.29948 3.19959,-0.63992c2.64414,-1.05074 5.27932,-2.07845 7.83898,-3.51955c0.76598,-0.43195 1.43342,-3.05048 1.5998,-2.07973z" data-paper-data="{&quot;origPos&quot;:null}" stroke-width="1.4"/><path d="M246.43053,187.62312c1.55371,1.35919 -0.13054,4.86784 -0.63992,7.03908c-0.29756,1.28942 -0.62712,2.69214 -1.64074,3.61873c-1.01364,0.92723 -2.41376,1.50061 -3.95852,1.50061c-1.54476,0 -2.9449,-0.57336 -3.95852,-1.50061c-1.01364,-0.92661 -1.64074,-2.20643 -1.64074,-3.61873c0,-1.4123 0.62712,-2.69214 1.64074,-3.61873c1.01364,-0.92723 2.60445,-1.11217 3.95852,-1.50061c2.10277,-0.61496 4.99391,-3.11959 6.23919,-1.91975z" data-paper-data="{&quot;origPos&quot;:null}" stroke-width="0"/></g></g><g><path d="M224.90268,212.83333l4.66667,0.33333" data-paper-data="{&quot;origPos&quot;:null}" fill="none" stroke="#000000" stroke-width="1.4" stroke-linecap="round"/><g><g><g fill="none" stroke="none" stroke-width="1" stroke-linecap="butt" font-family="sans-serif" font-weight="normal" font-size="12" text-anchor="start"/><g fill="#f1d4b3"><path d="M224.28807,208.06846c2.55966,1.44109 5.19484,2.4688 7.83898,3.51955c1.04819,0.34044 2.44449,-0.39291 3.19959,0.63992c1.05843,1.61835 1.06994,3.8171 0.95987,5.75925c-0.20861,3.66545 -0.08703,7.75963 -2.07973,10.87859c-0.85941,1.50829 -3.40628,1.01811 -5.11934,0.79989c-2.00166,-0.25405 -4.75906,-0.32508 -5.91923,-2.07973c-1.61708,-2.751 -1.16785,-6.39085 -1.27984,-9.59876c-0.14014,-4.00076 -0.21054,-8.10583 0.79989,-11.99844c0.16637,-0.97074 0.83382,1.64778 1.5998,2.07973z" data-paper-data="{&quot;origPos&quot;:null}" stroke="#c7af93" stroke-width="1.4" stroke-linecap="round"/><path d="M229.59938,202.94913c1.67722,0 3.19702,0.71734 4.29768,1.8756c1.10001,1.15826 1.78153,2.75805 1.78153,4.52357c0,1.76553 -0.68151,3.36533 -1.78153,4.52357c-1.10066,1.15826 -2.62045,1.8756 -4.29768,1.8756c-1.67722,0 -3.19702,-0.71734 -4.29768,-1.8756c-1.10001,-1.15826 -1.78153,-2.75805 -1.78153,-4.52357c0,-1.76553 0.68151,-3.36533 1.78153,-4.52357c1.10066,-1.15826 2.62045,-1.8756 4.29768,-1.8756z" data-paper-data="{&quot;origPos&quot;:null}" stroke="none" stroke-width="0" stroke-linecap="butt"/></g><g fill="none" stroke="none" stroke-width="1" stroke-linecap="butt" font-family="sans-serif" font-weight="normal" font-size="12" text-anchor="start"/></g><g stroke-width="1.4"><path d="M235.9985,225.6662l12.15843,5.11934l-0.63992,3.51955l-25.27672,0.31996l-2.55966,-1.5998l2.23971,-9.59876l0.95987,3.51955z" data-paper-data="{&quot;origPos&quot;:null}" fill="#2e2e2e" stroke="#000000" stroke-linecap="round"/><path d="M226.08954,226.47087v-4.65372h10.06717l1.91756,4.65372z" data-paper-data="{&quot;origPos&quot;:null,&quot;index&quot;:null}" fill="#8000ff" stroke="#5900b3" stroke-linecap="butt"/><path d="M247.61576,234.30506l-25.47148,0.31996l-2.46368,-1.5998l0.38117,-1.91975l27.90736,0.8319z" fill="#ffffff" stroke="#676767" stroke-linecap="round"/></g></g><g stroke-linecap="round"><path d="M225.11992,190.9805c2.55966,1.44109 5.19484,2.4688 7.83898,3.51955c1.04819,0.34044 2.44449,-0.39291 3.19959,0.63992c1.05843,1.61835 1.06994,3.8171 0.95987,5.75925c-0.20861,3.66545 -0.08703,7.75963 -2.07973,10.87859c-0.85941,1.50829 -3.73961,1.85144 -5.45267,1.63322c-2.00166,-0.25405 -5.75906,0.17492 -6.91923,-1.57973c-1.61708,-2.751 0.16548,-7.72418 0.05349,-10.93209c-0.14014,-4.00076 -0.21054,-8.10583 0.79989,-11.99844c0.16637,-0.97074 0.83382,1.64778 1.5998,2.07973z" data-paper-data="{&quot;origPos&quot;:null}" fill="#2e2e2e" stroke="#000000" stroke-width="1.4"/><path d="M230.39923,190.02063c1.35406,0.38843 2.9449,0.57336 3.95852,1.50061c1.01364,0.92661 1.64074,2.20643 1.64074,3.61873c0,1.4123 -0.62712,2.69214 -1.64074,3.61873c-1.01364,0.92723 -2.41376,1.50061 -3.95852,1.50061c-1.54476,0 -2.9449,-0.57336 -3.95852,-1.50061c-1.01364,-0.92661 -1.34319,-2.32929 -1.64074,-3.61873c-0.50937,-2.17124 -2.19364,-5.67991 -0.63992,-7.03908c1.24528,-1.19984 4.13642,1.30479 6.23919,1.91975z" data-paper-data="{&quot;origPos&quot;:null}" fill="#2e2e2e" stroke="#000000" stroke-width="0"/><path d="M226.06936,211.97068v-29.36131" fill="none" stroke="#8000ff" stroke-width="1.4"/><path d="M228.56936,181.73292v30.45687" fill="none" stroke="#8000ff" stroke-width="1.4"/></g></g><path d="M224.57736,155.81923c0.44987,-2.40225 2.8182,-2.12517 4.47942,-2.23971c5.40602,-0.359 10.76852,-0.35772 15.99793,0.63992c1.34574,0.26173 2.36129,-0.07935 2.55966,2.23971c0.79351,9.27688 1.54668,18.69326 0,27.83639c-0.26173,2.31073 -3.00058,2.32546 -4.79938,2.55966c-5.38426,0.69879 -10.85555,0.86582 -16.31788,0.31996c-1.27471,-0.22717 -3.02041,-0.16637 -3.19959,-2.55966c-0.71351,-9.56804 -0.51962,-19.18855 1.27984,-28.79627z" data-paper-data="{&quot;origPos&quot;:null}" fill="#8000ff" stroke="#5900b3" stroke-width="1.4" stroke-linecap="round"/><g data-paper-data="{&quot;index&quot;:null}" stroke-linecap="round"><g fill="#f1d4b3"><path d="M216.34603,187.61755c0.15523,0.56055 -0.25159,1.31202 -0.45108,2.09841c-0.11743,0.46186 -0.13563,0.95234 -0.30071,1.39895c-0.18821,0.50928 -0.45976,0.98949 -0.75048,1.44863c-0.22789,0.36025 -0.49425,0.70195 -0.80015,0.99887c-0.31492,0.30611 -0.6198,0.71126 -1.04987,0.79883c-0.46708,0.09483 -0.96594,-0.10225 -1.39895,-0.30071c-0.38744,-0.17755 -0.70195,-0.49425 -0.99887,-0.80015c-0.30611,-0.31492 -0.36935,-0.95755 -0.79883,-1.04987c-0.46586,-0.10015 -0.82307,0.5894 -1.29958,0.59879c-0.43882,0.00841 -0.85629,-0.27598 -1.19891,-0.55044c-0.34261,-0.27446 -0.79902,-0.61054 -0.79883,-1.04987c0.00028,-0.42614 1.01354,-0.74428 0.80015,-0.99887c-0.31086,-0.37039 -1.23625,-0.14662 -1.84869,-0.25105c-0.46996,-0.07965 -1.02687,-0.00266 -1.39895,-0.30071c-0.37208,-0.29807 -0.5894,-0.82307 -0.59879,-1.29958c-0.00841,-0.43882 0.32043,-0.82479 0.55044,-1.19891c0.22301,-0.36332 0.49425,-0.70195 0.80015,-0.99887c0.31492,-0.30611 0.70001,-0.53301 1.04987,-0.79883c0.34986,-0.26581 0.65967,-0.5973 1.04987,-0.79883c0.55164,-0.28537 1.14732,-0.49367 1.74934,-0.64848c0.43779,-0.11255 0.89764,-0.17381 1.34925,-0.14904c0.4759,0.02619 0.95234,0.13563 1.39895,0.30071c0.50928,0.18821 0.96099,0.51071 1.44863,0.75048c0.39424,0.19364 0.82479,0.32043 1.19891,0.55044c0.36332,0.22301 0.66625,0.53371 0.99887,0.80015c0.33263,0.26645 0.66625,0.53371 0.99887,0.80015c0.16632,0.13323 0.51097,0.18712 0.49943,0.40008z" data-paper-data="{&quot;origPos&quot;:null}" stroke="#c7af93" stroke-width="1.4"/><g><g stroke="#c7af93" stroke-width="1.4"><path d="M223.80092,169.13516c1.2444,0.41799 3.40108,0.50184 3.18642,1.61355c-0.31653,3.94743 -2.58468,7.52893 -4.4843,10.74176c-1.58572,2.6527 -2.96632,5.98057 -5.82199,7.23357c-1.84173,0.84772 -3.8219,-1.56243 -5.29655,-2.90475c-1.01403,-0.92372 -2.21356,-2.29588 -2.05458,-3.56312c0.72042,-2.91459 2.74533,-5.41361 4.41258,-7.64425c1.64145,-2.19812 3.48005,-4.5047 5.80163,-5.81288c1.32444,-0.67668 2.91206,-0.10464 4.25676,0.33614z" data-paper-data="{&quot;origPos&quot;:null}"/></g><path d="M214.84958,183.54909c0.72507,0.2914 1.8216,0.2695 1.8232,1.05053c0.29456,1.47569 -0.23921,3.16759 -1.10219,4.44654c-0.55348,0.81683 -1.61185,1.29565 -2.61208,1.38565c-0.99933,0.08989 -2.0488,-0.19981 -2.90982,-0.88953c-0.86101,-0.68972 -1.37279,-1.65066 -1.50316,-2.64553c-0.13047,-0.99577 0.12003,-2.02497 0.78215,-2.85153c0.66213,-0.82655 1.61185,-1.29565 2.61208,-1.38565c0.99933,-0.08989 1.96764,0.51605 2.90982,0.88953z" data-paper-data="{&quot;origPos&quot;:null}" stroke="none" stroke-width="0"/></g></g><path d="M228.19678,154.09187c1.38395,0.43367 2.84612,1.53273 2.85485,2.87249c0.39122,2.928 -0.88711,5.77424 -1.7862,8.53031c-0.90054,2.76778 -1.46591,6.18227 -3.59659,8.46879c-1.00419,0.93718 -3.07061,0.37618 -4.3874,-0.25769c-1.26533,-0.61234 -2.79442,-1.5369 -3.01806,-2.79432c-0.1755,-2.99718 1.01801,-5.98392 1.94944,-8.60848c0.91647,-2.58571 1.9891,-5.33354 3.81882,-7.27089c1.06448,-1.03874 2.81614,-1.35747 4.16518,-0.94021z" data-paper-data="{&quot;origPos&quot;:null}" fill="#8000ff" stroke="#5900b3" stroke-width="1.4"/></g></g></g></svg>