<svg xmlns="http://www.w3.org/2000/svg" xmlns:xlink="http://www.w3.org/1999/xlink" version="1.1" width="237.99922847747803" height="214.5230474472046" viewBox="0.6587309837341309 0.021730899810791016 237.99922847747803 214.5230474472046">
  <!-- Exported by Scratch - http://scratch.mit.edu/ -->
  <g id="ID0.7283255159854889">
    <path id="ID0.4394450536929071" fill="#FFFFFF" stroke="#000000" stroke-width="12.952338218688965" stroke-linecap="round" d="M 16.5254 208.0686 L 8.4302 169.5354 L 7.1349 139.2593 L 10.6968 111.2499 L 17.6587 87.9357 L 25.7539 69.1548 L 39.192 50.6977 L 54.8967 33.5359 L 68.6585 23.4978 L 81.2871 17.8312 L 93.7537 12.974 L 100.7156 10.5455 L 114.3155 7.6312 L 130.1821 6.4979 L 152.0392 7.3074 L 166.1249 10.5455 L 177.9439 15.7264 L 190.0867 21.8788 L 204.9819 33.2121 L 214.6961 44.2216 L 222.7914 55.8787 L 230.5628 74.0119 L 232.1818 89.5547 L 232.1818 106.8785 L 227.6485 129.0594 L 219.5533 150.1069 L 210.8104 166.7831 L 196.5629 190.2592 L 181.182 178.6021 L 164.5058 172.7735 L 145.0773 169.5354 L 128.5631 167.9164 L 109.9441 168.8878 L 91.0013 171.1545 L 72.7061 175.6878 L 56.03 182.164 L 36.2777 193.1734 L 16.5254 208.0686 Z "/>
    <path id="ID0.6454006624408066" fill="none" stroke="#000000" stroke-width="9.714253664016724" stroke-linecap="round" d="M 13.935 104.8865 L 232.02 91.7722 "/>
  </g>
</svg>